#VRML V2.0 utf8

Shape {
  appearance Appearance {
    material Material {
      diffuseColor 0.8510 0.8510 0.8510
      specularColor 0.4235 0.4235 0.4235
      ambientIntensity 0.2
      transparency 0.0000
      shininess 0.5
    }
  }
  geometry IndexedFaceSet {
    ccw TRUE
    solid FALSE
    coord DEF co Coordinate {
      point [
        -0.086884 -0.069070 0.000000,
        -0.060121 -0.069070 0.000000,
        -0.050518 -0.069671 0.000000,
        -0.060121 0.029355 0.000000,
        -1.279528 0.266104 0.000000,
        -1.279528 0.354331 0.000000,
        -1.237865 0.266104 0.000000,
        -0.944882 0.354331 0.000000,
        -1.237865 -0.069671 0.000000,
        -0.102116 0.027835 0.000000,
        -0.113632 0.023791 0.000000,
        -0.183752 0.029355 0.000000,
        -0.124345 0.016611 0.000000,
        -0.087896 0.029355 0.000000,
        -0.235366 -0.069070 0.000000,
        -0.220962 -0.069070 0.000000,
        -0.146543 -0.069070 0.000000,
        -0.134426 -0.042094 0.000000,
        -0.128782 -0.050898 0.000000,
        -0.124448 0.016521 0.000000,
        -0.131408 0.008803 0.000000,
        -0.135982 0.000339 0.000000,
        -0.120680 -0.058655 0.000000,
        -0.110404 -0.064627 0.000000,
        -0.099062 -0.068007 0.000000,
        -0.138626 -0.009359 0.000000,
        -0.139341 -0.018620 0.000000,
        -0.137960 -0.031793 0.000000,
        -0.160946 -0.069070 0.000000,
        -0.170343 -0.041463 0.000000,
        -0.211003 -0.041463 0.000000,
        -0.050518 -0.601181 0.000000,
        -0.944882 -0.601181 0.000000,
        -0.944882 -0.354331 0.000000,
        -1.279528 -0.354331 0.000000,
        -1.279528 -0.266104 0.000000,
        -1.237865 -0.266104 0.000000,
        -0.196956 0.029355 0.000000,
        -0.944882 0.601181 0.000000,
        -0.050518 0.601181 0.000000,
        -0.040916 -0.058268 0.000000,
        -0.040916 -0.069070 0.000000,
        -0.038515 0.018552 0.000000,
        -0.001306 0.018552 0.000000,
        -0.001306 -0.013857 0.000000,
        0.011898 -0.069070 0.000000,
        0.011898 0.029355 0.000000,
        0.031103 -0.053167 0.000000,
        0.031103 -0.063969 0.000000,
        0.041594 -0.068277 0.000000,
        0.051540 -0.069671 0.000000,
        -0.001306 -0.024659 0.000000,
        -0.001306 -0.058268 0.000000,
        -0.036115 -0.024659 0.000000,
        -0.036115 -0.013857 0.000000,
        0.079854 -0.065730 0.000000,
        0.112724 -0.069070 0.000000,
        0.070314 -0.069013 0.000000,
        0.063973 -0.069671 0.000000,
        -0.038515 0.029355 0.000000,
        0.099127 0.003431 0.000000,
        0.093358 0.012633 0.000000,
        0.149933 0.029355 0.000000,
        0.063844 0.018664 0.000000,
        0.071211 0.016005 0.000000,
        0.032867 -0.054144 0.000000,
        0.078024 0.011448 0.000000,
        0.083967 0.004886 0.000000,
        0.091118 -0.020908 0.000000,
        0.090121 -0.031563 0.000000,
        0.087447 -0.040030 0.000000,
        0.065546 -0.058439 0.000000,
        0.056365 -0.059468 0.000000,
        0.072717 -0.055798 0.000000,
        0.078758 -0.051727 0.000000,
        0.083377 -0.046854 0.000000,
        0.043300 -0.058018 0.000000,
        0.088025 -0.002714 0.000000,
        0.090648 -0.013250 0.000000,
        0.084472 0.021179 0.000000,
        0.163137 0.029355 0.000000,
        0.452362 0.601181 0.000000,
        0.163137 -0.069070 0.000000,
        0.452362 -0.069671 0.000000,
        0.087771 -0.060674 0.000000,
        0.095164 -0.052891 0.000000,
        0.112724 -0.058268 0.000000,
        0.100407 -0.043532 0.000000,
        0.149933 -0.058268 0.000000,
        0.103370 -0.033114 0.000000,
        0.104321 -0.021715 0.000000,
        0.102906 -0.007722 0.000000,
        0.075123 0.026560 0.000000,
        0.064151 0.029748 0.000000,
        0.054265 0.030555 0.000000,
        0.042482 0.029742 0.000000,
        0.031103 0.026654 0.000000,
        0.031103 0.013450 0.000000,
        0.042189 0.018198 0.000000,
        0.054152 0.019752 0.000000,
        0.055493 -0.070225 0.000000,
        0.452362 -0.601181 0.000000,
        0.058185 -0.070271 0.000000,
      ]
    }
    coordIndex [
      0, 1, 2, -1,
      2, 1, 3, -1,
      4, 5, 6, -1,
      6, 5, 7, -1,
      6, 7, 8, -1,
      9, 10, 11, -1,
      11, 10, 12, -1,
      9, 11, 13, -1,
      13, 11, 7, -1,
      13, 7, 3, -1,
      14, 15, 2, -1,
      16, 17, 18, -1,
      12, 19, 11, -1,
      11, 19, 20, -1,
      11, 20, 21, -1,
      18, 22, 16, -1,
      16, 22, 23, -1,
      16, 23, 24, -1,
      21, 25, 11, -1,
      11, 25, 26, -1,
      11, 26, 16, -1,
      16, 26, 27, -1,
      16, 27, 17, -1,
      24, 0, 16, -1,
      16, 0, 2, -1,
      16, 2, 28, -1,
      28, 2, 15, -1,
      28, 15, 29, -1,
      29, 15, 30, -1,
      31, 32, 2, -1,
      2, 32, 33, -1,
      34, 35, 36, -1,
      11, 37, 7, -1,
      7, 37, 14, -1,
      7, 14, 8, -1,
      8, 14, 2, -1,
      8, 2, 36, -1,
      36, 2, 33, -1,
      36, 33, 34, -1,
      7, 38, 3, -1,
      3, 38, 39, -1,
      3, 39, 2, -1,
      2, 39, 40, -1,
      2, 40, 41, -1,
      42, 43, 44, -1,
      45, 46, 47, -1,
      47, 48, 45, -1,
      45, 48, 49, -1,
      45, 49, 50, -1,
      51, 52, 53, -1,
      53, 52, 40, -1,
      53, 40, 54, -1,
      55, 56, 57, -1,
      57, 56, 58, -1,
      44, 54, 42, -1,
      42, 54, 40, -1,
      42, 40, 59, -1,
      59, 40, 39, -1,
      59, 39, 46, -1,
      60, 61, 62, -1,
      63, 64, 65, -1,
      65, 64, 66, -1,
      65, 66, 67, -1,
      68, 69, 65, -1,
      65, 69, 70, -1,
      71, 72, 73, -1,
      73, 72, 74, -1,
      70, 75, 65, -1,
      65, 75, 74, -1,
      65, 74, 76, -1,
      76, 74, 72, -1,
      67, 77, 65, -1,
      65, 77, 78, -1,
      65, 78, 68, -1,
      61, 79, 62, -1,
      62, 79, 39, -1,
      62, 39, 80, -1,
      80, 39, 81, -1,
      80, 81, 82, -1,
      82, 81, 83, -1,
      55, 84, 56, -1,
      56, 84, 85, -1,
      56, 85, 86, -1,
      86, 85, 87, -1,
      86, 87, 88, -1,
      87, 89, 88, -1,
      88, 89, 90, -1,
      88, 90, 62, -1,
      62, 90, 91, -1,
      62, 91, 60, -1,
      79, 92, 39, -1,
      39, 92, 93, -1,
      39, 93, 94, -1,
      94, 95, 39, -1,
      39, 95, 96, -1,
      39, 96, 46, -1,
      46, 96, 97, -1,
      46, 97, 47, -1,
      47, 97, 98, -1,
      47, 98, 65, -1,
      65, 98, 99, -1,
      65, 99, 63, -1,
      41, 45, 2, -1,
      2, 45, 50, -1,
      2, 50, 31, -1,
      31, 50, 100, -1,
      31, 100, 101, -1,
      101, 100, 102, -1,
      101, 102, 83, -1,
      83, 102, 58, -1,
      83, 58, 82, -1,
      82, 58, 56, -1,
    ]
  }
}

Shape {
  appearance Appearance {
    material Material {
      diffuseColor 0.2235 0.2235 0.2235
      specularColor 0.1137 0.1137 0.1137
      ambientIntensity 0.2
      transparency 0.0000
      shininess 0.5
    }
  }
  geometry IndexedFaceSet {
    ccw TRUE
    solid FALSE
    coord DEF co Coordinate {
      point [
        -0.944882 0.354331 0.003937,
        -1.043307 0.354331 0.003937,
        -0.944882 0.601181 0.003937,
        -1.043307 0.767717 0.003937,
        0.452362 0.601181 0.003937,
        1.043307 0.767717 0.003937,
        1.043307 0.539370 0.003937,
        0.903274 0.539370 0.003937,
        0.452362 -0.601181 0.003937,
        0.903274 0.185039 0.003937,
        -1.043307 -0.767717 0.003937,
        -1.043307 -0.354331 0.003937,
        -0.944882 -0.354331 0.003937,
        -0.944882 -0.601181 0.003937,
        1.043307 -0.767717 0.003937,
        1.043307 -0.539370 0.003937,
        0.903274 -0.539370 0.003937,
        0.903274 -0.185039 0.003937,
        1.043307 -0.185039 0.003937,
        1.043307 0.185039 0.003937,
        1.062992 0.767717 0.023622,
        1.062992 0.767717 0.078740,
        1.062992 0.539370 0.023622,
        1.062992 0.539370 0.078740,
        1.062992 -0.185039 0.078740,
        1.062992 -0.185039 0.023622,
        1.062992 0.185039 0.078740,
        1.062992 0.185039 0.023622,
        1.048402 0.767717 0.004608,
        1.048402 0.539370 0.004608,
        1.053150 0.767717 0.006574,
        1.053150 0.539370 0.006574,
        1.057226 0.767717 0.009703,
        1.057226 0.539370 0.009703,
        1.060355 0.767717 0.013780,
        1.060355 0.539370 0.013780,
        1.062321 0.767717 0.018527,
        1.062321 0.539370 0.018527,
        1.048402 0.185039 0.004608,
        1.048402 -0.185039 0.004608,
        1.053150 0.185039 0.006574,
        1.053150 -0.185039 0.006574,
        1.057226 0.185039 0.009703,
        1.057226 -0.185039 0.009703,
        1.060355 0.185039 0.013780,
        1.060355 -0.185039 0.013780,
        1.062321 0.185039 0.018527,
        1.062321 -0.185039 0.018527,
        -1.062992 -0.767717 0.023622,
        -1.062992 -0.767717 0.078740,
        -1.062992 -0.354331 0.023622,
        -1.062992 -0.354331 0.078740,
        -1.062992 0.767717 0.078740,
        -1.062992 0.767717 0.023622,
        -1.062992 0.354331 0.078740,
        -1.062992 0.354331 0.023622,
        -1.048402 -0.767717 0.004608,
        -1.048402 -0.354331 0.004608,
        -1.053150 -0.767717 0.006574,
        -1.053150 -0.354331 0.006574,
        -1.057226 -0.767717 0.009703,
        -1.057226 -0.354331 0.009703,
        -1.060355 -0.767717 0.013780,
        -1.060355 -0.354331 0.013780,
        -1.062321 -0.767717 0.018527,
        -1.062321 -0.354331 0.018527,
        -1.048402 0.354331 0.004608,
        -1.048402 0.767717 0.004608,
        -1.053150 0.354331 0.006574,
        -1.053150 0.767717 0.006574,
        -1.057226 0.354331 0.009703,
        -1.057226 0.767717 0.009703,
        -1.060355 0.354331 0.013780,
        -1.060355 0.767717 0.013780,
        -1.062321 0.354331 0.018527,
        -1.062321 0.767717 0.018527,
        1.062992 -0.767717 0.078740,
        1.062992 -0.767717 0.023622,
        1.062992 -0.539370 0.078740,
        1.062992 -0.539370 0.023622,
        1.048402 -0.539370 0.004608,
        1.048402 -0.767717 0.004608,
        1.053150 -0.539370 0.006574,
        1.053150 -0.767717 0.006574,
        1.057226 -0.539370 0.009703,
        1.057226 -0.767717 0.009703,
        1.060355 -0.539370 0.013780,
        1.060355 -0.767717 0.013780,
        1.062321 -0.539370 0.018527,
        1.062321 -0.767717 0.018527,
        1.043307 0.787402 0.023622,
        -1.043307 0.787402 0.023622,
        1.043307 0.787402 0.078740,
        -1.043307 0.787402 0.078740,
        1.043307 -0.787402 0.078740,
        -1.043307 -0.787402 0.078740,
        1.043307 -0.787402 0.023622,
        -1.043307 -0.787402 0.023622,
        -1.001062 0.725472 0.397638,
        -1.001062 -0.725472 0.397638,
        1.001062 0.725472 0.397638,
        1.001062 -0.725472 0.397638,
        -1.043498 0.787401 0.078747,
        -1.001062 0.744965 0.380693,
        1.001062 0.744965 0.380693,
        1.043498 0.787401 0.078747,
        -1.062991 -0.767907 0.078747,
        -1.020556 -0.725472 0.380693,
        -1.062991 0.767907 0.078747,
        -1.020556 0.725472 0.380693,
        1.020556 -0.725472 0.380693,
        1.062991 -0.767907 0.078747,
        1.020556 0.725472 0.380693,
        1.062991 0.767907 0.078747,
        1.043498 -0.787401 0.078747,
        1.001062 -0.744965 0.380693,
        -1.001062 -0.744965 0.380693,
        -1.043498 -0.787401 0.078747,
        1.043307 -0.772811 0.004608,
        -1.043307 -0.772811 0.004608,
        1.043307 -0.777559 0.006574,
        -1.043307 -0.777559 0.006574,
        1.043307 -0.781636 0.009703,
        -1.043307 -0.781636 0.009703,
        1.043307 -0.784764 0.013780,
        -1.043307 -0.784764 0.013780,
        1.043307 -0.786731 0.018527,
        -1.043307 -0.786731 0.018527,
        1.047677 -0.786826 0.023622,
        1.051796 -0.785325 0.023622,
        1.048402 -0.786731 0.023622,
        1.048228 -0.786083 0.018527,
        1.055480 -0.782976 0.023622,
        1.053150 -0.784764 0.023622,
        1.052814 -0.784183 0.018527,
        1.058567 -0.779889 0.023622,
        1.057226 -0.781636 0.023622,
        1.056752 -0.781162 0.018527,
        1.060916 -0.776205 0.023622,
        1.060355 -0.777559 0.023622,
        1.059774 -0.777224 0.018527,
        1.062417 -0.772086 0.023622,
        1.062321 -0.772811 0.023622,
        1.061674 -0.772638 0.018527,
        1.059774 -0.772129 0.013780,
        1.058071 -0.776241 0.013780,
        1.056752 -0.771319 0.009703,
        1.055362 -0.774676 0.009703,
        1.052814 -0.770264 0.006574,
        1.051831 -0.772638 0.006574,
        1.048228 -0.769035 0.004608,
        1.047719 -0.770264 0.004608,
        1.055362 -0.779771 0.013780,
        1.053150 -0.777559 0.009703,
        1.050267 -0.774676 0.006574,
        1.046910 -0.771319 0.004608,
        1.051831 -0.782480 0.013780,
        1.047719 -0.784183 0.013780,
        1.050267 -0.779771 0.009703,
        1.046910 -0.781162 0.009703,
        1.048228 -0.776241 0.006574,
        1.045855 -0.777224 0.006574,
        1.045855 -0.772129 0.004608,
        1.044626 -0.772638 0.004608,
        -1.048402 -0.786731 0.023622,
        -1.053150 -0.784764 0.023622,
        -1.048228 -0.786083 0.018527,
        -1.052814 -0.784183 0.018527,
        -1.047719 -0.784183 0.013780,
        -1.051831 -0.782480 0.013780,
        -1.046910 -0.781162 0.009703,
        -1.050267 -0.779771 0.009703,
        -1.045855 -0.777224 0.006574,
        -1.048228 -0.776241 0.006574,
        -1.044626 -0.772638 0.004608,
        -1.045855 -0.772129 0.004608,
        -1.057226 -0.781636 0.023622,
        -1.056752 -0.781162 0.018527,
        -1.055362 -0.779771 0.013780,
        -1.053150 -0.777559 0.009703,
        -1.050267 -0.774676 0.006574,
        -1.046910 -0.771319 0.004608,
        -1.060355 -0.777559 0.023622,
        -1.062321 -0.772811 0.023622,
        -1.059774 -0.777224 0.018527,
        -1.061674 -0.772638 0.018527,
        -1.058071 -0.776241 0.013780,
        -1.059774 -0.772129 0.013780,
        -1.055362 -0.774676 0.009703,
        -1.056752 -0.771319 0.009703,
        -1.051831 -0.772638 0.006574,
        -1.052814 -0.770264 0.006574,
        -1.047719 -0.770264 0.004608,
        -1.048228 -0.769035 0.004608,
        1.062407 -0.772084 0.078997,
        1.062288 -0.772934 0.079048,
        1.060915 -0.776204 0.079180,
        1.060323 -0.777614 0.079237,
        1.058570 -0.779891 0.079273,
        1.057226 -0.781636 0.079301,
        1.055482 -0.782979 0.079273,
        1.053205 -0.784732 0.079237,
        1.051794 -0.785324 0.079180,
        1.048524 -0.786698 0.079048,
        1.047674 -0.786817 0.078997,
        -1.062306 -0.772809 0.079040,
        -1.062288 -0.772934 0.079048,
        -1.060347 -0.777556 0.079234,
        -1.060323 -0.777614 0.079237,
        -1.057226 -0.781636 0.079301,
        -1.053205 -0.784732 0.079237,
        -1.053146 -0.784757 0.079234,
        -1.048524 -0.786698 0.079048,
        -1.048400 -0.786715 0.079040,
        -1.043307 0.772811 0.004608,
        1.043307 0.772811 0.004608,
        -1.043307 0.777559 0.006574,
        1.043307 0.777559 0.006574,
        -1.043307 0.781636 0.009703,
        1.043307 0.781636 0.009703,
        -1.043307 0.784764 0.013780,
        1.043307 0.784764 0.013780,
        -1.043307 0.786731 0.018527,
        1.043307 0.786731 0.018527,
        1.048402 0.786731 0.023622,
        1.053150 0.784764 0.023622,
        1.048228 0.786083 0.018527,
        1.052814 0.784183 0.018527,
        1.047719 0.784183 0.013780,
        1.051831 0.782480 0.013780,
        1.046910 0.781162 0.009703,
        1.050267 0.779771 0.009703,
        1.045855 0.777224 0.006574,
        1.048228 0.776241 0.006574,
        1.044626 0.772638 0.004608,
        1.045855 0.772129 0.004608,
        1.057226 0.781636 0.023622,
        1.056752 0.781162 0.018527,
        1.055362 0.779771 0.013780,
        1.053150 0.777559 0.009703,
        1.050267 0.774676 0.006574,
        1.046910 0.771319 0.004608,
        1.060355 0.777559 0.023622,
        1.062321 0.772811 0.023622,
        1.059774 0.777224 0.018527,
        1.061674 0.772638 0.018527,
        1.058071 0.776241 0.013780,
        1.059774 0.772129 0.013780,
        1.055362 0.774676 0.009703,
        1.056752 0.771319 0.009703,
        1.051831 0.772638 0.006574,
        1.052814 0.770264 0.006574,
        1.047719 0.770264 0.004608,
        1.048228 0.769035 0.004608,
        1.019912 -0.729780 0.381207,
        1.019811 -0.730457 0.381288,
        1.018374 -0.733815 0.381558,
        1.014715 -0.739124 0.381790,
        1.016036 -0.737416 0.381736,
        1.017820 -0.735111 0.381663,
        1.010702 -0.742229 0.381663,
        1.013006 -0.740446 0.381736,
        1.005370 -0.744322 0.381207,
        1.006048 -0.744220 0.381288,
        1.009406 -0.742783 0.381558,
        -1.001062 -0.743817 0.385089,
        1.001062 -0.743817 0.385089,
        -1.001062 -0.743751 0.385213,
        1.001062 -0.743751 0.385213,
        -1.001062 -0.741596 0.389245,
        1.001062 -0.741596 0.389245,
        -1.001062 -0.741521 0.389328,
        1.001062 -0.741521 0.389328,
        -1.001062 -0.738450 0.392754,
        1.001062 -0.738450 0.392754,
        -1.001062 -0.738380 0.392801,
        1.001062 -0.738380 0.392801,
        -1.001062 -0.734560 0.395414,
        1.001062 -0.734560 0.395414,
        -1.001062 -0.734508 0.395434,
        1.001062 -0.734508 0.395434,
        -1.001062 -0.730150 0.397074,
        1.001062 -0.730150 0.397074,
        -1.001062 -0.730122 0.397077,
        1.001062 -0.730122 0.397077,
        -1.005370 -0.744322 0.381207,
        -1.006048 -0.744220 0.381288,
        -1.009406 -0.742783 0.381558,
        -1.010702 -0.742229 0.381663,
        -1.013006 -0.740446 0.381736,
        -1.019912 -0.729780 0.381207,
        -1.019811 -0.730457 0.381288,
        -1.018374 -0.733815 0.381558,
        -1.017820 -0.735111 0.381663,
        -1.016036 -0.737416 0.381736,
        -1.014715 -0.739124 0.381790,
        -1.062321 0.772811 0.023622,
        -1.060355 0.777559 0.023622,
        -1.061674 0.772638 0.018527,
        -1.059774 0.777224 0.018527,
        -1.059774 0.772129 0.013780,
        -1.058071 0.776241 0.013780,
        -1.056752 0.771319 0.009703,
        -1.055362 0.774676 0.009703,
        -1.052814 0.770264 0.006574,
        -1.051831 0.772638 0.006574,
        -1.048228 0.769035 0.004608,
        -1.047719 0.770264 0.004608,
        -1.057226 0.781636 0.023622,
        -1.056752 0.781162 0.018527,
        -1.055362 0.779771 0.013780,
        -1.053150 0.777559 0.009703,
        -1.050267 0.774676 0.006574,
        -1.046910 0.771319 0.004608,
        -1.053150 0.784764 0.023622,
        -1.048402 0.786731 0.023622,
        -1.052814 0.784183 0.018527,
        -1.048228 0.786083 0.018527,
        -1.051831 0.782480 0.013780,
        -1.047719 0.784183 0.013780,
        -1.050267 0.779771 0.009703,
        -1.046910 0.781162 0.009703,
        -1.048228 0.776241 0.006574,
        -1.045855 0.777224 0.006574,
        -1.045855 0.772129 0.004608,
        -1.044626 0.772638 0.004608,
        1.062306 0.772809 0.079040,
        1.062288 0.772934 0.079048,
        1.060347 0.777556 0.079234,
        1.060323 0.777614 0.079237,
        1.057226 0.781636 0.079301,
        1.053205 0.784732 0.079237,
        1.053146 0.784757 0.079234,
        1.048524 0.786698 0.079048,
        1.048400 0.786715 0.079040,
        1.019342 -0.725472 0.385213,
        1.017186 -0.725472 0.389245,
        1.016782 -0.729059 0.389245,
        1.017111 -0.725472 0.389328,
        1.014040 -0.725472 0.392754,
        1.013715 -0.728359 0.392754,
        1.009923 -0.727494 0.395414,
        1.005623 -0.726513 0.397074,
        1.005277 -0.727502 0.397074,
        1.003092 -0.729687 0.397074,
        1.003979 -0.729129 0.397074,
        1.002103 -0.730033 0.397074,
        1.005713 -0.725472 0.397077,
        1.018948 -0.729554 0.385089,
        1.017591 -0.733431 0.385089,
        1.015405 -0.736910 0.385089,
        1.012500 -0.739815 0.385089,
        1.009022 -0.742000 0.385089,
        1.005144 -0.743357 0.385089,
        1.013971 -0.725472 0.392801,
        1.010151 -0.725472 0.395414,
        1.010098 -0.725472 0.395434,
        1.005741 -0.725472 0.397074,
        1.008168 -0.731138 0.395414,
        1.006729 -0.732577 0.395414,
        1.005006 -0.733660 0.395414,
        1.003085 -0.734332 0.395414,
        1.009251 -0.729415 0.395414,
        1.004720 -0.728389 0.397074,
        1.012755 -0.731102 0.392754,
        1.011209 -0.733563 0.392754,
        1.009154 -0.735618 0.392754,
        1.006693 -0.737165 0.392754,
        1.003950 -0.738124 0.392754,
        1.015589 -0.732467 0.389245,
        1.013668 -0.735525 0.389245,
        1.011115 -0.738078 0.389245,
        1.008058 -0.739999 0.389245,
        1.004650 -0.741191 0.389245,
        1.019408 -0.725472 0.385089,
        -1.004650 -0.741191 0.389245,
        -1.003950 -0.738124 0.392754,
        -1.003085 -0.734332 0.395414,
        -1.002103 -0.730033 0.397074,
        -1.003092 -0.729687 0.397074,
        -1.005277 -0.727502 0.397074,
        -1.004720 -0.728389 0.397074,
        -1.005623 -0.726513 0.397074,
        -1.005144 -0.743357 0.385089,
        -1.009022 -0.742000 0.385089,
        -1.012500 -0.739815 0.385089,
        -1.015405 -0.736910 0.385089,
        -1.017591 -0.733431 0.385089,
        -1.018948 -0.729554 0.385089,
        -1.019408 -0.725472 0.385089,
        -1.005713 -0.725472 0.397077,
        -1.006729 -0.732577 0.395414,
        -1.008168 -0.731138 0.395414,
        -1.009251 -0.729415 0.395414,
        -1.009923 -0.727494 0.395414,
        -1.005006 -0.733660 0.395414,
        -1.003979 -0.729129 0.397074,
        -1.005741 -0.725472 0.397074,
        -1.010098 -0.725472 0.395434,
        -1.010151 -0.725472 0.395414,
        -1.013971 -0.725472 0.392801,
        -1.006693 -0.737165 0.392754,
        -1.009154 -0.735618 0.392754,
        -1.011209 -0.733563 0.392754,
        -1.012755 -0.731102 0.392754,
        -1.013715 -0.728359 0.392754,
        -1.008058 -0.739999 0.389245,
        -1.011115 -0.738078 0.389245,
        -1.013668 -0.735525 0.389245,
        -1.015589 -0.732467 0.389245,
        -1.016782 -0.729059 0.389245,
        -1.014040 -0.725472 0.392754,
        -1.017111 -0.725472 0.389328,
        -1.017186 -0.725472 0.389245,
        -1.019342 -0.725472 0.385213,
        -1.048400 0.786715 0.079040,
        -1.048524 0.786698 0.079048,
        -1.053146 0.784757 0.079234,
        -1.053205 0.784732 0.079237,
        -1.057226 0.781636 0.079301,
        -1.060323 0.777614 0.079237,
        -1.060347 0.777556 0.079234,
        -1.062288 0.772934 0.079048,
        -1.062306 0.772809 0.079040,
        1.005370 0.744322 0.381207,
        1.006048 0.744220 0.381288,
        1.009406 0.742783 0.381558,
        1.010702 0.742229 0.381663,
        1.013006 0.740446 0.381736,
        1.019912 0.729780 0.381207,
        1.019811 0.730457 0.381288,
        1.018374 0.733815 0.381558,
        1.017820 0.735111 0.381663,
        1.016036 0.737416 0.381736,
        1.014715 0.739124 0.381790,
        1.019408 0.725472 0.385089,
        1.019342 0.725472 0.385213,
        1.017186 0.725472 0.389245,
        1.017111 0.725472 0.389328,
        1.014040 0.725472 0.392754,
        1.013971 0.725472 0.392801,
        1.010151 0.725472 0.395414,
        1.010098 0.725472 0.395434,
        1.005741 0.725472 0.397074,
        1.005713 0.725472 0.397077,
        -1.019408 0.725472 0.385089,
        -1.019342 0.725472 0.385213,
        -1.017186 0.725472 0.389245,
        -1.017111 0.725472 0.389328,
        -1.014040 0.725472 0.392754,
        -1.013971 0.725472 0.392801,
        -1.010151 0.725472 0.395414,
        -1.010098 0.725472 0.395434,
        -1.005741 0.725472 0.397074,
        -1.005713 0.725472 0.397077,
        -1.019811 0.730457 0.381288,
        -1.019796 0.730491 0.381291,
        -1.017820 0.735111 0.381663,
        -1.017801 0.735135 0.381663,
        -1.014715 0.739124 0.381790,
        -1.010726 0.742210 0.381663,
        -1.010702 0.742229 0.381663,
        -1.006081 0.744206 0.381291,
        -1.006048 0.744220 0.381288,
        1.001062 0.743751 0.385213,
        1.001062 0.741596 0.389245,
        1.004650 0.741191 0.389245,
        1.001062 0.741521 0.389328,
        1.001062 0.738450 0.392754,
        1.003950 0.738124 0.392754,
        1.003085 0.734332 0.395414,
        1.002103 0.730033 0.397074,
        1.003092 0.729687 0.397074,
        1.005277 0.727502 0.397074,
        1.004720 0.728389 0.397074,
        1.005623 0.726513 0.397074,
        1.001062 0.730122 0.397077,
        1.005144 0.743357 0.385089,
        1.009022 0.742000 0.385089,
        1.012500 0.739815 0.385089,
        1.015405 0.736910 0.385089,
        1.017591 0.733431 0.385089,
        1.018948 0.729554 0.385089,
        1.001062 0.738380 0.392801,
        1.001062 0.734560 0.395414,
        1.001062 0.734508 0.395434,
        1.001062 0.730150 0.397074,
        1.006729 0.732577 0.395414,
        1.008168 0.731138 0.395414,
        1.009251 0.729415 0.395414,
        1.009923 0.727494 0.395414,
        1.005006 0.733660 0.395414,
        1.003979 0.729129 0.397074,
        1.006693 0.737165 0.392754,
        1.009154 0.735618 0.392754,
        1.011209 0.733563 0.392754,
        1.012755 0.731102 0.392754,
        1.013715 0.728359 0.392754,
        1.008058 0.739999 0.389245,
        1.011115 0.738078 0.389245,
        1.013668 0.735525 0.389245,
        1.015589 0.732467 0.389245,
        1.016782 0.729059 0.389245,
        1.001062 0.743817 0.385089,
        -1.013598 0.728830 0.392754,
        -1.009841 0.727824 0.395414,
        -1.005581 0.726682 0.397074,
        -1.005114 0.727811 0.397074,
        -1.003401 0.729523 0.397074,
        -1.004370 0.728780 0.397074,
        -1.002273 0.729991 0.397074,
        -1.018783 0.730220 0.385089,
        -1.016950 0.734644 0.385089,
        -1.014035 0.738444 0.385089,
        -1.010235 0.741359 0.385089,
        -1.005810 0.743192 0.385089,
        -1.001062 0.743817 0.385089,
        -1.001062 0.730122 0.397077,
        -1.008933 0.730016 0.395414,
        -1.007489 0.731898 0.395414,
        -1.005606 0.733343 0.395414,
        -1.003414 0.734250 0.395414,
        -1.001062 0.730150 0.397074,
        -1.001062 0.734508 0.395434,
        -1.001062 0.734560 0.395414,
        -1.001062 0.738380 0.392801,
        -1.012302 0.731961 0.392754,
        -1.010239 0.734648 0.392754,
        -1.007551 0.736711 0.392754,
        -1.004421 0.738007 0.392754,
        -1.016637 0.729644 0.389245,
        -1.015026 0.733533 0.389245,
        -1.012463 0.736873 0.389245,
        -1.009124 0.739435 0.389245,
        -1.005235 0.741046 0.389245,
        -1.001062 0.738450 0.392754,
        -1.001062 0.741521 0.389328,
        -1.001062 0.741596 0.389245,
        -1.001062 0.743751 0.385213,
      ]
    }
    coordIndex [
      0, 1, 2, -1,
      2, 1, 3, -1,
      2, 3, 4, -1,
      5, 6, 7, -1,
      3, 5, 4, -1,
      4, 5, 7, -1,
      4, 7, 8, -1,
      8, 7, 9, -1,
      10, 11, 12, -1,
      12, 13, 10, -1,
      10, 13, 8, -1,
      10, 8, 14, -1,
      15, 14, 16, -1,
      16, 14, 8, -1,
      16, 8, 17, -1,
      17, 8, 9, -1,
      17, 9, 18, -1,
      18, 9, 19, -1,
      20, 21, 22, -1,
      22, 21, 23, -1,
      24, 25, 26, -1,
      26, 25, 27, -1,
      6, 5, 28, -1,
      6, 28, 29, -1,
      29, 28, 30, -1,
      29, 30, 31, -1,
      31, 30, 32, -1,
      31, 32, 33, -1,
      33, 32, 34, -1,
      33, 34, 35, -1,
      35, 34, 36, -1,
      35, 36, 37, -1,
      37, 36, 20, -1,
      37, 20, 22, -1,
      18, 19, 38, -1,
      18, 38, 39, -1,
      39, 38, 40, -1,
      39, 40, 41, -1,
      41, 40, 42, -1,
      41, 42, 43, -1,
      43, 42, 44, -1,
      43, 44, 45, -1,
      45, 44, 46, -1,
      45, 46, 47, -1,
      47, 46, 27, -1,
      47, 27, 25, -1,
      48, 49, 50, -1,
      50, 49, 51, -1,
      52, 53, 54, -1,
      54, 53, 55, -1,
      11, 10, 56, -1,
      11, 56, 57, -1,
      57, 56, 58, -1,
      57, 58, 59, -1,
      59, 58, 60, -1,
      59, 60, 61, -1,
      61, 60, 62, -1,
      61, 62, 63, -1,
      63, 62, 64, -1,
      63, 64, 65, -1,
      65, 64, 48, -1,
      65, 48, 50, -1,
      3, 1, 66, -1,
      3, 66, 67, -1,
      67, 66, 68, -1,
      67, 68, 69, -1,
      69, 68, 70, -1,
      69, 70, 71, -1,
      71, 70, 72, -1,
      71, 72, 73, -1,
      73, 72, 74, -1,
      73, 74, 75, -1,
      75, 74, 55, -1,
      75, 55, 53, -1,
      76, 77, 78, -1,
      78, 77, 79, -1,
      14, 15, 80, -1,
      14, 80, 81, -1,
      81, 80, 82, -1,
      81, 82, 83, -1,
      83, 82, 84, -1,
      83, 84, 85, -1,
      85, 84, 86, -1,
      85, 86, 87, -1,
      87, 86, 88, -1,
      87, 88, 89, -1,
      89, 88, 79, -1,
      89, 79, 77, -1,
      90, 91, 92, -1,
      92, 91, 93, -1,
      94, 95, 96, -1,
      96, 95, 97, -1,
      98, 99, 100, -1,
      100, 99, 101, -1,
      102, 103, 93, -1,
      93, 103, 104, -1,
      93, 104, 92, -1,
      92, 104, 105, -1,
      49, 106, 107, -1,
      108, 52, 109, -1,
      109, 52, 54, -1,
      109, 54, 107, -1,
      107, 54, 51, -1,
      107, 51, 49, -1,
      110, 111, 76, -1,
      26, 112, 24, -1,
      24, 112, 110, -1,
      24, 110, 78, -1,
      78, 110, 76, -1,
      26, 23, 112, -1,
      112, 23, 21, -1,
      112, 21, 113, -1,
      114, 115, 94, -1,
      94, 115, 116, -1,
      94, 116, 95, -1,
      95, 116, 117, -1,
      10, 14, 118, -1,
      10, 118, 119, -1,
      119, 118, 120, -1,
      119, 120, 121, -1,
      121, 120, 122, -1,
      121, 122, 123, -1,
      123, 122, 124, -1,
      123, 124, 125, -1,
      125, 124, 126, -1,
      125, 126, 127, -1,
      127, 126, 96, -1,
      127, 96, 97, -1,
      128, 96, 126, -1,
      129, 130, 131, -1,
      132, 133, 134, -1,
      135, 136, 137, -1,
      138, 139, 140, -1,
      141, 142, 143, -1,
      142, 138, 143, -1,
      143, 138, 140, -1,
      143, 140, 144, -1,
      144, 140, 145, -1,
      144, 145, 146, -1,
      146, 145, 147, -1,
      146, 147, 148, -1,
      148, 147, 149, -1,
      148, 149, 150, -1,
      150, 149, 151, -1,
      150, 151, 14, -1,
      139, 135, 140, -1,
      140, 135, 137, -1,
      140, 137, 145, -1,
      145, 137, 152, -1,
      145, 152, 147, -1,
      147, 152, 153, -1,
      147, 153, 149, -1,
      149, 153, 154, -1,
      149, 154, 151, -1,
      151, 154, 155, -1,
      151, 155, 14, -1,
      77, 141, 89, -1,
      89, 141, 143, -1,
      89, 143, 87, -1,
      87, 143, 144, -1,
      87, 144, 85, -1,
      85, 144, 146, -1,
      85, 146, 83, -1,
      83, 146, 148, -1,
      83, 148, 81, -1,
      81, 148, 150, -1,
      81, 150, 14, -1,
      133, 129, 134, -1,
      134, 129, 131, -1,
      134, 131, 156, -1,
      156, 131, 157, -1,
      156, 157, 158, -1,
      158, 157, 159, -1,
      158, 159, 160, -1,
      160, 159, 161, -1,
      160, 161, 162, -1,
      162, 161, 163, -1,
      162, 163, 14, -1,
      130, 128, 131, -1,
      131, 128, 126, -1,
      131, 126, 157, -1,
      157, 126, 124, -1,
      157, 124, 159, -1,
      159, 124, 122, -1,
      159, 122, 161, -1,
      161, 122, 120, -1,
      161, 120, 163, -1,
      163, 120, 118, -1,
      163, 118, 14, -1,
      136, 132, 137, -1,
      137, 132, 134, -1,
      137, 134, 152, -1,
      152, 134, 156, -1,
      152, 156, 153, -1,
      153, 156, 158, -1,
      153, 158, 154, -1,
      154, 158, 160, -1,
      154, 160, 155, -1,
      155, 160, 162, -1,
      155, 162, 14, -1,
      164, 165, 166, -1,
      166, 165, 167, -1,
      166, 167, 168, -1,
      168, 167, 169, -1,
      168, 169, 170, -1,
      170, 169, 171, -1,
      170, 171, 172, -1,
      172, 171, 173, -1,
      172, 173, 174, -1,
      174, 173, 175, -1,
      174, 175, 10, -1,
      165, 176, 167, -1,
      167, 176, 177, -1,
      167, 177, 169, -1,
      169, 177, 178, -1,
      169, 178, 171, -1,
      171, 178, 179, -1,
      171, 179, 173, -1,
      173, 179, 180, -1,
      173, 180, 175, -1,
      175, 180, 181, -1,
      175, 181, 10, -1,
      97, 164, 127, -1,
      127, 164, 166, -1,
      127, 166, 125, -1,
      125, 166, 168, -1,
      125, 168, 123, -1,
      123, 168, 170, -1,
      123, 170, 121, -1,
      121, 170, 172, -1,
      121, 172, 119, -1,
      119, 172, 174, -1,
      119, 174, 10, -1,
      182, 183, 184, -1,
      184, 183, 185, -1,
      184, 185, 186, -1,
      186, 185, 187, -1,
      186, 187, 188, -1,
      188, 187, 189, -1,
      188, 189, 190, -1,
      190, 189, 191, -1,
      190, 191, 192, -1,
      192, 191, 193, -1,
      192, 193, 10, -1,
      183, 48, 185, -1,
      185, 48, 64, -1,
      185, 64, 187, -1,
      187, 64, 62, -1,
      187, 62, 189, -1,
      189, 62, 60, -1,
      189, 60, 191, -1,
      191, 60, 58, -1,
      191, 58, 193, -1,
      193, 58, 56, -1,
      193, 56, 10, -1,
      176, 182, 177, -1,
      177, 182, 184, -1,
      177, 184, 178, -1,
      178, 184, 186, -1,
      178, 186, 179, -1,
      179, 186, 188, -1,
      179, 188, 180, -1,
      180, 188, 190, -1,
      180, 190, 181, -1,
      181, 190, 192, -1,
      181, 192, 10, -1,
      94, 96, 114, -1,
      114, 96, 128, -1,
      141, 77, 76, -1,
      76, 111, 141, -1,
      141, 111, 194, -1,
      141, 194, 142, -1,
      142, 194, 195, -1,
      142, 195, 138, -1,
      138, 195, 196, -1,
      138, 196, 139, -1,
      139, 196, 197, -1,
      139, 197, 135, -1,
      135, 197, 198, -1,
      135, 198, 136, -1,
      136, 198, 199, -1,
      136, 199, 132, -1,
      132, 199, 200, -1,
      132, 200, 133, -1,
      133, 200, 201, -1,
      133, 201, 129, -1,
      129, 201, 202, -1,
      129, 202, 130, -1,
      130, 202, 203, -1,
      130, 203, 128, -1,
      128, 203, 204, -1,
      128, 204, 114, -1,
      49, 48, 106, -1,
      106, 48, 183, -1,
      106, 183, 205, -1,
      205, 183, 206, -1,
      206, 183, 182, -1,
      206, 182, 207, -1,
      207, 182, 208, -1,
      208, 182, 176, -1,
      208, 176, 209, -1,
      209, 176, 210, -1,
      210, 176, 165, -1,
      210, 165, 211, -1,
      211, 165, 212, -1,
      212, 165, 164, -1,
      212, 164, 213, -1,
      97, 95, 164, -1,
      164, 95, 117, -1,
      164, 117, 213, -1,
      5, 3, 214, -1,
      5, 214, 215, -1,
      215, 214, 216, -1,
      215, 216, 217, -1,
      217, 216, 218, -1,
      217, 218, 219, -1,
      219, 218, 220, -1,
      219, 220, 221, -1,
      221, 220, 222, -1,
      221, 222, 223, -1,
      223, 222, 91, -1,
      223, 91, 90, -1,
      224, 225, 226, -1,
      226, 225, 227, -1,
      226, 227, 228, -1,
      228, 227, 229, -1,
      228, 229, 230, -1,
      230, 229, 231, -1,
      230, 231, 232, -1,
      232, 231, 233, -1,
      232, 233, 234, -1,
      234, 233, 235, -1,
      234, 235, 5, -1,
      225, 236, 227, -1,
      227, 236, 237, -1,
      227, 237, 229, -1,
      229, 237, 238, -1,
      229, 238, 231, -1,
      231, 238, 239, -1,
      231, 239, 233, -1,
      233, 239, 240, -1,
      233, 240, 235, -1,
      235, 240, 241, -1,
      235, 241, 5, -1,
      90, 224, 223, -1,
      223, 224, 226, -1,
      223, 226, 221, -1,
      221, 226, 228, -1,
      221, 228, 219, -1,
      219, 228, 230, -1,
      219, 230, 217, -1,
      217, 230, 232, -1,
      217, 232, 215, -1,
      215, 232, 234, -1,
      215, 234, 5, -1,
      242, 243, 244, -1,
      244, 243, 245, -1,
      244, 245, 246, -1,
      246, 245, 247, -1,
      246, 247, 248, -1,
      248, 247, 249, -1,
      248, 249, 250, -1,
      250, 249, 251, -1,
      250, 251, 252, -1,
      252, 251, 253, -1,
      252, 253, 5, -1,
      243, 20, 245, -1,
      245, 20, 36, -1,
      245, 36, 247, -1,
      247, 36, 34, -1,
      247, 34, 249, -1,
      249, 34, 32, -1,
      249, 32, 251, -1,
      251, 32, 30, -1,
      251, 30, 253, -1,
      253, 30, 28, -1,
      253, 28, 5, -1,
      236, 242, 237, -1,
      237, 242, 244, -1,
      237, 244, 238, -1,
      238, 244, 246, -1,
      238, 246, 239, -1,
      239, 246, 248, -1,
      239, 248, 240, -1,
      240, 248, 250, -1,
      240, 250, 241, -1,
      241, 250, 252, -1,
      241, 252, 5, -1,
      111, 110, 194, -1,
      194, 110, 254, -1,
      194, 254, 195, -1,
      195, 254, 255, -1,
      195, 255, 196, -1,
      196, 255, 256, -1,
      196, 256, 197, -1,
      257, 198, 258, -1,
      258, 198, 197, -1,
      258, 197, 259, -1,
      259, 197, 256, -1,
      203, 202, 260, -1,
      260, 202, 201, -1,
      260, 201, 261, -1,
      261, 201, 200, -1,
      261, 200, 257, -1,
      257, 200, 199, -1,
      257, 199, 198, -1,
      115, 114, 262, -1,
      262, 114, 204, -1,
      262, 204, 263, -1,
      263, 204, 203, -1,
      263, 203, 264, -1,
      264, 203, 260, -1,
      116, 115, 265, -1,
      265, 115, 266, -1,
      265, 266, 267, -1,
      267, 266, 268, -1,
      267, 268, 269, -1,
      269, 268, 270, -1,
      269, 270, 271, -1,
      271, 270, 272, -1,
      271, 272, 273, -1,
      273, 272, 274, -1,
      273, 274, 275, -1,
      275, 274, 276, -1,
      275, 276, 277, -1,
      277, 276, 278, -1,
      277, 278, 279, -1,
      279, 278, 280, -1,
      279, 280, 281, -1,
      281, 280, 282, -1,
      281, 282, 283, -1,
      282, 284, 283, -1,
      283, 284, 101, -1,
      283, 101, 99, -1,
      117, 116, 213, -1,
      213, 116, 285, -1,
      213, 285, 212, -1,
      212, 285, 286, -1,
      212, 286, 211, -1,
      211, 286, 287, -1,
      211, 287, 210, -1,
      287, 288, 210, -1,
      210, 288, 289, -1,
      210, 289, 209, -1,
      107, 106, 290, -1,
      290, 106, 205, -1,
      290, 205, 291, -1,
      291, 205, 206, -1,
      291, 206, 292, -1,
      292, 206, 207, -1,
      292, 207, 293, -1,
      293, 207, 208, -1,
      293, 208, 294, -1,
      294, 208, 209, -1,
      294, 209, 295, -1,
      295, 209, 289, -1,
      296, 297, 298, -1,
      298, 297, 299, -1,
      298, 299, 300, -1,
      300, 299, 301, -1,
      300, 301, 302, -1,
      302, 301, 303, -1,
      302, 303, 304, -1,
      304, 303, 305, -1,
      304, 305, 306, -1,
      306, 305, 307, -1,
      306, 307, 3, -1,
      297, 308, 299, -1,
      299, 308, 309, -1,
      299, 309, 301, -1,
      301, 309, 310, -1,
      301, 310, 303, -1,
      303, 310, 311, -1,
      303, 311, 305, -1,
      305, 311, 312, -1,
      305, 312, 307, -1,
      307, 312, 313, -1,
      307, 313, 3, -1,
      53, 296, 75, -1,
      75, 296, 298, -1,
      75, 298, 73, -1,
      73, 298, 300, -1,
      73, 300, 71, -1,
      71, 300, 302, -1,
      71, 302, 69, -1,
      69, 302, 304, -1,
      69, 304, 67, -1,
      67, 304, 306, -1,
      67, 306, 3, -1,
      314, 315, 316, -1,
      316, 315, 317, -1,
      316, 317, 318, -1,
      318, 317, 319, -1,
      318, 319, 320, -1,
      320, 319, 321, -1,
      320, 321, 322, -1,
      322, 321, 323, -1,
      322, 323, 324, -1,
      324, 323, 325, -1,
      324, 325, 3, -1,
      315, 91, 317, -1,
      317, 91, 222, -1,
      317, 222, 319, -1,
      319, 222, 220, -1,
      319, 220, 321, -1,
      321, 220, 218, -1,
      321, 218, 323, -1,
      323, 218, 216, -1,
      323, 216, 325, -1,
      325, 216, 214, -1,
      325, 214, 3, -1,
      308, 314, 309, -1,
      309, 314, 316, -1,
      309, 316, 310, -1,
      310, 316, 318, -1,
      310, 318, 311, -1,
      311, 318, 320, -1,
      311, 320, 312, -1,
      312, 320, 322, -1,
      312, 322, 313, -1,
      313, 322, 324, -1,
      313, 324, 3, -1,
      21, 20, 113, -1,
      113, 20, 243, -1,
      113, 243, 326, -1,
      326, 243, 327, -1,
      327, 243, 242, -1,
      327, 242, 328, -1,
      328, 242, 329, -1,
      329, 242, 236, -1,
      329, 236, 330, -1,
      330, 236, 331, -1,
      331, 236, 225, -1,
      331, 225, 332, -1,
      332, 225, 333, -1,
      333, 225, 224, -1,
      333, 224, 334, -1,
      90, 92, 224, -1,
      224, 92, 105, -1,
      224, 105, 334, -1,
      335, 336, 337, -1,
      338, 339, 340, -1,
      341, 342, 343, -1,
      101, 344, 345, -1,
      346, 344, 101, -1,
      343, 342, 101, -1,
      347, 101, 342, -1,
      254, 348, 255, -1,
      255, 348, 349, -1,
      255, 349, 256, -1,
      256, 349, 259, -1,
      259, 349, 350, -1,
      259, 350, 258, -1,
      258, 350, 257, -1,
      257, 350, 351, -1,
      257, 351, 261, -1,
      261, 351, 260, -1,
      260, 351, 352, -1,
      260, 352, 264, -1,
      264, 352, 263, -1,
      263, 352, 353, -1,
      263, 353, 262, -1,
      262, 353, 266, -1,
      262, 266, 115, -1,
      284, 346, 101, -1,
      354, 355, 341, -1,
      341, 355, 356, -1,
      341, 356, 342, -1,
      342, 356, 357, -1,
      342, 357, 347, -1,
      358, 345, 359, -1,
      359, 345, 344, -1,
      359, 344, 360, -1,
      360, 344, 346, -1,
      360, 346, 361, -1,
      339, 354, 340, -1,
      340, 354, 341, -1,
      340, 341, 362, -1,
      362, 341, 343, -1,
      362, 343, 363, -1,
      363, 343, 101, -1,
      284, 282, 346, -1,
      346, 282, 280, -1,
      346, 280, 361, -1,
      361, 280, 278, -1,
      361, 278, 276, -1,
      364, 358, 365, -1,
      365, 358, 359, -1,
      365, 359, 366, -1,
      366, 359, 360, -1,
      366, 360, 367, -1,
      367, 360, 361, -1,
      367, 361, 368, -1,
      368, 361, 276, -1,
      337, 364, 369, -1,
      369, 364, 365, -1,
      369, 365, 370, -1,
      370, 365, 366, -1,
      370, 366, 371, -1,
      371, 366, 367, -1,
      371, 367, 372, -1,
      372, 367, 368, -1,
      372, 368, 373, -1,
      336, 338, 337, -1,
      337, 338, 340, -1,
      337, 340, 364, -1,
      364, 340, 362, -1,
      364, 362, 358, -1,
      358, 362, 363, -1,
      358, 363, 345, -1,
      345, 363, 101, -1,
      254, 110, 348, -1,
      348, 110, 374, -1,
      348, 374, 335, -1,
      276, 274, 368, -1,
      368, 274, 272, -1,
      368, 272, 373, -1,
      373, 272, 270, -1,
      373, 270, 268, -1,
      335, 337, 348, -1,
      348, 337, 369, -1,
      348, 369, 349, -1,
      349, 369, 370, -1,
      349, 370, 350, -1,
      350, 370, 371, -1,
      350, 371, 351, -1,
      351, 371, 372, -1,
      351, 372, 352, -1,
      352, 372, 373, -1,
      352, 373, 353, -1,
      353, 373, 268, -1,
      353, 268, 266, -1,
      267, 269, 375, -1,
      271, 273, 376, -1,
      377, 378, 379, -1,
      99, 380, 381, -1,
      382, 380, 99, -1,
      379, 378, 99, -1,
      283, 99, 378, -1,
      285, 383, 286, -1,
      286, 383, 384, -1,
      286, 384, 287, -1,
      287, 384, 288, -1,
      288, 384, 385, -1,
      288, 385, 289, -1,
      289, 385, 295, -1,
      295, 385, 386, -1,
      295, 386, 294, -1,
      294, 386, 293, -1,
      293, 386, 387, -1,
      293, 387, 292, -1,
      292, 387, 291, -1,
      291, 387, 388, -1,
      291, 388, 290, -1,
      290, 388, 389, -1,
      290, 389, 107, -1,
      390, 382, 99, -1,
      275, 277, 377, -1,
      377, 277, 279, -1,
      377, 279, 378, -1,
      378, 279, 281, -1,
      378, 281, 283, -1,
      391, 381, 392, -1,
      392, 381, 380, -1,
      392, 380, 393, -1,
      393, 380, 382, -1,
      393, 382, 394, -1,
      273, 275, 376, -1,
      376, 275, 377, -1,
      376, 377, 395, -1,
      395, 377, 379, -1,
      395, 379, 396, -1,
      396, 379, 99, -1,
      390, 397, 382, -1,
      382, 397, 398, -1,
      382, 398, 394, -1,
      394, 398, 399, -1,
      394, 399, 400, -1,
      401, 391, 402, -1,
      402, 391, 392, -1,
      402, 392, 403, -1,
      403, 392, 393, -1,
      403, 393, 404, -1,
      404, 393, 394, -1,
      404, 394, 405, -1,
      405, 394, 400, -1,
      375, 401, 406, -1,
      406, 401, 402, -1,
      406, 402, 407, -1,
      407, 402, 403, -1,
      407, 403, 408, -1,
      408, 403, 404, -1,
      408, 404, 409, -1,
      409, 404, 405, -1,
      409, 405, 410, -1,
      269, 271, 375, -1,
      375, 271, 376, -1,
      375, 376, 401, -1,
      401, 376, 395, -1,
      401, 395, 391, -1,
      391, 395, 396, -1,
      391, 396, 381, -1,
      381, 396, 99, -1,
      285, 116, 383, -1,
      383, 116, 265, -1,
      383, 265, 267, -1,
      400, 411, 405, -1,
      405, 411, 412, -1,
      405, 412, 410, -1,
      410, 412, 413, -1,
      410, 413, 414, -1,
      267, 375, 383, -1,
      383, 375, 406, -1,
      383, 406, 384, -1,
      384, 406, 407, -1,
      384, 407, 385, -1,
      385, 407, 408, -1,
      385, 408, 386, -1,
      386, 408, 409, -1,
      386, 409, 387, -1,
      387, 409, 410, -1,
      387, 410, 388, -1,
      388, 410, 414, -1,
      388, 414, 389, -1,
      93, 91, 102, -1,
      102, 91, 315, -1,
      102, 315, 415, -1,
      415, 315, 416, -1,
      416, 315, 314, -1,
      416, 314, 417, -1,
      417, 314, 418, -1,
      418, 314, 308, -1,
      418, 308, 419, -1,
      419, 308, 420, -1,
      420, 308, 297, -1,
      420, 297, 421, -1,
      421, 297, 422, -1,
      422, 297, 296, -1,
      422, 296, 423, -1,
      53, 52, 296, -1,
      296, 52, 108, -1,
      296, 108, 423, -1,
      105, 104, 334, -1,
      334, 104, 424, -1,
      334, 424, 333, -1,
      333, 424, 425, -1,
      333, 425, 332, -1,
      332, 425, 426, -1,
      332, 426, 331, -1,
      426, 427, 331, -1,
      331, 427, 428, -1,
      331, 428, 330, -1,
      112, 113, 429, -1,
      429, 113, 326, -1,
      429, 326, 430, -1,
      430, 326, 327, -1,
      430, 327, 431, -1,
      431, 327, 328, -1,
      431, 328, 432, -1,
      432, 328, 329, -1,
      432, 329, 433, -1,
      433, 329, 330, -1,
      433, 330, 434, -1,
      434, 330, 428, -1,
      110, 112, 374, -1,
      374, 112, 435, -1,
      374, 435, 335, -1,
      335, 435, 436, -1,
      335, 436, 336, -1,
      336, 436, 437, -1,
      336, 437, 338, -1,
      338, 437, 438, -1,
      338, 438, 339, -1,
      339, 438, 439, -1,
      339, 439, 354, -1,
      354, 439, 440, -1,
      354, 440, 355, -1,
      355, 440, 441, -1,
      355, 441, 356, -1,
      356, 441, 442, -1,
      356, 442, 357, -1,
      357, 442, 443, -1,
      357, 443, 347, -1,
      443, 444, 347, -1,
      347, 444, 100, -1,
      347, 100, 101, -1,
      109, 107, 445, -1,
      445, 107, 389, -1,
      445, 389, 446, -1,
      446, 389, 414, -1,
      446, 414, 447, -1,
      447, 414, 413, -1,
      447, 413, 448, -1,
      448, 413, 412, -1,
      448, 412, 449, -1,
      449, 412, 411, -1,
      449, 411, 450, -1,
      450, 411, 400, -1,
      450, 400, 451, -1,
      451, 400, 399, -1,
      451, 399, 452, -1,
      452, 399, 398, -1,
      452, 398, 453, -1,
      453, 398, 397, -1,
      453, 397, 454, -1,
      397, 390, 454, -1,
      454, 390, 99, -1,
      454, 99, 98, -1,
      420, 421, 455, -1,
      455, 421, 422, -1,
      455, 422, 109, -1,
      109, 422, 423, -1,
      109, 423, 108, -1,
      455, 456, 420, -1,
      420, 456, 457, -1,
      420, 457, 419, -1,
      419, 457, 458, -1,
      458, 459, 419, -1,
      419, 459, 460, -1,
      419, 460, 418, -1,
      418, 460, 461, -1,
      418, 461, 417, -1,
      417, 461, 462, -1,
      417, 462, 416, -1,
      416, 462, 463, -1,
      416, 463, 415, -1,
      415, 463, 103, -1,
      415, 103, 102, -1,
      464, 465, 466, -1,
      467, 468, 469, -1,
      470, 471, 472, -1,
      100, 473, 474, -1,
      475, 473, 100, -1,
      472, 471, 100, -1,
      476, 100, 471, -1,
      424, 477, 425, -1,
      425, 477, 478, -1,
      425, 478, 426, -1,
      426, 478, 427, -1,
      427, 478, 479, -1,
      427, 479, 428, -1,
      428, 479, 434, -1,
      434, 479, 480, -1,
      434, 480, 433, -1,
      433, 480, 432, -1,
      432, 480, 481, -1,
      432, 481, 431, -1,
      431, 481, 430, -1,
      430, 481, 482, -1,
      430, 482, 429, -1,
      429, 482, 435, -1,
      429, 435, 112, -1,
      444, 475, 100, -1,
      483, 484, 470, -1,
      470, 484, 485, -1,
      470, 485, 471, -1,
      471, 485, 486, -1,
      471, 486, 476, -1,
      487, 474, 488, -1,
      488, 474, 473, -1,
      488, 473, 489, -1,
      489, 473, 475, -1,
      489, 475, 490, -1,
      468, 483, 469, -1,
      469, 483, 470, -1,
      469, 470, 491, -1,
      491, 470, 472, -1,
      491, 472, 492, -1,
      492, 472, 100, -1,
      444, 443, 475, -1,
      475, 443, 442, -1,
      475, 442, 490, -1,
      490, 442, 441, -1,
      490, 441, 440, -1,
      493, 487, 494, -1,
      494, 487, 488, -1,
      494, 488, 495, -1,
      495, 488, 489, -1,
      495, 489, 496, -1,
      496, 489, 490, -1,
      496, 490, 497, -1,
      497, 490, 440, -1,
      466, 493, 498, -1,
      498, 493, 494, -1,
      498, 494, 499, -1,
      499, 494, 495, -1,
      499, 495, 500, -1,
      500, 495, 496, -1,
      500, 496, 501, -1,
      501, 496, 497, -1,
      501, 497, 502, -1,
      465, 467, 466, -1,
      466, 467, 469, -1,
      466, 469, 493, -1,
      493, 469, 491, -1,
      493, 491, 487, -1,
      487, 491, 492, -1,
      487, 492, 474, -1,
      474, 492, 100, -1,
      424, 104, 477, -1,
      477, 104, 503, -1,
      477, 503, 464, -1,
      440, 439, 497, -1,
      497, 439, 438, -1,
      497, 438, 502, -1,
      502, 438, 437, -1,
      502, 437, 436, -1,
      464, 466, 477, -1,
      477, 466, 498, -1,
      477, 498, 478, -1,
      478, 498, 499, -1,
      478, 499, 479, -1,
      479, 499, 500, -1,
      479, 500, 480, -1,
      480, 500, 501, -1,
      480, 501, 481, -1,
      481, 501, 502, -1,
      481, 502, 482, -1,
      482, 502, 436, -1,
      482, 436, 435, -1,
      448, 449, 504, -1,
      505, 506, 507, -1,
      98, 508, 509, -1,
      510, 508, 98, -1,
      507, 506, 98, -1,
      454, 98, 506, -1,
      511, 456, 455, -1,
      456, 511, 457, -1,
      457, 511, 512, -1,
      457, 512, 458, -1,
      458, 512, 513, -1,
      458, 513, 459, -1,
      459, 513, 514, -1,
      459, 514, 460, -1,
      460, 514, 461, -1,
      461, 514, 515, -1,
      461, 515, 462, -1,
      462, 515, 463, -1,
      463, 515, 516, -1,
      463, 516, 103, -1,
      517, 510, 98, -1,
      450, 451, 505, -1,
      505, 451, 452, -1,
      505, 452, 506, -1,
      506, 452, 453, -1,
      506, 453, 454, -1,
      518, 509, 519, -1,
      519, 509, 508, -1,
      519, 508, 520, -1,
      520, 508, 510, -1,
      520, 510, 521, -1,
      517, 522, 510, -1,
      510, 522, 523, -1,
      510, 523, 521, -1,
      521, 523, 524, -1,
      521, 524, 525, -1,
      504, 518, 526, -1,
      526, 518, 519, -1,
      526, 519, 527, -1,
      527, 519, 520, -1,
      527, 520, 528, -1,
      528, 520, 521, -1,
      528, 521, 529, -1,
      529, 521, 525, -1,
      446, 447, 530, -1,
      530, 447, 448, -1,
      448, 504, 530, -1,
      530, 504, 526, -1,
      530, 526, 531, -1,
      531, 526, 527, -1,
      531, 527, 532, -1,
      532, 527, 528, -1,
      532, 528, 533, -1,
      533, 528, 529, -1,
      533, 529, 534, -1,
      449, 450, 504, -1,
      504, 450, 505, -1,
      504, 505, 518, -1,
      518, 505, 507, -1,
      518, 507, 509, -1,
      509, 507, 98, -1,
      446, 511, 445, -1,
      445, 511, 455, -1,
      445, 455, 109, -1,
      525, 535, 529, -1,
      529, 535, 536, -1,
      529, 536, 534, -1,
      534, 536, 537, -1,
      534, 537, 538, -1,
      446, 530, 511, -1,
      511, 530, 531, -1,
      511, 531, 512, -1,
      512, 531, 532, -1,
      512, 532, 513, -1,
      513, 532, 533, -1,
      513, 533, 514, -1,
      514, 533, 534, -1,
      514, 534, 515, -1,
      515, 534, 538, -1,
      515, 538, 516, -1,
      104, 103, 503, -1,
      503, 103, 516, -1,
      503, 516, 464, -1,
      464, 516, 538, -1,
      464, 538, 465, -1,
      465, 538, 537, -1,
      465, 537, 467, -1,
      467, 537, 536, -1,
      467, 536, 468, -1,
      468, 536, 535, -1,
      468, 535, 483, -1,
      483, 535, 525, -1,
      483, 525, 484, -1,
      484, 525, 524, -1,
      484, 524, 485, -1,
      485, 524, 523, -1,
      485, 523, 486, -1,
      486, 523, 522, -1,
      486, 522, 476, -1,
      522, 517, 476, -1,
      476, 517, 98, -1,
      476, 98, 100, -1,
    ]
  }
}

Shape {
  appearance Appearance {
    material Material {
      diffuseColor 0.8510 0.8510 0.8510
      specularColor 0.4235 0.4235 0.4235
      ambientIntensity 0.2
      transparency 0.0000
      shininess 0.5
    }
  }
  geometry IndexedFaceSet {
    ccw TRUE
    solid FALSE
    coord DEF co Coordinate {
      point [
        -1.279528 0.266104 0.000000,
        -1.279528 0.354331 0.000000,
        -1.237865 0.266104 0.000000,
        -0.944882 0.354331 0.000000,
        -1.237865 -0.069671 0.000000,
        -0.050518 -0.601181 0.000000,
        -0.944882 -0.601181 0.000000,
        -0.944882 -0.354331 0.000000,
        -1.279528 -0.354331 0.000000,
        -1.279528 -0.266104 0.000000,
        -1.237865 -0.266104 0.000000,
        -0.944882 0.601181 0.000000,
        -0.050518 0.601181 0.000000,
        0.452362 0.601181 0.000000,
        0.452362 -0.069671 0.000000,
        0.452362 -0.601181 0.000000,
        -0.944882 0.354331 0.003937,
        -1.043307 0.354331 0.003937,
        -0.944882 0.601181 0.003937,
        0.452362 0.601181 0.003937,
        1.043307 0.539370 0.003937,
        0.903274 0.539370 0.003937,
        0.452362 -0.601181 0.003937,
        0.903274 0.185039 0.003937,
        -1.043307 -0.354331 0.003937,
        -0.944882 -0.354331 0.003937,
        -0.944882 -0.601181 0.003937,
        1.043307 -0.539370 0.003937,
        0.903274 -0.539370 0.003937,
        0.903274 -0.185039 0.003937,
        1.043307 -0.185039 0.003937,
        1.043307 0.185039 0.003937,
        1.062992 0.539370 0.023622,
        1.062992 0.539370 0.078740,
        1.062992 -0.185039 0.078740,
        1.062992 -0.185039 0.023622,
        1.062992 0.185039 0.078740,
        1.062992 0.185039 0.023622,
        1.048402 0.539370 0.004608,
        1.053150 0.539370 0.006574,
        1.057226 0.539370 0.009703,
        1.060355 0.539370 0.013780,
        1.062321 0.539370 0.018527,
        1.048402 0.185039 0.004608,
        1.048402 -0.185039 0.004608,
        1.053150 0.185039 0.006574,
        1.053150 -0.185039 0.006574,
        1.057226 0.185039 0.009703,
        1.057226 -0.185039 0.009703,
        1.060355 0.185039 0.013780,
        1.060355 -0.185039 0.013780,
        1.062321 0.185039 0.018527,
        1.062321 -0.185039 0.018527,
        -1.062992 -0.354331 0.023622,
        -1.062992 -0.354331 0.078740,
        -1.062992 0.354331 0.078740,
        -1.062992 0.354331 0.023622,
        -1.048402 -0.354331 0.004608,
        -1.053150 -0.354331 0.006574,
        -1.057226 -0.354331 0.009703,
        -1.060355 -0.354331 0.013780,
        -1.062321 -0.354331 0.018527,
        -1.048402 0.354331 0.004608,
        -1.053150 0.354331 0.006574,
        -1.057226 0.354331 0.009703,
        -1.060355 0.354331 0.013780,
        -1.062321 0.354331 0.018527,
        1.062992 -0.539370 0.078740,
        1.062992 -0.539370 0.023622,
        1.048402 -0.539370 0.004608,
        1.053150 -0.539370 0.006574,
        1.057226 -0.539370 0.009703,
        1.060355 -0.539370 0.013780,
        1.062321 -0.539370 0.018527,
        0.903274 -0.185039 0.000000,
        0.903274 -0.539370 0.000000,
        1.279528 -0.185039 0.000000,
        1.279528 -0.185039 0.078740,
        1.279528 -0.539370 0.078740,
        1.279528 -0.539370 0.000000,
        -1.279528 -0.354331 0.078740,
        -1.279528 0.354331 0.078740,
        -1.279528 0.266104 0.078740,
        -1.237865 0.266104 0.078740,
        -1.237865 -0.266104 0.078740,
        -1.279528 -0.266104 0.078740,
        0.903274 0.539370 0.000000,
        0.903274 0.185039 0.000000,
        1.279528 0.539370 0.000000,
        1.279528 0.539370 0.078740,
        1.279528 0.185039 0.078740,
        1.279528 0.185039 0.000000,
      ]
    }
    coordIndex [
      29, 74, 28, -1,
      28, 74, 75, -1,
      48, 50, 76, -1,
      48, 76, 46, -1,
      74, 29, 30, -1,
      74, 30, 76, -1,
      76, 30, 44, -1,
      76, 44, 46, -1,
      34, 77, 35, -1,
      35, 77, 76, -1,
      35, 76, 52, -1,
      52, 76, 50, -1,
      78, 67, 79, -1,
      79, 67, 68, -1,
      79, 68, 73, -1,
      73, 72, 79, -1,
      79, 72, 71, -1,
      79, 71, 70, -1,
      70, 69, 79, -1,
      79, 69, 27, -1,
      79, 27, 75, -1,
      75, 27, 28, -1,
      77, 78, 76, -1,
      76, 78, 79, -1,
      67, 78, 34, -1,
      34, 78, 77, -1,
      75, 74, 79, -1,
      79, 74, 76, -1,
      25, 7, 26, -1,
      26, 7, 6, -1,
      15, 22, 5, -1,
      5, 22, 26, -1,
      5, 26, 6, -1,
      13, 19, 14, -1,
      14, 19, 22, -1,
      14, 22, 15, -1,
      11, 18, 12, -1,
      12, 18, 19, -1,
      12, 19, 13, -1,
      18, 11, 16, -1,
      16, 11, 3, -1,
      59, 60, 8, -1,
      59, 8, 58, -1,
      7, 25, 24, -1,
      7, 24, 8, -1,
      8, 24, 57, -1,
      8, 57, 58, -1,
      54, 80, 53, -1,
      53, 80, 8, -1,
      53, 8, 61, -1,
      61, 8, 60, -1,
      81, 55, 1, -1,
      1, 55, 56, -1,
      1, 56, 66, -1,
      66, 65, 1, -1,
      1, 65, 64, -1,
      1, 64, 63, -1,
      63, 62, 1, -1,
      1, 62, 17, -1,
      1, 17, 3, -1,
      3, 17, 16, -1,
      82, 81, 0, -1,
      0, 81, 1, -1,
      83, 82, 2, -1,
      2, 82, 0, -1,
      83, 2, 84, -1,
      84, 2, 4, -1,
      84, 4, 10, -1,
      85, 84, 9, -1,
      9, 84, 10, -1,
      80, 85, 8, -1,
      8, 85, 9, -1,
      85, 80, 84, -1,
      84, 80, 54, -1,
      84, 54, 83, -1,
      83, 54, 55, -1,
      83, 55, 82, -1,
      82, 55, 81, -1,
      21, 86, 23, -1,
      23, 86, 87, -1,
      38, 39, 88, -1,
      88, 39, 40, -1,
      88, 40, 41, -1,
      33, 89, 32, -1,
      32, 89, 88, -1,
      32, 88, 42, -1,
      42, 88, 41, -1,
      38, 88, 20, -1,
      20, 88, 86, -1,
      20, 86, 21, -1,
      90, 36, 91, -1,
      91, 36, 37, -1,
      91, 37, 51, -1,
      51, 49, 91, -1,
      91, 49, 47, -1,
      91, 47, 45, -1,
      45, 43, 91, -1,
      91, 43, 31, -1,
      91, 31, 87, -1,
      87, 31, 23, -1,
      89, 90, 88, -1,
      88, 90, 91, -1,
      36, 90, 33, -1,
      33, 90, 89, -1,
      87, 86, 91, -1,
      91, 86, 88, -1,
    ]
  }
}

Shape {
  appearance Appearance {
    material Material {
      diffuseColor 0.2235 0.2235 0.2235
      specularColor 0.1137 0.1137 0.1137
      ambientIntensity 0.2
      transparency 0.0000
      shininess 0.5
    }
  }
  geometry IndexedFaceSet {
    ccw TRUE
    solid FALSE
    coord DEF co Coordinate {
      point [
        -0.086884 -0.069070 0.000000,
        -0.060121 -0.069070 0.000000,
        -0.060121 0.029355 0.000000,
        -0.102116 0.027835 0.000000,
        -0.113632 0.023791 0.000000,
        -0.183752 0.029355 0.000000,
        -0.124345 0.016611 0.000000,
        -0.087896 0.029355 0.000000,
        -0.235366 -0.069070 0.000000,
        -0.220962 -0.069070 0.000000,
        -0.146543 -0.069070 0.000000,
        -0.134426 -0.042094 0.000000,
        -0.128782 -0.050898 0.000000,
        -0.124448 0.016521 0.000000,
        -0.131408 0.008803 0.000000,
        -0.135982 0.000339 0.000000,
        -0.120680 -0.058655 0.000000,
        -0.110404 -0.064627 0.000000,
        -0.099062 -0.068007 0.000000,
        -0.138626 -0.009359 0.000000,
        -0.139341 -0.018620 0.000000,
        -0.137960 -0.031793 0.000000,
        -0.160946 -0.069070 0.000000,
        -0.170343 -0.041463 0.000000,
        -0.211003 -0.041463 0.000000,
        -0.196956 0.029355 0.000000,
        -0.040916 -0.058268 0.000000,
        -0.040916 -0.069070 0.000000,
        -0.038515 0.018552 0.000000,
        -0.001306 0.018552 0.000000,
        -0.001306 -0.013857 0.000000,
        0.011898 -0.069070 0.000000,
        0.011898 0.029355 0.000000,
        0.031103 -0.053167 0.000000,
        0.031103 -0.063969 0.000000,
        0.041594 -0.068277 0.000000,
        0.051540 -0.069671 0.000000,
        -0.001306 -0.024659 0.000000,
        -0.001306 -0.058268 0.000000,
        -0.036115 -0.024659 0.000000,
        -0.036115 -0.013857 0.000000,
        0.079854 -0.065730 0.000000,
        0.112724 -0.069070 0.000000,
        0.070314 -0.069013 0.000000,
        0.063973 -0.069671 0.000000,
        -0.038515 0.029355 0.000000,
        0.099127 0.003431 0.000000,
        0.093358 0.012633 0.000000,
        0.149933 0.029355 0.000000,
        0.063844 0.018664 0.000000,
        0.071211 0.016005 0.000000,
        0.032867 -0.054144 0.000000,
        0.078024 0.011448 0.000000,
        0.083967 0.004886 0.000000,
        0.091118 -0.020908 0.000000,
        0.090121 -0.031563 0.000000,
        0.087447 -0.040030 0.000000,
        0.065546 -0.058439 0.000000,
        0.056365 -0.059468 0.000000,
        0.072717 -0.055798 0.000000,
        0.078758 -0.051727 0.000000,
        0.083377 -0.046854 0.000000,
        0.043300 -0.058018 0.000000,
        0.088025 -0.002714 0.000000,
        0.090648 -0.013250 0.000000,
        0.084472 0.021179 0.000000,
        0.163137 0.029355 0.000000,
        0.163137 -0.069070 0.000000,
        0.087771 -0.060674 0.000000,
        0.095164 -0.052891 0.000000,
        0.112724 -0.058268 0.000000,
        0.100407 -0.043532 0.000000,
        0.149933 -0.058268 0.000000,
        0.103370 -0.033114 0.000000,
        0.104321 -0.021715 0.000000,
        0.102906 -0.007722 0.000000,
        0.075123 0.026560 0.000000,
        0.064151 0.029748 0.000000,
        0.054265 0.030555 0.000000,
        0.042482 0.029742 0.000000,
        0.031103 0.026654 0.000000,
        0.031103 0.013450 0.000000,
        0.042189 0.018198 0.000000,
        0.054152 0.019752 0.000000,
        0.055493 -0.070225 0.000000,
        0.058185 -0.070271 0.000000,
        -0.173662 -0.030661 0.003937,
        -0.170343 -0.041463 0.003937,
        -0.206577 -0.030661 0.003937,
        -0.211003 -0.041463 0.003937,
        -0.188347 0.010450 0.003937,
        -0.183752 0.029355 0.003937,
        -0.146543 -0.069070 0.003937,
        -0.160946 -0.069070 0.003937,
        -0.189294 0.013863 0.003937,
        -0.189923 0.017352 0.003937,
        -0.196956 0.029355 0.003937,
        -0.190242 0.017352 0.003937,
        -0.190884 0.013874 0.003937,
        -0.191761 0.010450 0.003937,
        -0.235366 -0.069070 0.003937,
        -0.220962 -0.069070 0.003937,
        -0.206577 -0.030661 0.000000,
        -0.173662 -0.030661 0.000000,
        -0.191761 0.010450 0.000000,
        -0.190884 0.013874 0.000000,
        -0.190242 0.017352 0.000000,
        -0.189923 0.017352 0.000000,
        -0.189294 0.013863 0.000000,
        -0.188347 0.010450 0.000000,
        -0.135982 0.000339 0.003937,
        -0.131408 0.008803 0.003937,
        -0.119585 0.004750 0.003937,
        -0.124448 0.016521 0.003937,
        -0.114804 0.009826 0.003937,
        -0.124345 0.016611 0.003937,
        -0.107614 0.014470 0.003937,
        -0.113632 0.023791 0.003937,
        -0.099490 0.017313 0.003937,
        -0.102116 0.027835 0.003937,
        -0.087840 0.018552 0.003937,
        -0.087896 0.029355 0.003937,
        -0.073324 0.018552 0.003937,
        -0.060121 0.029355 0.003937,
        -0.073324 -0.058268 0.003937,
        -0.060121 -0.069070 0.003937,
        -0.087296 -0.058268 0.003937,
        -0.086884 -0.069070 0.003937,
        -0.097680 -0.057302 0.003937,
        -0.099062 -0.068007 0.003937,
        -0.105963 -0.054716 0.003937,
        -0.110404 -0.064627 0.003937,
        -0.112676 -0.050730 0.003937,
        -0.120680 -0.058655 0.003937,
        -0.118196 -0.045278 0.003937,
        -0.128782 -0.050898 0.003937,
        -0.122347 -0.038491 0.003937,
        -0.134426 -0.042094 0.003937,
        -0.125234 -0.029239 0.003937,
        -0.137960 -0.031793 0.003937,
        -0.126138 -0.018902 0.003937,
        -0.139341 -0.018620 0.003937,
        -0.125302 -0.009106 0.003937,
        -0.138626 -0.009359 0.003937,
        -0.123004 -0.001321 0.003937,
        -0.073324 0.018552 0.000000,
        -0.087840 0.018552 0.000000,
        -0.073324 -0.058268 0.000000,
        -0.087296 -0.058268 0.000000,
        -0.097680 -0.057302 -0.000000,
        -0.105963 -0.054716 0.000000,
        -0.112676 -0.050730 0.000000,
        -0.118196 -0.045278 -0.000000,
        -0.122347 -0.038491 -0.000000,
        -0.125234 -0.029239 0.000000,
        -0.126138 -0.018902 -0.000000,
        -0.125302 -0.009106 0.000000,
        -0.123004 -0.001321 0.000000,
        -0.119585 0.004750 0.000000,
        -0.114804 0.009826 -0.000000,
        -0.107614 0.014470 0.000000,
        -0.099490 0.017313 0.000000,
        -0.040916 -0.069070 0.003937,
        -0.040916 -0.058268 0.003937,
        -0.001306 -0.058268 0.003937,
        -0.001306 -0.024659 0.003937,
        -0.036115 -0.024659 0.003937,
        -0.036115 -0.013857 0.003937,
        -0.001306 -0.013857 0.003937,
        -0.001306 0.018552 0.003937,
        -0.038515 0.018552 0.003937,
        -0.038515 0.029355 0.003937,
        0.011898 0.029355 0.003937,
        0.011898 -0.069070 0.003937,
        0.031103 -0.063969 0.003937,
        0.031103 -0.053167 0.003937,
        0.056365 -0.059468 0.003937,
        0.043300 -0.058018 0.003937,
        0.032867 -0.054144 0.003937,
        0.091118 -0.020908 0.003937,
        0.090121 -0.031563 0.003937,
        0.087447 -0.040030 0.003937,
        0.083377 -0.046854 0.003937,
        0.078758 -0.051727 0.003937,
        0.072717 -0.055798 0.003937,
        0.065546 -0.058439 0.003937,
        0.054152 0.019752 0.003937,
        0.063844 0.018664 0.003937,
        0.071211 0.016005 0.003937,
        0.078024 0.011448 0.003937,
        0.083967 0.004886 0.003937,
        0.088025 -0.002714 0.003937,
        0.090648 -0.013250 0.003937,
        0.031103 0.013450 0.003937,
        0.042189 0.018198 0.003937,
        0.031103 0.026654 0.003937,
        0.054265 0.030555 0.003937,
        0.042482 0.029742 0.003937,
        0.104321 -0.021715 0.003937,
        0.102906 -0.007722 0.003937,
        0.099127 0.003431 0.003937,
        0.093358 0.012633 0.003937,
        0.084472 0.021179 0.003937,
        0.075123 0.026560 0.003937,
        0.064151 0.029748 0.003937,
        0.058185 -0.070271 0.003937,
        0.070314 -0.069013 0.003937,
        0.079854 -0.065730 0.003937,
        0.087771 -0.060674 0.003937,
        0.095164 -0.052891 0.003937,
        0.100407 -0.043532 0.003937,
        0.103370 -0.033114 0.003937,
        0.041594 -0.068277 0.003937,
        0.055493 -0.070225 0.003937,
        0.112724 -0.069070 0.003937,
        0.112724 -0.058268 0.003937,
        0.149933 -0.058268 0.003937,
        0.149933 0.029355 0.003937,
        0.163137 0.029355 0.003937,
        0.163137 -0.069070 0.003937,
      ]
    }
    coordIndex [
      86, 87, 88, -1,
      88, 87, 89, -1,
      90, 91, 86, -1,
      86, 91, 92, -1,
      86, 92, 87, -1,
      87, 92, 93, -1,
      90, 94, 91, -1,
      91, 94, 95, -1,
      91, 95, 96, -1,
      96, 95, 97, -1,
      96, 97, 98, -1,
      98, 99, 96, -1,
      96, 99, 88, -1,
      96, 88, 100, -1,
      100, 88, 89, -1,
      100, 89, 101, -1,
      8, 25, 100, -1,
      100, 25, 96, -1,
      25, 5, 96, -1,
      96, 5, 91, -1,
      5, 10, 91, -1,
      91, 10, 92, -1,
      10, 22, 92, -1,
      92, 22, 93, -1,
      22, 23, 93, -1,
      93, 23, 87, -1,
      23, 24, 87, -1,
      87, 24, 89, -1,
      24, 9, 89, -1,
      89, 9, 101, -1,
      9, 8, 101, -1,
      101, 8, 100, -1,
      102, 103, 88, -1,
      88, 103, 86, -1,
      104, 102, 99, -1,
      99, 102, 88, -1,
      104, 99, 98, -1,
      104, 98, 105, -1,
      105, 98, 97, -1,
      105, 97, 106, -1,
      107, 106, 95, -1,
      95, 106, 97, -1,
      107, 95, 94, -1,
      107, 94, 108, -1,
      108, 94, 90, -1,
      108, 90, 109, -1,
      103, 109, 86, -1,
      86, 109, 90, -1,
      110, 111, 112, -1,
      112, 111, 113, -1,
      112, 113, 114, -1,
      114, 113, 115, -1,
      114, 115, 116, -1,
      116, 115, 117, -1,
      116, 117, 118, -1,
      118, 117, 119, -1,
      118, 119, 120, -1,
      120, 119, 121, -1,
      120, 121, 122, -1,
      122, 121, 123, -1,
      122, 123, 124, -1,
      124, 123, 125, -1,
      124, 125, 126, -1,
      126, 125, 127, -1,
      126, 127, 128, -1,
      128, 127, 129, -1,
      128, 129, 130, -1,
      130, 129, 131, -1,
      130, 131, 132, -1,
      132, 131, 133, -1,
      132, 133, 134, -1,
      134, 133, 135, -1,
      134, 135, 136, -1,
      136, 135, 137, -1,
      136, 137, 138, -1,
      138, 137, 139, -1,
      138, 139, 140, -1,
      140, 139, 141, -1,
      140, 141, 142, -1,
      142, 141, 143, -1,
      142, 143, 144, -1,
      144, 143, 110, -1,
      144, 110, 112, -1,
      1, 0, 125, -1,
      125, 0, 127, -1,
      20, 141, 139, -1,
      20, 139, 21, -1,
      21, 139, 137, -1,
      21, 137, 11, -1,
      11, 137, 135, -1,
      11, 135, 12, -1,
      12, 135, 133, -1,
      12, 133, 16, -1,
      16, 133, 131, -1,
      16, 131, 17, -1,
      17, 131, 129, -1,
      17, 129, 18, -1,
      18, 129, 127, -1,
      18, 127, 0, -1,
      7, 121, 119, -1,
      7, 119, 3, -1,
      3, 119, 117, -1,
      3, 117, 4, -1,
      4, 117, 115, -1,
      4, 115, 6, -1,
      6, 115, 113, -1,
      6, 113, 13, -1,
      13, 113, 111, -1,
      13, 111, 14, -1,
      14, 111, 110, -1,
      14, 110, 15, -1,
      15, 110, 143, -1,
      15, 143, 19, -1,
      19, 143, 141, -1,
      19, 141, 20, -1,
      7, 2, 121, -1,
      121, 2, 123, -1,
      2, 1, 123, -1,
      123, 1, 125, -1,
      145, 146, 122, -1,
      122, 146, 120, -1,
      147, 145, 124, -1,
      124, 145, 122, -1,
      148, 147, 126, -1,
      126, 147, 124, -1,
      148, 126, 128, -1,
      148, 128, 149, -1,
      149, 128, 130, -1,
      149, 130, 150, -1,
      150, 130, 132, -1,
      150, 132, 151, -1,
      151, 132, 134, -1,
      151, 134, 152, -1,
      152, 134, 136, -1,
      152, 136, 153, -1,
      153, 136, 138, -1,
      153, 138, 154, -1,
      154, 138, 140, -1,
      154, 140, 155, -1,
      155, 140, 142, -1,
      155, 142, 156, -1,
      156, 142, 144, -1,
      156, 144, 157, -1,
      157, 144, 112, -1,
      157, 112, 158, -1,
      158, 112, 114, -1,
      158, 114, 159, -1,
      159, 114, 116, -1,
      159, 116, 160, -1,
      160, 116, 118, -1,
      160, 118, 161, -1,
      161, 118, 120, -1,
      161, 120, 146, -1,
      27, 26, 162, -1,
      162, 26, 163, -1,
      26, 38, 163, -1,
      163, 38, 164, -1,
      38, 37, 164, -1,
      164, 37, 165, -1,
      37, 39, 165, -1,
      165, 39, 166, -1,
      39, 40, 166, -1,
      166, 40, 167, -1,
      40, 30, 167, -1,
      167, 30, 168, -1,
      30, 29, 168, -1,
      168, 29, 169, -1,
      29, 28, 169, -1,
      169, 28, 170, -1,
      28, 45, 170, -1,
      170, 45, 171, -1,
      45, 32, 171, -1,
      171, 32, 172, -1,
      32, 31, 172, -1,
      172, 31, 173, -1,
      31, 27, 173, -1,
      173, 27, 162, -1,
      173, 162, 163, -1,
      163, 164, 173, -1,
      173, 164, 165, -1,
      173, 165, 172, -1,
      170, 171, 169, -1,
      169, 171, 172, -1,
      169, 172, 168, -1,
      168, 172, 165, -1,
      168, 165, 167, -1,
      167, 165, 166, -1,
      34, 33, 174, -1,
      174, 33, 175, -1,
      58, 176, 177, -1,
      58, 177, 62, -1,
      62, 177, 178, -1,
      62, 178, 51, -1,
      51, 178, 175, -1,
      51, 175, 33, -1,
      54, 179, 180, -1,
      54, 180, 55, -1,
      55, 180, 181, -1,
      55, 181, 56, -1,
      56, 181, 182, -1,
      56, 182, 61, -1,
      61, 182, 183, -1,
      61, 183, 60, -1,
      60, 183, 184, -1,
      60, 184, 59, -1,
      59, 184, 185, -1,
      59, 185, 57, -1,
      57, 185, 176, -1,
      57, 176, 58, -1,
      83, 186, 187, -1,
      83, 187, 49, -1,
      49, 187, 188, -1,
      49, 188, 50, -1,
      50, 188, 189, -1,
      50, 189, 52, -1,
      52, 189, 190, -1,
      52, 190, 53, -1,
      53, 190, 191, -1,
      53, 191, 63, -1,
      63, 191, 192, -1,
      63, 192, 64, -1,
      64, 192, 179, -1,
      64, 179, 54, -1,
      81, 193, 194, -1,
      81, 194, 82, -1,
      82, 194, 186, -1,
      82, 186, 83, -1,
      81, 80, 193, -1,
      193, 80, 195, -1,
      78, 196, 197, -1,
      78, 197, 79, -1,
      79, 197, 195, -1,
      79, 195, 80, -1,
      74, 198, 199, -1,
      74, 199, 75, -1,
      75, 199, 200, -1,
      75, 200, 46, -1,
      46, 200, 201, -1,
      46, 201, 47, -1,
      47, 201, 202, -1,
      47, 202, 65, -1,
      65, 202, 203, -1,
      65, 203, 76, -1,
      76, 203, 204, -1,
      76, 204, 77, -1,
      77, 204, 196, -1,
      77, 196, 78, -1,
      44, 85, 205, -1,
      44, 205, 43, -1,
      205, 206, 43, -1,
      43, 206, 207, -1,
      43, 207, 41, -1,
      41, 207, 208, -1,
      41, 208, 68, -1,
      68, 208, 209, -1,
      68, 209, 69, -1,
      69, 209, 210, -1,
      69, 210, 71, -1,
      71, 210, 211, -1,
      71, 211, 73, -1,
      73, 211, 198, -1,
      73, 198, 74, -1,
      35, 34, 212, -1,
      212, 34, 174, -1,
      35, 212, 36, -1,
      36, 212, 213, -1,
      36, 213, 84, -1,
      84, 213, 205, -1,
      84, 205, 85, -1,
      185, 205, 176, -1,
      176, 205, 213, -1,
      176, 213, 177, -1,
      177, 213, 212, -1,
      177, 212, 178, -1,
      178, 212, 174, -1,
      178, 174, 175, -1,
      193, 195, 194, -1,
      194, 195, 197, -1,
      194, 197, 186, -1,
      186, 197, 196, -1,
      186, 196, 187, -1,
      187, 196, 204, -1,
      187, 204, 188, -1,
      188, 204, 203, -1,
      188, 203, 189, -1,
      189, 203, 202, -1,
      189, 202, 190, -1,
      190, 202, 201, -1,
      190, 201, 191, -1,
      191, 201, 200, -1,
      191, 200, 192, -1,
      192, 200, 199, -1,
      192, 199, 179, -1,
      179, 199, 198, -1,
      179, 198, 180, -1,
      180, 198, 211, -1,
      180, 211, 181, -1,
      181, 211, 210, -1,
      181, 210, 182, -1,
      182, 210, 209, -1,
      182, 209, 183, -1,
      183, 209, 208, -1,
      183, 208, 184, -1,
      184, 208, 207, -1,
      184, 207, 185, -1,
      185, 207, 206, -1,
      185, 206, 205, -1,
      42, 70, 214, -1,
      214, 70, 215, -1,
      70, 72, 215, -1,
      215, 72, 216, -1,
      72, 48, 216, -1,
      216, 48, 217, -1,
      48, 66, 217, -1,
      217, 66, 218, -1,
      66, 67, 218, -1,
      218, 67, 219, -1,
      67, 42, 219, -1,
      219, 42, 214, -1,
      217, 218, 216, -1,
      216, 218, 219, -1,
      216, 219, 215, -1,
      215, 219, 214, -1,
    ]
  }
}

Shape {
  appearance Appearance {
    material Material {
      diffuseColor 0.8510 0.8510 0.8510
      specularColor 0.4235 0.4235 0.4235
      ambientIntensity 0.2
      transparency 0.0000
      shininess 0.5
    }
  }
  geometry IndexedFaceSet {
    ccw TRUE
    solid FALSE
    coord DEF co Coordinate {
      point [
        -0.206577 -0.030661 0.000000,
        -0.173662 -0.030661 0.000000,
        -0.191761 0.010450 0.000000,
        -0.190884 0.013874 0.000000,
        -0.190242 0.017352 0.000000,
        -0.189923 0.017352 0.000000,
        -0.189294 0.013863 0.000000,
        -0.188347 0.010450 0.000000,
        -0.073324 0.018552 0.000000,
        -0.087840 0.018552 0.000000,
        -0.073324 -0.058268 0.000000,
        -0.087296 -0.058268 0.000000,
        -0.097680 -0.057302 -0.000000,
        -0.105963 -0.054716 0.000000,
        -0.112676 -0.050730 0.000000,
        -0.118196 -0.045278 -0.000000,
        -0.122347 -0.038491 -0.000000,
        -0.125234 -0.029239 0.000000,
        -0.126138 -0.018902 -0.000000,
        -0.125302 -0.009106 0.000000,
        -0.123004 -0.001321 0.000000,
        -0.119585 0.004750 0.000000,
        -0.114804 0.009826 -0.000000,
        -0.107614 0.014470 0.000000,
        -0.099490 0.017313 0.000000,
      ]
    }
    coordIndex [
      1, 0, 7, -1,
      7, 0, 2, -1,
      7, 2, 6, -1,
      6, 2, 3, -1,
      6, 3, 5, -1,
      5, 3, 4, -1,
      8, 10, 9, -1,
      9, 10, 11, -1,
      9, 11, 12, -1,
      18, 19, 9, -1,
      9, 19, 20, -1,
      9, 20, 24, -1,
      12, 13, 9, -1,
      9, 13, 14, -1,
      9, 14, 15, -1,
      15, 16, 9, -1,
      9, 16, 17, -1,
      9, 17, 18, -1,
      21, 22, 20, -1,
      20, 22, 23, -1,
      20, 23, 24, -1,
    ]
  }
}
