M48
; DRILL file KiCad 10.0.4 date 2026-07-09T23:04:48
; FORMAT={-:-/ absolute / metric / decimal}
; #@! TF.CreationDate,2026-07-09T23:04:48-05:00
; #@! TF.GenerationSoftware,Kicad,Pcbnew,10.0.4
; #@! TF.FileFunction,MixedPlating,1,2
FMAT,2
METRIC
; #@! TA.AperFunction,Plated,PTH,ViaDrill
T1C0.300
; #@! TA.AperFunction,Plated,PTH,ViaDrill
T2C0.500
; #@! TA.AperFunction,Plated,PTH,ComponentDrill
T3C0.900
; #@! TA.AperFunction,Plated,PTH,ComponentDrill
T4C1.000
; #@! TA.AperFunction,Plated,PTH,ComponentDrill
T5C2.700
; #@! TA.AperFunction,NonPlated,NPTH,ComponentDrill
T6C2.700
%
G90
G05
T1
X145.81Y-29.18
X145.81Y-30.48
X146.86Y-37.86
X148.01Y-29.08
X148.04Y-30.51
X148.7Y-35.44
X148.72Y-36.23
X149.13Y-34.79
X149.48Y-36.25
X149.55Y-35.42
X150.24Y-40.31
X150.64Y-30.91
X150.69Y-32.14
X151.4Y-31.58
X151.52Y-32.53
X152.05Y-30.88
X152.18Y-31.99
X152.81Y-28.76
X153.35Y-29.2
X153.97Y-28.73
X154.59Y-29.22
X155.16Y-31.15
X155.17Y-28.76
X181.25Y-42.515
X181.43Y-44.96
X181.64Y-43.69
X182.39Y-44.99
X183.0Y-41.3
X183.04Y-38.71
X185.73Y-38.31
X185.76Y-42.38
X187.44Y-40.28
X188.39Y-45.26
X190.91Y-44.54
T2
X128.13Y-83.21
X128.28Y-20.05
X128.53Y-29.58
X128.53Y-37.99
X128.87Y-105.75
X131.85Y-43.22
X131.9Y-39.19
X133.32Y-32.82
X136.29Y-48.19
X137.25Y-37.81
X137.37Y-32.83
X137.66Y-43.99
X137.7Y-39.24
X138.19Y-65.84
X139.61Y-41.01
X142.52Y-40.29
X142.66Y-44.08
X143.07Y-48.05
X144.1Y-19.64
X144.26Y-43.25
X146.96Y-40.04
X150.8Y-47.95
X153.16Y-37.5
X155.44Y-43.21
X155.49Y-41.65
X155.91Y-39.31
X157.53Y-41.66
X160.0Y-105.1
X160.54Y-23.84
X160.75Y-40.99
X164.3Y-48.03
X168.79Y-41.03
X169.03Y-23.76
X170.39Y-43.96
X171.21Y-19.47
X172.47Y-25.74
X172.79Y-45.37
X174.51Y-25.72
X175.34Y-27.44
X175.63Y-46.43
X175.76Y-47.94
X182.02Y-28.37
X185.88Y-30.12
X186.78Y-32.95
X187.76Y-38.85
X189.09Y-36.61
X192.01Y-32.7
X192.35Y-39.44
X193.59Y-45.59
X194.57Y-41.06
X195.15Y-32.7
X197.11Y-25.98
X199.43Y-28.08
X199.65Y-104.84
X199.9Y-19.91
X227.26Y-31.13
X227.84Y-94.61
T3
X130.77Y-49.79
X130.77Y-51.79
X130.86Y-21.882
X132.86Y-21.882
X137.5Y-35.85
X139.5Y-35.85
X155.742Y-21.882
X157.742Y-21.882
X176.68Y-41.19
X178.68Y-41.19
X182.452Y-21.882
X183.87Y-48.6
X184.452Y-21.882
X185.87Y-48.6
X191.75Y-21.86
X193.75Y-21.86
X203.562Y-21.86
X205.562Y-21.86
T4
X130.37Y-58.41
X130.37Y-60.95
X132.91Y-58.41
X132.91Y-60.95
T5
X216.095Y-22.88
X216.58Y-102.48
T6
X131.64Y-102.54
X138.77Y-22.88
X189.64Y-53.54
X189.64Y-102.54
M30
