%TF.GenerationSoftware,KiCad,Pcbnew,10.0.4*%
%TF.CreationDate,2026-07-09T22:57:27-05:00*%
%TF.ProjectId,matt-poe-prototype,6d617474-2d70-46f6-952d-70726f746f74,4.06/2L*%
%TF.SameCoordinates,Original*%
%TF.FileFunction,Paste,Top*%
%TF.FilePolarity,Positive*%
%FSLAX46Y46*%
G04 Gerber Fmt 4.6, Leading zero omitted, Abs format (unit mm)*
G04 Created by KiCad (PCBNEW 10.0.4) date 2026-07-09 22:57:27*
%MOMM*%
%LPD*%
G01*
G04 APERTURE LIST*
G04 Aperture macros list*
%AMFreePoly0*
4,1,7,0.400000,-0.125000,-0.400000,-0.125000,-0.400000,0.125000,0.150000,0.125000,0.150000,0.550000,0.400000,0.550000,0.400000,-0.125000,0.400000,-0.125000,$1*%
%AMFreePoly1*
4,1,7,0.400000,-0.550000,0.150000,-0.550000,0.150000,-0.125000,-0.400000,-0.125000,-0.400000,0.125000,0.400000,0.125000,0.400000,-0.550000,0.400000,-0.550000,$1*%
%AMFreePoly2*
4,1,7,0.400000,-0.125000,-0.150000,-0.125000,-0.150000,-0.550000,-0.400000,-0.550000,-0.400000,0.125000,0.400000,0.125000,0.400000,-0.125000,0.400000,-0.125000,$1*%
%AMFreePoly3*
4,1,7,-0.150000,0.125000,0.400000,0.125000,0.400000,-0.125000,-0.400000,-0.125000,-0.400000,0.550000,-0.150000,0.550000,-0.150000,0.125000,-0.150000,0.125000,$1*%
G04 Aperture macros list end*
%ADD10R,1.635001X2.700000*%
%ADD11R,0.800000X0.900000*%
%ADD12R,1.701016X1.207518*%
%ADD13R,1.300000X0.250000*%
%ADD14R,0.800000X0.250000*%
%ADD15FreePoly0,90.000000*%
%ADD16R,0.250000X0.800000*%
%ADD17FreePoly1,90.000000*%
%ADD18FreePoly2,90.000000*%
%ADD19FreePoly3,90.000000*%
%ADD20R,1.410008X1.350013*%
%ADD21R,1.400000X1.400000*%
%ADD22R,4.900000X3.400000*%
%ADD23R,0.900000X0.800000*%
%ADD24R,1.350013X1.410008*%
%ADD25R,0.980010X1.535001*%
%ADD26R,0.806477X0.864008*%
%ADD27R,2.700000X1.635001*%
%ADD28R,2.029997X1.270003*%
%ADD29R,0.864008X0.806477*%
%ADD30R,1.784989X2.159995*%
%ADD31R,0.800000X0.532000*%
%ADD32R,3.100000X1.520015*%
%ADD33R,1.485014X1.727991*%
%ADD34R,1.000000X2.200000*%
%ADD35R,0.864000X0.806475*%
%ADD36R,1.132537X1.377013*%
%ADD37R,2.046380X1.620015*%
%ADD38R,1.727991X1.485014*%
G04 APERTURE END LIST*
D10*
%TO.C,C20*%
X178650000Y-44130000D03*
X175615202Y-44130000D03*
%TD*%
D11*
%TO.C,C3*%
X152189861Y-43290000D03*
X150789811Y-43290000D03*
%TD*%
D12*
%TO.C,R8*%
X176144263Y-32949765D03*
X176144263Y-29992183D03*
%TD*%
D13*
%TO.C,U2*%
X147969811Y-34439810D03*
D14*
X147719811Y-34939936D03*
X147719811Y-35590062D03*
X147719811Y-36240188D03*
D15*
X147869496Y-37239998D03*
D16*
X148369622Y-37239998D03*
X148869748Y-37239998D03*
X149369874Y-37239998D03*
X149870000Y-37239998D03*
D17*
X150370126Y-37239998D03*
D14*
X150519811Y-36240188D03*
X150519811Y-35590062D03*
X150519811Y-34939936D03*
D13*
X150269811Y-34439810D03*
D18*
X150370126Y-33440000D03*
D16*
X149870000Y-33440000D03*
X149119811Y-33440000D03*
X148369748Y-33440000D03*
D19*
X147869622Y-33440000D03*
%TD*%
D20*
%TO.C,C17*%
X181860000Y-39990000D03*
X183860000Y-39990000D03*
%TD*%
D21*
%TO.C,D4*%
X176165996Y-35710000D03*
X176165996Y-37550000D03*
D22*
X180229996Y-36630000D03*
%TD*%
D23*
%TO.C,C1*%
X145869811Y-34870050D03*
X145869811Y-33470000D03*
%TD*%
D24*
%TO.C,C5*%
X142459555Y-38450198D03*
X142459555Y-36450198D03*
%TD*%
D25*
%TO.C,D1*%
X129852456Y-43602482D03*
X133852456Y-43602482D03*
X133852456Y-38017518D03*
X129852456Y-38017518D03*
%TD*%
D26*
%TO.C,R1*%
X145836543Y-36500000D03*
X144329811Y-36500000D03*
%TD*%
D24*
%TO.C,C9*%
X149230000Y-31450000D03*
X149230000Y-29450000D03*
%TD*%
D27*
%TO.C,C15*%
X172690000Y-40580000D03*
X172690000Y-43614798D03*
%TD*%
D28*
%TO.C,T1*%
X156510000Y-37440000D03*
X156510000Y-34940127D03*
X156510000Y-32440000D03*
X156510000Y-29940127D03*
X156510000Y-27440000D03*
X173530066Y-27440000D03*
X173530066Y-29940127D03*
X173530066Y-32440000D03*
X173530066Y-34940127D03*
X173530066Y-37440000D03*
%TD*%
D29*
%TO.C,R3*%
X145859811Y-43263341D03*
X145859811Y-41756609D03*
%TD*%
D30*
%TO.C,C7*%
X162690000Y-23860000D03*
X166874912Y-23860000D03*
%TD*%
D23*
%TO.C,C13*%
X178370000Y-30750000D03*
X178370000Y-32150000D03*
%TD*%
D31*
%TO.C,U4*%
X183110000Y-44949920D03*
X183110000Y-43999960D03*
X183110000Y-43050000D03*
X180710000Y-43050000D03*
X180710000Y-43999960D03*
X180710000Y-44949920D03*
%TD*%
D32*
%TO.C,L2*%
X185630000Y-43960000D03*
X185630000Y-46250068D03*
%TD*%
D33*
%TO.C,C10*%
X146955166Y-29800000D03*
X143770000Y-29800000D03*
%TD*%
D27*
%TO.C,C14*%
X183430000Y-33244798D03*
X183430000Y-30210000D03*
%TD*%
D34*
%TO.C,L1*%
X147174244Y-26780000D03*
X149000000Y-26780000D03*
%TD*%
D30*
%TO.C,C6*%
X162675088Y-41030000D03*
X166860000Y-41030000D03*
%TD*%
D24*
%TO.C,C19*%
X188670000Y-43130000D03*
X188670000Y-41130000D03*
%TD*%
D35*
%TO.C,R4*%
X147429811Y-43266730D03*
X147429811Y-41760002D03*
%TD*%
%TO.C,R6*%
X153809811Y-43226730D03*
X153809811Y-41720002D03*
%TD*%
D26*
%TO.C,R7*%
X154356732Y-33790000D03*
X152850000Y-33790000D03*
%TD*%
D36*
%TO.C,R10*%
X192280000Y-44040000D03*
X194280000Y-44040000D03*
%TD*%
D26*
%TO.C,R2*%
X144349811Y-38090000D03*
X145856543Y-38090000D03*
%TD*%
D20*
%TO.C,C4*%
X154170000Y-39300000D03*
X152170000Y-39300000D03*
%TD*%
D37*
%TO.C,D3*%
X140043988Y-32810602D03*
X135236012Y-32829398D03*
%TD*%
D36*
%TO.C,R9*%
X191950000Y-46170000D03*
X189950000Y-46170000D03*
%TD*%
D38*
%TO.C,C11*%
X153610000Y-30585166D03*
X153610000Y-27400000D03*
%TD*%
D26*
%TO.C,R5*%
X152236543Y-41520000D03*
X150729811Y-41520000D03*
%TD*%
D23*
%TO.C,C2*%
X149079811Y-41859975D03*
X149079811Y-43260025D03*
%TD*%
D11*
%TO.C,C8*%
X152779950Y-35460000D03*
X154180000Y-35460000D03*
%TD*%
D20*
%TO.C,C18*%
X184570000Y-41980000D03*
X186570000Y-41980000D03*
%TD*%
D24*
%TO.C,C12*%
X151330000Y-29430000D03*
X151330000Y-27430000D03*
%TD*%
D10*
%TO.C,C16*%
X184075202Y-36560000D03*
X187110000Y-36560000D03*
%TD*%
D25*
%TO.C,D2*%
X135710000Y-43602482D03*
X139710000Y-43602482D03*
X139710000Y-38017518D03*
X135710000Y-38017518D03*
%TD*%
D10*
%TO.C,C21*%
X180630000Y-47500000D03*
X177595202Y-47500000D03*
%TD*%
M02*
