%TF.GenerationSoftware,KiCad,Pcbnew,10.0.4*%
%TF.CreationDate,2026-07-09T22:57:27-05:00*%
%TF.ProjectId,matt-poe-prototype,6d617474-2d70-46f6-952d-70726f746f74,4.06/2L*%
%TF.SameCoordinates,Original*%
%TF.FileFunction,Copper,L2,Bot*%
%TF.FilePolarity,Positive*%
%FSLAX46Y46*%
G04 Gerber Fmt 4.6, Leading zero omitted, Abs format (unit mm)*
G04 Created by KiCad (PCBNEW 10.0.4) date 2026-07-09 22:57:27*
%MOMM*%
%LPD*%
G01*
G04 APERTURE LIST*
%TA.AperFunction,ComponentPad*%
%ADD10R,1.400000X1.400000*%
%TD*%
%TA.AperFunction,ComponentPad*%
%ADD11O,1.400000X1.400000*%
%TD*%
%TA.AperFunction,ComponentPad*%
%ADD12C,3.100000*%
%TD*%
%TA.AperFunction,ConnectorPad*%
%ADD13C,5.400000*%
%TD*%
%TA.AperFunction,ComponentPad*%
%ADD14R,1.700000X1.700000*%
%TD*%
%TA.AperFunction,ComponentPad*%
%ADD15C,1.700000*%
%TD*%
%TA.AperFunction,ViaPad*%
%ADD16C,1.000000*%
%TD*%
%TA.AperFunction,ViaPad*%
%ADD17C,0.600000*%
%TD*%
%TA.AperFunction,Conductor*%
%ADD18C,0.400000*%
%TD*%
G04 APERTURE END LIST*
D10*
%TO.P,PG-TP1,1,1_1*%
%TO.N,GNDPWR*%
X130860000Y-21882400D03*
D11*
%TO.P,PG-TP1,2,2_2*%
X132860000Y-21882400D03*
%TD*%
D10*
%TO.P,5V-TP5,1,1_1*%
%TO.N,Net-(5V-TP5-Pad1)*%
X203562202Y-21860000D03*
D11*
%TO.P,5V-TP5,2,2_2*%
X205562202Y-21860000D03*
%TD*%
D10*
%TO.P,JP3,1,1_1*%
%TO.N,+12V*%
X176680000Y-41190000D03*
D11*
%TO.P,JP3,2,2_2*%
%TO.N,Net-(U4-VIN)*%
X178680000Y-41190000D03*
%TD*%
D10*
%TO.P,JP1,1,1_1*%
%TO.N,/TR0*%
X130770000Y-51790000D03*
D11*
%TO.P,JP1,2,2_2*%
%TO.N,Net-(D1-AC-Pad1)*%
X130770000Y-49790000D03*
%TD*%
D12*
%TO.P,H1,1,1_1*%
%TO.N,GND*%
X216095000Y-22880000D03*
D13*
X216095000Y-22880000D03*
%TD*%
D14*
%TO.P,J2,1,Pin_1_1*%
%TO.N,/TR1*%
X132910000Y-58410000D03*
D15*
%TO.P,J2,2,Pin_2_2*%
%TO.N,/TR0*%
X130370000Y-58410000D03*
%TO.P,J2,3,Pin_3_3*%
%TO.N,/TR3*%
X132910000Y-60950000D03*
%TO.P,J2,4,Pin_4_4*%
%TO.N,/TR2*%
X130370000Y-60950000D03*
%TD*%
D10*
%TO.P,JP4,1,1_1*%
%TO.N,Net-(5V-TP5-Pad1)*%
X183870000Y-48600000D03*
D11*
%TO.P,JP4,2,2_2*%
%TO.N,+5V*%
X185870000Y-48600000D03*
%TD*%
D10*
%TO.P,12V-TP4,1,1_1*%
%TO.N,+12V*%
X191750000Y-21860000D03*
D11*
%TO.P,12V-TP4,2,2_2*%
X193750000Y-21860000D03*
%TD*%
D10*
%TO.P,GND-TP3,1,1_1*%
%TO.N,GND*%
X182452202Y-21882400D03*
D11*
%TO.P,GND-TP3,2,2_2*%
X184452202Y-21882400D03*
%TD*%
D10*
%TO.P,SW-TP2,1,1_1*%
%TO.N,Net-(U2-SW)*%
X155742202Y-21882400D03*
D11*
%TO.P,SW-TP2,2,2_2*%
X157742202Y-21882400D03*
%TD*%
D10*
%TO.P,JP2,1,1_1*%
%TO.N,Net-(D1-+)*%
X137500000Y-35850000D03*
D11*
%TO.P,JP2,2,2_2*%
%TO.N,Net-(D3-K)*%
X139500000Y-35850000D03*
%TD*%
D12*
%TO.P,H2,1,1_1*%
%TO.N,GND*%
X216580000Y-102480000D03*
D13*
X216580000Y-102480000D03*
%TD*%
D16*
%TO.N,GND*%
X197110000Y-25980000D03*
X199430000Y-28080000D03*
X172790000Y-45370000D03*
D17*
X182390000Y-44990000D03*
D16*
X175760000Y-47940000D03*
X199900000Y-19910000D03*
X175630000Y-46430000D03*
X128130000Y-83210000D03*
X189090000Y-36610000D03*
X169030000Y-23760000D03*
X170390000Y-43960000D03*
X193590000Y-45590000D03*
X186780000Y-32950000D03*
X199650000Y-104840000D03*
X175340000Y-27440000D03*
X171210000Y-19470000D03*
X192010000Y-32700000D03*
D17*
X183000000Y-41300000D03*
D16*
X185880000Y-30120000D03*
X182020000Y-28370000D03*
X172470000Y-25740000D03*
D17*
X188390000Y-45260000D03*
D16*
X227840000Y-94610000D03*
X174510000Y-25720000D03*
X138190000Y-65840000D03*
D17*
X181640000Y-43690000D03*
X185730000Y-38310000D03*
D16*
X143070000Y-48050000D03*
X194570000Y-41060000D03*
X128870000Y-105750000D03*
X168790000Y-41030000D03*
D17*
X185760006Y-42380000D03*
D16*
X187760000Y-38850000D03*
X136290000Y-48190000D03*
X192350000Y-39440000D03*
X164300000Y-48030000D03*
X195150000Y-32700000D03*
D17*
X183040000Y-38710000D03*
D16*
X160000000Y-105100000D03*
X150800000Y-47950000D03*
X227260000Y-31130000D03*
%TO.N,GNDPWR*%
X137700000Y-39240000D03*
D17*
X152810000Y-28760000D03*
D16*
X155440000Y-43210000D03*
X142660000Y-44080000D03*
D17*
X146860000Y-37860000D03*
X150240000Y-40310000D03*
X153350000Y-29200000D03*
X148699811Y-35440000D03*
D16*
X128530000Y-29580000D03*
D17*
X155160000Y-31150000D03*
D16*
X139610000Y-41010000D03*
X133320000Y-32820000D03*
X144260000Y-43250000D03*
D17*
X151520000Y-32530000D03*
X149549811Y-35420000D03*
D16*
X155910000Y-39310000D03*
X155490000Y-41650000D03*
D17*
X153970000Y-28730000D03*
X152180000Y-31990000D03*
D16*
X153160000Y-37500000D03*
X160750000Y-40990000D03*
X157530000Y-41660000D03*
X137370000Y-32830000D03*
D17*
X152050000Y-30880000D03*
D16*
X146959811Y-40040000D03*
X160540000Y-23840000D03*
D17*
X145810000Y-29180000D03*
D16*
X137660000Y-43990000D03*
D17*
X148010000Y-29080000D03*
D16*
X131900000Y-39190000D03*
X142520000Y-40290000D03*
D17*
X148040000Y-30510000D03*
X150640000Y-30910000D03*
X145810000Y-30480000D03*
D16*
X131850000Y-43220000D03*
X128280000Y-20050000D03*
D17*
X154590000Y-29220000D03*
X149129811Y-34790000D03*
D16*
X137250000Y-37810000D03*
D17*
X150690000Y-32140000D03*
D16*
X144100000Y-19640000D03*
D17*
X155170000Y-28760000D03*
X151400000Y-31580000D03*
D16*
X128530000Y-37990000D03*
D17*
X148719811Y-36230000D03*
X149479811Y-36250000D03*
%TO.N,Net-(U4-FB)*%
X181250000Y-42515000D03*
X190910000Y-44540000D03*
%TO.N,Net-(U4-BST)*%
X181430000Y-44960000D03*
X187440000Y-40280000D03*
%TD*%
%TO.N,Net-(U4-FB)*%
D18*
X180755000Y-43575000D02*
X180755000Y-45445000D01*
X181250000Y-43080000D02*
X180755000Y-43575000D01*
X181245000Y-45935000D02*
X189515000Y-45935000D01*
X180755000Y-45445000D02*
X181245000Y-45935000D01*
X181250000Y-42515000D02*
X181250000Y-43080000D01*
X189515000Y-45935000D02*
X190910000Y-44540000D01*
%TO.N,Net-(U4-BST)*%
X185260000Y-41130000D02*
X181430000Y-44960000D01*
X186590000Y-41130000D02*
X185260000Y-41130000D01*
X187440000Y-40280000D02*
X186590000Y-41130000D01*
%TD*%
%TA.AperFunction,Conductor*%
%TO.N,GNDPWR*%
G36*
X131919724Y-21619414D02*
G01*
X131935868Y-21632400D01*
X132484708Y-21632400D01*
X132440655Y-21708702D01*
X132409987Y-21823155D01*
X132409987Y-21941645D01*
X132440655Y-22056098D01*
X132484708Y-22132400D01*
X131931905Y-22132400D01*
X131899777Y-22152966D01*
X131838698Y-22149364D01*
X131812761Y-22132400D01*
X131235292Y-22132400D01*
X131279345Y-22056098D01*
X131310013Y-21941645D01*
X131310013Y-21823155D01*
X131279345Y-21708702D01*
X131235292Y-21632400D01*
X131815026Y-21632400D01*
X131859292Y-21609844D01*
X131919724Y-21619414D01*
G37*
%TD.AperFunction*%
%TA.AperFunction,Conductor*%
G36*
X163563350Y-18828384D02*
G01*
X163599343Y-18877863D01*
X163604205Y-18908868D01*
X163511087Y-44639265D01*
X163491970Y-44697387D01*
X163442340Y-44733172D01*
X163411957Y-44737907D01*
X127441413Y-44690388D01*
X127383248Y-44671404D01*
X127347349Y-44621856D01*
X127342545Y-44591008D01*
X127378866Y-35130253D01*
X136599500Y-35130253D01*
X136599500Y-36569746D01*
X136599501Y-36569758D01*
X136611132Y-36628227D01*
X136611134Y-36628233D01*
X136655445Y-36694548D01*
X136655448Y-36694552D01*
X136721769Y-36738867D01*
X136766231Y-36747711D01*
X136780241Y-36750498D01*
X136780246Y-36750498D01*
X136780252Y-36750500D01*
X136780253Y-36750500D01*
X138219747Y-36750500D01*
X138219748Y-36750500D01*
X138278231Y-36738867D01*
X138344552Y-36694552D01*
X138388867Y-36628231D01*
X138400500Y-36569748D01*
X138400500Y-35761306D01*
X138599500Y-35761306D01*
X138599500Y-35938693D01*
X138634106Y-36112665D01*
X138634106Y-36112667D01*
X138701985Y-36276544D01*
X138701985Y-36276545D01*
X138800535Y-36424034D01*
X138800536Y-36424035D01*
X138925965Y-36549464D01*
X139073453Y-36648013D01*
X139237334Y-36715894D01*
X139411309Y-36750500D01*
X139411310Y-36750500D01*
X139588690Y-36750500D01*
X139588691Y-36750500D01*
X139762666Y-36715894D01*
X139926547Y-36648013D01*
X140074035Y-36549464D01*
X140199464Y-36424035D01*
X140298013Y-36276547D01*
X140365894Y-36112666D01*
X140400500Y-35938691D01*
X140400500Y-35761309D01*
X140365894Y-35587334D01*
X140298014Y-35423455D01*
X140298014Y-35423454D01*
X140199464Y-35275965D01*
X140074034Y-35150535D01*
X139926544Y-35051985D01*
X139762666Y-34984106D01*
X139588693Y-34949500D01*
X139588691Y-34949500D01*
X139411309Y-34949500D01*
X139411306Y-34949500D01*
X139237334Y-34984106D01*
X139237332Y-34984106D01*
X139073455Y-35051985D01*
X139073454Y-35051985D01*
X138925965Y-35150535D01*
X138800535Y-35275965D01*
X138701985Y-35423454D01*
X138701985Y-35423455D01*
X138634106Y-35587332D01*
X138634106Y-35587334D01*
X138599500Y-35761306D01*
X138400500Y-35761306D01*
X138400500Y-35130252D01*
X138388867Y-35071769D01*
X138344552Y-35005448D01*
X138312612Y-34984106D01*
X138278233Y-34961134D01*
X138278231Y-34961133D01*
X138278228Y-34961132D01*
X138278227Y-34961132D01*
X138219758Y-34949501D01*
X138219748Y-34949500D01*
X136780252Y-34949500D01*
X136780251Y-34949500D01*
X136780241Y-34949501D01*
X136721772Y-34961132D01*
X136721766Y-34961134D01*
X136655451Y-35005445D01*
X136655445Y-35005451D01*
X136611134Y-35071766D01*
X136611132Y-35071772D01*
X136599501Y-35130241D01*
X136599500Y-35130253D01*
X127378866Y-35130253D01*
X127378886Y-35125008D01*
X127391479Y-31844615D01*
X127432507Y-21157775D01*
X129910000Y-21157775D01*
X129910000Y-21632399D01*
X129910001Y-21632400D01*
X130484708Y-21632400D01*
X130440655Y-21708702D01*
X130409987Y-21823155D01*
X130409987Y-21941645D01*
X130440655Y-22056098D01*
X130484708Y-22132400D01*
X129910001Y-22132400D01*
X129910000Y-22132401D01*
X129910000Y-22607024D01*
X129924506Y-22679946D01*
X129924507Y-22679948D01*
X129979758Y-22762637D01*
X129979762Y-22762641D01*
X130062451Y-22817892D01*
X130062453Y-22817893D01*
X130135375Y-22832399D01*
X130135377Y-22832400D01*
X130609999Y-22832400D01*
X130610000Y-22832399D01*
X130610000Y-22257692D01*
X130686302Y-22301745D01*
X130800755Y-22332413D01*
X130919245Y-22332413D01*
X131033698Y-22301745D01*
X131110000Y-22257692D01*
X131110000Y-22832399D01*
X131110001Y-22832400D01*
X131584623Y-22832400D01*
X131584624Y-22832399D01*
X131657546Y-22817893D01*
X131657548Y-22817892D01*
X131740237Y-22762641D01*
X131740241Y-22762637D01*
X131795492Y-22679948D01*
X131795493Y-22679946D01*
X131809999Y-22607024D01*
X131810000Y-22607022D01*
X131810000Y-22327652D01*
X131828907Y-22269461D01*
X131878407Y-22233497D01*
X131939593Y-22233497D01*
X131989093Y-22269461D01*
X132000464Y-22289767D01*
X132018118Y-22332389D01*
X132018124Y-22332401D01*
X132122087Y-22487989D01*
X132122090Y-22487993D01*
X132254406Y-22620309D01*
X132254410Y-22620312D01*
X132409998Y-22724275D01*
X132410010Y-22724281D01*
X132582888Y-22795889D01*
X132582899Y-22795892D01*
X132610000Y-22801282D01*
X132610000Y-22257692D01*
X132686302Y-22301745D01*
X132800755Y-22332413D01*
X132919245Y-22332413D01*
X133033698Y-22301745D01*
X133110000Y-22257692D01*
X133110000Y-22801281D01*
X133137100Y-22795892D01*
X133137111Y-22795889D01*
X133305986Y-22725939D01*
X136419500Y-22725939D01*
X136419500Y-23034060D01*
X136459717Y-23339536D01*
X136459717Y-23339541D01*
X136539464Y-23637163D01*
X136657375Y-23921825D01*
X136811440Y-24188673D01*
X136999003Y-24433110D01*
X136999005Y-24433112D01*
X136999009Y-24433117D01*
X137216883Y-24650991D01*
X137216887Y-24650994D01*
X137216889Y-24650996D01*
X137461326Y-24838559D01*
X137461330Y-24838562D01*
X137728170Y-24992622D01*
X137728171Y-24992622D01*
X137728174Y-24992624D01*
X138012836Y-25110535D01*
X138310456Y-25190282D01*
X138615940Y-25230500D01*
X138615941Y-25230500D01*
X138924059Y-25230500D01*
X138924060Y-25230500D01*
X139229544Y-25190282D01*
X139527164Y-25110535D01*
X139811830Y-24992622D01*
X140078670Y-24838562D01*
X140323117Y-24650991D01*
X140540991Y-24433117D01*
X140728562Y-24188670D01*
X140882622Y-23921830D01*
X141000535Y-23637164D01*
X141080282Y-23339544D01*
X141120500Y-23034060D01*
X141120500Y-22725940D01*
X141080282Y-22420456D01*
X141000535Y-22122836D01*
X140882622Y-21838170D01*
X140728562Y-21571330D01*
X140645480Y-21463055D01*
X140540996Y-21326889D01*
X140540994Y-21326887D01*
X140540991Y-21326883D01*
X140376761Y-21162653D01*
X154841702Y-21162653D01*
X154841702Y-22602146D01*
X154841703Y-22602158D01*
X154853334Y-22660627D01*
X154853336Y-22660633D01*
X154896974Y-22725941D01*
X154897650Y-22726952D01*
X154897653Y-22726954D01*
X154951055Y-22762637D01*
X154963971Y-22771267D01*
X155008433Y-22780111D01*
X155022443Y-22782898D01*
X155022448Y-22782898D01*
X155022454Y-22782900D01*
X155022455Y-22782900D01*
X156461949Y-22782900D01*
X156461950Y-22782900D01*
X156520433Y-22771267D01*
X156586754Y-22726952D01*
X156631069Y-22660631D01*
X156642702Y-22602148D01*
X156642702Y-21793706D01*
X156841702Y-21793706D01*
X156841702Y-21971093D01*
X156876308Y-22145065D01*
X156876308Y-22145067D01*
X156944187Y-22308944D01*
X156944187Y-22308945D01*
X157018702Y-22420463D01*
X157042738Y-22456435D01*
X157168167Y-22581864D01*
X157315655Y-22680413D01*
X157479536Y-22748294D01*
X157653511Y-22782900D01*
X157653512Y-22782900D01*
X157830892Y-22782900D01*
X157830893Y-22782900D01*
X158004868Y-22748294D01*
X158168749Y-22680413D01*
X158316237Y-22581864D01*
X158441666Y-22456435D01*
X158540215Y-22308947D01*
X158608096Y-22145066D01*
X158642702Y-21971091D01*
X158642702Y-21793709D01*
X158608096Y-21619734D01*
X158567431Y-21521559D01*
X158540216Y-21455855D01*
X158540216Y-21455854D01*
X158441666Y-21308365D01*
X158316236Y-21182935D01*
X158168746Y-21084385D01*
X158004868Y-21016506D01*
X157830895Y-20981900D01*
X157830893Y-20981900D01*
X157653511Y-20981900D01*
X157653508Y-20981900D01*
X157479536Y-21016506D01*
X157479534Y-21016506D01*
X157315657Y-21084385D01*
X157315656Y-21084385D01*
X157168167Y-21182935D01*
X157042737Y-21308365D01*
X156944187Y-21455854D01*
X156944187Y-21455855D01*
X156876308Y-21619732D01*
X156876308Y-21619734D01*
X156841702Y-21793706D01*
X156642702Y-21793706D01*
X156642702Y-21162652D01*
X156631069Y-21104169D01*
X156586754Y-21037848D01*
X156554814Y-21016506D01*
X156520435Y-20993534D01*
X156520433Y-20993533D01*
X156520430Y-20993532D01*
X156520429Y-20993532D01*
X156461960Y-20981901D01*
X156461950Y-20981900D01*
X155022454Y-20981900D01*
X155022453Y-20981900D01*
X155022443Y-20981901D01*
X154963974Y-20993532D01*
X154963968Y-20993534D01*
X154897653Y-21037845D01*
X154897647Y-21037851D01*
X154853336Y-21104166D01*
X154853334Y-21104172D01*
X154841703Y-21162641D01*
X154841702Y-21162653D01*
X140376761Y-21162653D01*
X140323117Y-21109009D01*
X140323112Y-21109005D01*
X140323110Y-21109003D01*
X140078673Y-20921440D01*
X139811825Y-20767375D01*
X139527163Y-20649464D01*
X139323881Y-20594995D01*
X139229544Y-20569718D01*
X139229541Y-20569717D01*
X139229539Y-20569717D01*
X138924060Y-20529500D01*
X138615940Y-20529500D01*
X138615939Y-20529500D01*
X138310463Y-20569717D01*
X138310458Y-20569717D01*
X138012836Y-20649464D01*
X137728174Y-20767375D01*
X137461326Y-20921440D01*
X137216889Y-21109003D01*
X136999003Y-21326889D01*
X136811440Y-21571326D01*
X136657375Y-21838174D01*
X136539464Y-22122836D01*
X136459717Y-22420458D01*
X136459717Y-22420463D01*
X136419500Y-22725939D01*
X133305986Y-22725939D01*
X133309989Y-22724281D01*
X133310001Y-22724275D01*
X133435551Y-22640384D01*
X133465589Y-22620312D01*
X133465593Y-22620309D01*
X133597909Y-22487993D01*
X133597912Y-22487989D01*
X133701875Y-22332401D01*
X133701879Y-22332392D01*
X133773491Y-22159505D01*
X133778884Y-22132400D01*
X133235292Y-22132400D01*
X133279345Y-22056098D01*
X133310013Y-21941645D01*
X133310013Y-21823155D01*
X133279345Y-21708702D01*
X133235292Y-21632400D01*
X133778884Y-21632400D01*
X133773491Y-21605294D01*
X133701879Y-21432407D01*
X133701875Y-21432398D01*
X133597912Y-21276810D01*
X133597909Y-21276806D01*
X133465593Y-21144490D01*
X133465589Y-21144487D01*
X133310001Y-21040524D01*
X133309992Y-21040520D01*
X133137105Y-20968908D01*
X133110000Y-20963516D01*
X133110000Y-21507107D01*
X133033698Y-21463055D01*
X132919245Y-21432387D01*
X132800755Y-21432387D01*
X132686302Y-21463055D01*
X132610000Y-21507107D01*
X132610000Y-20963516D01*
X132582894Y-20968908D01*
X132410007Y-21040520D01*
X132409998Y-21040524D01*
X132254410Y-21144487D01*
X132254406Y-21144490D01*
X132122090Y-21276806D01*
X132122087Y-21276810D01*
X132018124Y-21432398D01*
X132018120Y-21432407D01*
X132000464Y-21475033D01*
X131960727Y-21521559D01*
X131901232Y-21535842D01*
X131844704Y-21512427D01*
X131812735Y-21460258D01*
X131810000Y-21437147D01*
X131810000Y-21157777D01*
X131809999Y-21157775D01*
X131795493Y-21084853D01*
X131795492Y-21084851D01*
X131740241Y-21002162D01*
X131740237Y-21002158D01*
X131657548Y-20946907D01*
X131657546Y-20946906D01*
X131584624Y-20932400D01*
X131110001Y-20932400D01*
X131110000Y-20932401D01*
X131110000Y-21507107D01*
X131033698Y-21463055D01*
X130919245Y-21432387D01*
X130800755Y-21432387D01*
X130686302Y-21463055D01*
X130610000Y-21507107D01*
X130610000Y-20932401D01*
X130609999Y-20932400D01*
X130135375Y-20932400D01*
X130062453Y-20946906D01*
X130062451Y-20946907D01*
X129979762Y-21002158D01*
X129979758Y-21002162D01*
X129924507Y-21084851D01*
X129924506Y-21084853D01*
X129910000Y-21157775D01*
X127432507Y-21157775D01*
X127441063Y-18929029D01*
X127460193Y-18870913D01*
X127509831Y-18835140D01*
X127539996Y-18830412D01*
X163505150Y-18809510D01*
X163563350Y-18828384D01*
G37*
%TD.AperFunction*%
%TD*%
%TA.AperFunction,Conductor*%
%TO.N,GND*%
G36*
X183485287Y-21626965D02*
G01*
X183513428Y-21632400D01*
X183513772Y-21632400D01*
X183891702Y-21632400D01*
X183958741Y-21652085D01*
X184004496Y-21704889D01*
X184014440Y-21774047D01*
X184011477Y-21788489D01*
X184002189Y-21823155D01*
X184002189Y-21941645D01*
X184004077Y-21948691D01*
X184011477Y-21976307D01*
X184009814Y-22046156D01*
X183970651Y-22104019D01*
X183906423Y-22131523D01*
X183891702Y-22132400D01*
X183511470Y-22132400D01*
X183511469Y-22132400D01*
X183508609Y-22133282D01*
X183475392Y-22138738D01*
X183464964Y-22139016D01*
X183429659Y-22134860D01*
X183420450Y-22132400D01*
X183420448Y-22132400D01*
X183012702Y-22132400D01*
X182945663Y-22112715D01*
X182899908Y-22059911D01*
X182889964Y-21990753D01*
X182892927Y-21976307D01*
X182902215Y-21941645D01*
X182902215Y-21823155D01*
X182892927Y-21788492D01*
X182894590Y-21718644D01*
X182933753Y-21660781D01*
X182997981Y-21633277D01*
X183012702Y-21632400D01*
X183422754Y-21632400D01*
X183422756Y-21632400D01*
X183422757Y-21632399D01*
X183433596Y-21629632D01*
X183473103Y-21626094D01*
X183485287Y-21626965D01*
G37*
%TD.AperFunction*%
%TA.AperFunction,Conductor*%
G36*
X220748265Y-17130549D02*
G01*
X220751724Y-17130646D01*
X220755196Y-17130792D01*
X220761594Y-17131151D01*
X220794186Y-17132980D01*
X220794187Y-17132981D01*
X220794188Y-17132981D01*
X221047425Y-17147201D01*
X221054347Y-17147785D01*
X221061260Y-17148564D01*
X221068125Y-17149534D01*
X221351537Y-17197688D01*
X221358340Y-17199042D01*
X221365118Y-17200589D01*
X221371841Y-17202322D01*
X221615616Y-17272553D01*
X221648067Y-17281902D01*
X221654690Y-17284013D01*
X221661272Y-17286316D01*
X221667729Y-17288781D01*
X221933327Y-17398794D01*
X221939648Y-17401623D01*
X221945910Y-17404638D01*
X221952094Y-17407832D01*
X222203700Y-17546890D01*
X222209686Y-17550422D01*
X222215567Y-17554118D01*
X222221341Y-17557977D01*
X222455763Y-17724309D01*
X222461307Y-17728480D01*
X222466737Y-17732809D01*
X222472065Y-17737308D01*
X222577563Y-17831587D01*
X222577564Y-17831587D01*
X222686411Y-17928858D01*
X222691465Y-17933637D01*
X222696361Y-17938533D01*
X222701140Y-17943587D01*
X222892692Y-18157934D01*
X222897180Y-18163250D01*
X222901499Y-18168666D01*
X222905681Y-18174222D01*
X223072024Y-18408661D01*
X223075886Y-18414441D01*
X223079584Y-18420326D01*
X223083120Y-18426320D01*
X223222166Y-18677903D01*
X223225353Y-18684073D01*
X223228374Y-18690346D01*
X223231209Y-18696683D01*
X223327122Y-18928240D01*
X223341205Y-18962238D01*
X223343687Y-18968740D01*
X223345985Y-18975308D01*
X223348096Y-18981931D01*
X223427672Y-19258144D01*
X223429410Y-19264884D01*
X223430957Y-19271663D01*
X223432313Y-19278480D01*
X223480463Y-19561863D01*
X223481436Y-19568760D01*
X223482212Y-19575652D01*
X223482796Y-19582573D01*
X223499208Y-19874802D01*
X223499354Y-19878273D01*
X223499451Y-19881726D01*
X223499500Y-19885208D01*
X223499500Y-24835830D01*
X223499500Y-24880000D01*
X223499500Y-25050352D01*
X223535113Y-25389188D01*
X223535114Y-25389195D01*
X223535123Y-25389239D01*
X223607058Y-25727668D01*
X223609467Y-25733276D01*
X223711229Y-26046466D01*
X223711232Y-26046474D01*
X223755672Y-26146287D01*
X223849473Y-26356969D01*
X223849751Y-26357606D01*
X223849816Y-26357736D01*
X224013640Y-26641487D01*
X224016307Y-26647477D01*
X224220425Y-26928419D01*
X224220427Y-26928421D01*
X224311570Y-27029645D01*
X224448393Y-27181603D01*
X224448405Y-27181614D01*
X224568750Y-27289972D01*
X224568752Y-27289974D01*
X224699197Y-27407428D01*
X224700353Y-27408525D01*
X224701391Y-27409435D01*
X224701571Y-27409566D01*
X224701578Y-27409572D01*
X224701584Y-27409576D01*
X224701587Y-27409579D01*
X224791916Y-27475207D01*
X224977222Y-27609841D01*
X224977229Y-27609845D01*
X225271967Y-27780012D01*
X225272527Y-27780335D01*
X225274168Y-27781032D01*
X225583526Y-27918768D01*
X225583533Y-27918770D01*
X225583537Y-27918772D01*
X225896723Y-28020532D01*
X225896722Y-28020532D01*
X225908167Y-28024250D01*
X225910700Y-28024719D01*
X225953475Y-28033811D01*
X226240812Y-28094887D01*
X226579648Y-28130500D01*
X226700172Y-28130500D01*
X246705830Y-28130500D01*
X246744789Y-28130500D01*
X246748265Y-28130549D01*
X246751724Y-28130646D01*
X246755196Y-28130792D01*
X246761594Y-28131151D01*
X246794186Y-28132980D01*
X246794187Y-28132981D01*
X246794188Y-28132981D01*
X247047425Y-28147201D01*
X247054347Y-28147785D01*
X247061260Y-28148564D01*
X247068125Y-28149534D01*
X247351537Y-28197688D01*
X247358340Y-28199042D01*
X247365118Y-28200589D01*
X247371841Y-28202322D01*
X247648067Y-28281902D01*
X247654690Y-28284013D01*
X247661272Y-28286316D01*
X247667729Y-28288781D01*
X247933327Y-28398794D01*
X247939648Y-28401623D01*
X247945910Y-28404638D01*
X247952098Y-28407834D01*
X248185466Y-28536813D01*
X248203678Y-28546878D01*
X248209670Y-28550413D01*
X248215557Y-28554112D01*
X248221341Y-28557977D01*
X248455763Y-28724309D01*
X248461307Y-28728480D01*
X248466737Y-28732809D01*
X248472052Y-28737296D01*
X248661304Y-28906421D01*
X248686411Y-28928858D01*
X248691465Y-28933637D01*
X248696359Y-28938531D01*
X248701138Y-28943585D01*
X248881928Y-29145890D01*
X248892689Y-29157931D01*
X248897177Y-29163246D01*
X248901497Y-29168663D01*
X248905681Y-29174222D01*
X249072024Y-29408661D01*
X249075886Y-29414441D01*
X249079584Y-29420326D01*
X249083120Y-29426320D01*
X249222166Y-29677903D01*
X249225353Y-29684073D01*
X249228374Y-29690346D01*
X249231209Y-29696683D01*
X249341205Y-29962238D01*
X249343687Y-29968740D01*
X249345985Y-29975308D01*
X249348096Y-29981931D01*
X249427672Y-30258144D01*
X249429410Y-30264884D01*
X249430957Y-30271663D01*
X249432313Y-30278480D01*
X249480463Y-30561863D01*
X249481436Y-30568760D01*
X249482212Y-30575652D01*
X249482796Y-30582573D01*
X249499208Y-30874801D01*
X249499354Y-30878272D01*
X249499451Y-30881725D01*
X249499500Y-30885207D01*
X249499500Y-94474790D01*
X249499451Y-94478272D01*
X249499354Y-94481725D01*
X249499208Y-94485196D01*
X249482796Y-94777425D01*
X249482212Y-94784346D01*
X249481436Y-94791238D01*
X249480463Y-94798135D01*
X249432313Y-95081518D01*
X249430957Y-95088335D01*
X249429410Y-95095114D01*
X249427672Y-95101854D01*
X249348096Y-95378067D01*
X249345985Y-95384690D01*
X249343687Y-95391258D01*
X249341205Y-95397760D01*
X249231209Y-95663315D01*
X249228374Y-95669652D01*
X249225364Y-95675904D01*
X249222166Y-95682095D01*
X249083116Y-95933686D01*
X249079576Y-95939686D01*
X249075880Y-95945567D01*
X249072021Y-95951342D01*
X248905681Y-96185775D01*
X248901502Y-96191328D01*
X248897184Y-96196743D01*
X248892694Y-96202061D01*
X248701140Y-96416411D01*
X248696361Y-96421465D01*
X248691465Y-96426361D01*
X248686411Y-96431140D01*
X248472061Y-96622694D01*
X248466745Y-96627182D01*
X248461329Y-96631501D01*
X248455774Y-96635682D01*
X248250118Y-96781604D01*
X248250118Y-96781605D01*
X248221319Y-96802038D01*
X248215559Y-96805887D01*
X248209681Y-96809580D01*
X248203695Y-96813111D01*
X247952095Y-96952166D01*
X247945904Y-96955364D01*
X247939652Y-96958374D01*
X247933315Y-96961209D01*
X247667760Y-97071205D01*
X247661258Y-97073687D01*
X247654690Y-97075985D01*
X247648067Y-97078096D01*
X247371854Y-97157672D01*
X247365114Y-97159410D01*
X247358335Y-97160957D01*
X247351518Y-97162313D01*
X247068135Y-97210463D01*
X247061238Y-97211436D01*
X247054346Y-97212212D01*
X247047425Y-97212796D01*
X246755196Y-97229208D01*
X246751725Y-97229353D01*
X246748260Y-97229451D01*
X246744790Y-97229500D01*
X226794170Y-97229500D01*
X226750000Y-97229500D01*
X226579648Y-97229500D01*
X226469257Y-97241102D01*
X226249700Y-97264178D01*
X226249679Y-97264181D01*
X226240812Y-97265113D01*
X226240808Y-97265113D01*
X226240806Y-97265114D01*
X226235473Y-97266247D01*
X226235463Y-97266249D01*
X225902333Y-97337057D01*
X225896720Y-97339469D01*
X225583540Y-97441226D01*
X225273056Y-97579462D01*
X225272381Y-97579757D01*
X225272262Y-97579816D01*
X224988511Y-97743640D01*
X224982522Y-97746306D01*
X224701579Y-97950425D01*
X224448395Y-98178395D01*
X224220425Y-98431579D01*
X224016306Y-98712522D01*
X224013640Y-98718511D01*
X223849816Y-99002262D01*
X223849757Y-99002381D01*
X223849462Y-99003056D01*
X223711226Y-99313540D01*
X223609469Y-99626719D01*
X223607057Y-99632331D01*
X223556928Y-99868179D01*
X223535113Y-99970812D01*
X223507902Y-100229716D01*
X223499544Y-100309239D01*
X223499521Y-100309453D01*
X223499500Y-100309644D01*
X223499500Y-105474790D01*
X223499451Y-105478272D01*
X223499354Y-105481725D01*
X223499208Y-105485196D01*
X223482796Y-105777425D01*
X223482212Y-105784346D01*
X223481436Y-105791238D01*
X223480463Y-105798135D01*
X223432313Y-106081518D01*
X223430957Y-106088335D01*
X223429410Y-106095114D01*
X223427672Y-106101854D01*
X223348096Y-106378067D01*
X223345985Y-106384690D01*
X223343687Y-106391258D01*
X223341205Y-106397760D01*
X223231209Y-106663315D01*
X223228374Y-106669652D01*
X223225364Y-106675904D01*
X223222166Y-106682095D01*
X223083116Y-106933686D01*
X223079576Y-106939686D01*
X223075880Y-106945567D01*
X223072021Y-106951342D01*
X222905681Y-107185775D01*
X222901502Y-107191328D01*
X222897184Y-107196743D01*
X222892694Y-107202061D01*
X222701140Y-107416411D01*
X222696361Y-107421465D01*
X222691465Y-107426361D01*
X222686411Y-107431140D01*
X222472061Y-107622694D01*
X222466747Y-107627180D01*
X222466745Y-107627182D01*
X222461329Y-107631501D01*
X222455774Y-107635682D01*
X222250118Y-107781604D01*
X222250118Y-107781605D01*
X222221319Y-107802038D01*
X222215559Y-107805887D01*
X222209681Y-107809580D01*
X222203695Y-107813111D01*
X221952095Y-107952166D01*
X221945904Y-107955364D01*
X221939652Y-107958374D01*
X221933315Y-107961209D01*
X221667760Y-108071205D01*
X221661258Y-108073687D01*
X221654690Y-108075985D01*
X221648067Y-108078096D01*
X221371854Y-108157672D01*
X221365114Y-108159410D01*
X221358335Y-108160957D01*
X221351518Y-108162313D01*
X221068135Y-108210463D01*
X221061238Y-108211436D01*
X221054346Y-108212212D01*
X221047425Y-108212796D01*
X220755196Y-108229208D01*
X220751725Y-108229353D01*
X220748260Y-108229451D01*
X220744790Y-108229500D01*
X129755210Y-108229500D01*
X129751738Y-108229451D01*
X129748274Y-108229353D01*
X129744803Y-108229208D01*
X129452573Y-108212796D01*
X129445652Y-108212212D01*
X129438760Y-108211436D01*
X129431863Y-108210463D01*
X129148480Y-108162313D01*
X129141663Y-108160957D01*
X129134884Y-108159410D01*
X129128144Y-108157672D01*
X128851931Y-108078096D01*
X128845308Y-108075985D01*
X128838740Y-108073687D01*
X128832250Y-108071209D01*
X128566683Y-107961209D01*
X128560346Y-107958374D01*
X128554073Y-107955353D01*
X128547903Y-107952166D01*
X128296320Y-107813120D01*
X128290326Y-107809584D01*
X128284441Y-107805886D01*
X128278661Y-107802024D01*
X128044222Y-107635681D01*
X128038666Y-107631499D01*
X128033250Y-107627180D01*
X128027934Y-107622692D01*
X127813587Y-107431140D01*
X127808533Y-107426361D01*
X127803637Y-107421465D01*
X127798858Y-107416411D01*
X127607300Y-107202057D01*
X127602813Y-107196742D01*
X127598480Y-107191307D01*
X127594309Y-107185763D01*
X127427977Y-106951341D01*
X127424118Y-106945567D01*
X127420422Y-106939686D01*
X127416890Y-106933700D01*
X127277823Y-106682078D01*
X127274652Y-106675939D01*
X127271614Y-106669629D01*
X127268796Y-106663331D01*
X127158781Y-106397729D01*
X127156311Y-106391258D01*
X127154013Y-106384690D01*
X127151902Y-106378067D01*
X127072326Y-106101854D01*
X127070588Y-106095114D01*
X127069041Y-106088335D01*
X127067685Y-106081518D01*
X127019531Y-105798107D01*
X127018566Y-105791269D01*
X127017785Y-105784348D01*
X127017202Y-105777432D01*
X127017202Y-105777425D01*
X127000788Y-105485129D01*
X127000646Y-105481725D01*
X127000548Y-105478230D01*
X127000500Y-105474788D01*
X127000500Y-102385938D01*
X129289500Y-102385938D01*
X129289500Y-102694060D01*
X129289503Y-102694084D01*
X129329716Y-102999540D01*
X129409462Y-103297157D01*
X129527377Y-103581829D01*
X129527386Y-103581846D01*
X129619698Y-103741734D01*
X129619733Y-103741794D01*
X129620014Y-103742280D01*
X129681438Y-103848670D01*
X129681440Y-103848673D01*
X129681441Y-103848674D01*
X129687246Y-103856240D01*
X129687249Y-103856244D01*
X129869000Y-104093107D01*
X129869004Y-104093112D01*
X129869007Y-104093115D01*
X129869013Y-104093122D01*
X129869021Y-104093130D01*
X130086863Y-104310973D01*
X130086877Y-104310986D01*
X130086883Y-104310991D01*
X130331330Y-104498562D01*
X130502830Y-104597578D01*
X130598162Y-104652618D01*
X130598167Y-104652620D01*
X130598170Y-104652622D01*
X130882836Y-104770535D01*
X131180456Y-104850282D01*
X131485940Y-104890500D01*
X131485947Y-104890500D01*
X131794053Y-104890500D01*
X131794060Y-104890500D01*
X132099544Y-104850282D01*
X132397164Y-104770535D01*
X132681830Y-104652622D01*
X132948670Y-104498562D01*
X133193117Y-104310991D01*
X133410991Y-104093117D01*
X133598562Y-103848670D01*
X133752622Y-103581830D01*
X133870535Y-103297164D01*
X133950282Y-102999544D01*
X133990500Y-102694060D01*
X133990500Y-102385940D01*
X133990500Y-102385938D01*
X187289500Y-102385938D01*
X187289500Y-102694060D01*
X187289503Y-102694084D01*
X187329716Y-102999540D01*
X187409462Y-103297157D01*
X187527377Y-103581829D01*
X187527386Y-103581846D01*
X187619698Y-103741734D01*
X187619733Y-103741794D01*
X187620014Y-103742280D01*
X187681438Y-103848670D01*
X187681440Y-103848673D01*
X187681441Y-103848674D01*
X187687246Y-103856240D01*
X187687249Y-103856244D01*
X187869000Y-104093107D01*
X187869004Y-104093112D01*
X187869007Y-104093115D01*
X187869013Y-104093122D01*
X187869021Y-104093130D01*
X188086863Y-104310973D01*
X188086877Y-104310986D01*
X188086883Y-104310991D01*
X188331330Y-104498562D01*
X188502830Y-104597578D01*
X188598162Y-104652618D01*
X188598167Y-104652620D01*
X188598170Y-104652622D01*
X188882836Y-104770535D01*
X189180456Y-104850282D01*
X189485940Y-104890500D01*
X189485947Y-104890500D01*
X189794053Y-104890500D01*
X189794060Y-104890500D01*
X190099544Y-104850282D01*
X190397164Y-104770535D01*
X190681830Y-104652622D01*
X190948670Y-104498562D01*
X191193117Y-104310991D01*
X191410991Y-104093117D01*
X191598562Y-103848670D01*
X191752622Y-103581830D01*
X191870535Y-103297164D01*
X191950282Y-102999544D01*
X191990500Y-102694060D01*
X191990500Y-102385940D01*
X191950282Y-102080456D01*
X191870535Y-101782836D01*
X191752622Y-101498170D01*
X191752620Y-101498167D01*
X191752618Y-101498162D01*
X191752614Y-101498156D01*
X191752501Y-101497882D01*
X191751712Y-101496460D01*
X191750632Y-101494722D01*
X191697578Y-101402830D01*
X191598566Y-101231337D01*
X191598563Y-101231332D01*
X191598562Y-101231330D01*
X191410991Y-100986883D01*
X191410986Y-100986877D01*
X191410985Y-100986876D01*
X191410973Y-100986863D01*
X191193130Y-100769021D01*
X191193122Y-100769013D01*
X191193115Y-100769007D01*
X191193112Y-100769004D01*
X191193107Y-100769000D01*
X190956244Y-100587249D01*
X190956240Y-100587246D01*
X190948674Y-100581441D01*
X190948673Y-100581440D01*
X190948670Y-100581438D01*
X190842280Y-100520014D01*
X190841794Y-100519733D01*
X190841734Y-100519698D01*
X190681846Y-100427386D01*
X190681829Y-100427377D01*
X190397616Y-100309652D01*
X190397162Y-100309464D01*
X190397161Y-100309463D01*
X190397157Y-100309462D01*
X190099540Y-100229716D01*
X189795938Y-100189747D01*
X189794257Y-100189500D01*
X189794066Y-100189500D01*
X189794060Y-100189500D01*
X189485940Y-100189500D01*
X189485934Y-100189500D01*
X189485932Y-100189500D01*
X189479812Y-100190253D01*
X189478906Y-100190425D01*
X189180458Y-100229716D01*
X188882841Y-100309462D01*
X188598166Y-100427378D01*
X188331332Y-100581436D01*
X188331316Y-100581447D01*
X188086891Y-100769000D01*
X188086876Y-100769014D01*
X188086868Y-100769021D01*
X187869021Y-100986868D01*
X187869014Y-100986876D01*
X187869000Y-100986891D01*
X187681447Y-101231316D01*
X187681436Y-101231332D01*
X187527378Y-101498166D01*
X187409462Y-101782841D01*
X187329716Y-102080458D01*
X187289503Y-102385914D01*
X187289500Y-102385938D01*
X133990500Y-102385938D01*
X133950282Y-102080456D01*
X133870535Y-101782836D01*
X133752622Y-101498170D01*
X133752620Y-101498167D01*
X133752618Y-101498162D01*
X133752614Y-101498156D01*
X133752501Y-101497882D01*
X133751712Y-101496460D01*
X133750632Y-101494722D01*
X133697578Y-101402830D01*
X133598566Y-101231337D01*
X133598563Y-101231332D01*
X133598562Y-101231330D01*
X133410991Y-100986883D01*
X133410986Y-100986877D01*
X133410985Y-100986876D01*
X133410973Y-100986863D01*
X133193130Y-100769021D01*
X133193122Y-100769013D01*
X133193115Y-100769007D01*
X133193112Y-100769004D01*
X133193107Y-100769000D01*
X132956244Y-100587249D01*
X132956240Y-100587246D01*
X132948674Y-100581441D01*
X132948673Y-100581440D01*
X132948670Y-100581438D01*
X132842280Y-100520014D01*
X132841794Y-100519733D01*
X132841734Y-100519698D01*
X132681846Y-100427386D01*
X132681829Y-100427377D01*
X132397616Y-100309652D01*
X132397162Y-100309464D01*
X132397161Y-100309463D01*
X132397157Y-100309462D01*
X132099540Y-100229716D01*
X131795938Y-100189747D01*
X131794257Y-100189500D01*
X131794066Y-100189500D01*
X131794060Y-100189500D01*
X131485940Y-100189500D01*
X131485934Y-100189500D01*
X131485932Y-100189500D01*
X131479812Y-100190253D01*
X131478906Y-100190425D01*
X131180458Y-100229716D01*
X130882841Y-100309462D01*
X130598166Y-100427378D01*
X130331332Y-100581436D01*
X130331316Y-100581447D01*
X130086891Y-100769000D01*
X130086876Y-100769014D01*
X130086868Y-100769021D01*
X129869021Y-100986868D01*
X129869014Y-100986876D01*
X129869000Y-100986891D01*
X129681447Y-101231316D01*
X129681436Y-101231332D01*
X129527378Y-101498166D01*
X129409462Y-101782841D01*
X129329716Y-102080458D01*
X129289503Y-102385914D01*
X129289500Y-102385938D01*
X127000500Y-102385938D01*
X127000500Y-73456089D01*
X127005523Y-73421153D01*
X127009927Y-73406155D01*
X127047688Y-73347390D01*
X127047691Y-73347386D01*
X127049219Y-73346063D01*
X127103683Y-73318684D01*
X127110878Y-73317094D01*
X127136824Y-73314178D01*
X136795366Y-73251752D01*
X136690003Y-57190457D01*
X136690001Y-57190001D01*
X136689999Y-57189996D01*
X135074332Y-55310973D01*
X134770433Y-54957539D01*
X134751469Y-54927781D01*
X134739785Y-54901935D01*
X134728778Y-54851431D01*
X134728765Y-54848674D01*
X134722026Y-53385938D01*
X187289500Y-53385938D01*
X187289500Y-53694060D01*
X187289503Y-53694084D01*
X187329716Y-53999540D01*
X187409462Y-54297157D01*
X187527377Y-54581829D01*
X187527386Y-54581846D01*
X187619698Y-54741734D01*
X187619733Y-54741794D01*
X187620014Y-54742280D01*
X187681438Y-54848670D01*
X187681440Y-54848673D01*
X187681441Y-54848674D01*
X187687246Y-54856240D01*
X187687249Y-54856244D01*
X187869000Y-55093107D01*
X187869004Y-55093112D01*
X187869007Y-55093115D01*
X187869013Y-55093122D01*
X187869021Y-55093130D01*
X188086863Y-55310973D01*
X188086877Y-55310986D01*
X188086883Y-55310991D01*
X188331330Y-55498562D01*
X188502830Y-55597578D01*
X188598162Y-55652618D01*
X188598167Y-55652620D01*
X188598170Y-55652622D01*
X188882836Y-55770535D01*
X189180456Y-55850282D01*
X189485940Y-55890500D01*
X189485947Y-55890500D01*
X189794053Y-55890500D01*
X189794060Y-55890500D01*
X190099544Y-55850282D01*
X190397164Y-55770535D01*
X190681830Y-55652622D01*
X190948670Y-55498562D01*
X191193117Y-55310991D01*
X191410991Y-55093117D01*
X191598562Y-54848670D01*
X191752622Y-54581830D01*
X191870535Y-54297164D01*
X191950282Y-53999544D01*
X191990500Y-53694060D01*
X191990500Y-53385940D01*
X191950282Y-53080456D01*
X191870535Y-52782836D01*
X191752622Y-52498170D01*
X191752620Y-52498167D01*
X191752618Y-52498162D01*
X191752614Y-52498156D01*
X191752501Y-52497882D01*
X191751712Y-52496460D01*
X191750632Y-52494722D01*
X191697578Y-52402830D01*
X191598566Y-52231337D01*
X191598563Y-52231332D01*
X191598562Y-52231330D01*
X191410991Y-51986883D01*
X191410986Y-51986877D01*
X191410985Y-51986876D01*
X191410973Y-51986863D01*
X191193130Y-51769021D01*
X191193122Y-51769013D01*
X191193115Y-51769007D01*
X191193112Y-51769004D01*
X191193107Y-51769000D01*
X190956244Y-51587249D01*
X190956240Y-51587246D01*
X190948674Y-51581441D01*
X190948673Y-51581440D01*
X190948670Y-51581438D01*
X190842280Y-51520014D01*
X190841794Y-51519733D01*
X190841734Y-51519698D01*
X190681846Y-51427386D01*
X190681829Y-51427377D01*
X190397157Y-51309462D01*
X190099540Y-51229716D01*
X189795938Y-51189747D01*
X189794257Y-51189500D01*
X189794066Y-51189500D01*
X189794060Y-51189500D01*
X189485940Y-51189500D01*
X189485934Y-51189500D01*
X189485932Y-51189500D01*
X189479812Y-51190253D01*
X189478906Y-51190425D01*
X189180458Y-51229716D01*
X188882841Y-51309462D01*
X188598166Y-51427378D01*
X188331332Y-51581436D01*
X188331316Y-51581447D01*
X188086891Y-51769000D01*
X188086876Y-51769014D01*
X188086868Y-51769021D01*
X187869021Y-51986868D01*
X187869014Y-51986876D01*
X187869000Y-51986891D01*
X187681447Y-52231316D01*
X187681436Y-52231332D01*
X187527378Y-52498166D01*
X187409462Y-52782841D01*
X187329716Y-53080458D01*
X187289503Y-53385914D01*
X187289500Y-53385938D01*
X134722026Y-53385938D01*
X134696660Y-47880247D01*
X182969500Y-47880247D01*
X182969500Y-49319752D01*
X182981131Y-49378229D01*
X182981132Y-49378230D01*
X182981132Y-49378231D01*
X182981134Y-49378233D01*
X183025447Y-49444552D01*
X183091765Y-49488864D01*
X183091767Y-49488866D01*
X183091770Y-49488868D01*
X183142612Y-49498981D01*
X183145337Y-49499703D01*
X183150249Y-49500500D01*
X184589750Y-49500500D01*
X184593873Y-49500500D01*
X184601732Y-49498116D01*
X184621381Y-49494208D01*
X184636258Y-49491249D01*
X184642354Y-49490648D01*
X184642386Y-49490639D01*
X184653311Y-49487902D01*
X184663515Y-49478654D01*
X184714552Y-49444552D01*
X184758867Y-49378231D01*
X184758867Y-49378229D01*
X184758868Y-49378229D01*
X184761030Y-49367355D01*
X184761166Y-49367090D01*
X184761249Y-49366256D01*
X184770068Y-49321917D01*
X184770500Y-49319931D01*
X184770500Y-48939909D01*
X184771100Y-48937864D01*
X184770568Y-48935801D01*
X184775521Y-48904982D01*
X184778055Y-48896350D01*
X184787696Y-48881345D01*
X184790185Y-48872870D01*
X184800642Y-48861196D01*
X184815825Y-48837569D01*
X184879379Y-48808540D01*
X184948538Y-48818479D01*
X184997608Y-48858745D01*
X185000605Y-48862902D01*
X185004659Y-48870170D01*
X185006508Y-48871883D01*
X185007277Y-48874864D01*
X185014590Y-48887978D01*
X185071983Y-49026541D01*
X185071990Y-49026553D01*
X185137388Y-49124427D01*
X185170536Y-49174036D01*
X185170537Y-49174037D01*
X185170542Y-49174043D01*
X185295955Y-49299456D01*
X185295961Y-49299461D01*
X185295965Y-49299464D01*
X185443446Y-49398009D01*
X185443459Y-49398016D01*
X185555809Y-49444552D01*
X185607334Y-49465894D01*
X185607336Y-49465894D01*
X185607341Y-49465896D01*
X185773680Y-49498982D01*
X185776403Y-49499704D01*
X185781306Y-49500500D01*
X185958693Y-49500500D01*
X185962815Y-49500500D01*
X185970659Y-49498119D01*
X185970657Y-49498119D01*
X186017174Y-49488867D01*
X186132658Y-49465896D01*
X186132660Y-49465894D01*
X186132662Y-49465894D01*
X186132666Y-49465894D01*
X186135854Y-49464573D01*
X186143835Y-49461273D01*
X186143876Y-49461251D01*
X186296540Y-49398016D01*
X186296540Y-49398015D01*
X186296547Y-49398013D01*
X186444035Y-49299464D01*
X186569464Y-49174035D01*
X186668013Y-49026547D01*
X186735894Y-48862666D01*
X186736187Y-48861196D01*
X186770499Y-48688695D01*
X186770500Y-48688693D01*
X186770500Y-48511125D01*
X186770074Y-48509169D01*
X186735896Y-48337341D01*
X186735893Y-48337332D01*
X186725701Y-48312727D01*
X186668021Y-48173472D01*
X186668018Y-48173465D01*
X186668016Y-48173459D01*
X186668009Y-48173446D01*
X186569464Y-48025965D01*
X186569461Y-48025961D01*
X186569456Y-48025955D01*
X186444043Y-47900542D01*
X186444037Y-47900537D01*
X186444036Y-47900536D01*
X186296559Y-47801994D01*
X186296558Y-47801993D01*
X186296553Y-47801990D01*
X186296540Y-47801983D01*
X186282371Y-47796114D01*
X186132676Y-47734109D01*
X186132653Y-47734101D01*
X186132646Y-47734099D01*
X185958698Y-47699500D01*
X185958694Y-47699500D01*
X185958691Y-47699500D01*
X185781309Y-47699500D01*
X185781306Y-47699500D01*
X185781301Y-47699500D01*
X185607352Y-47734100D01*
X185607345Y-47734101D01*
X185607322Y-47734109D01*
X185443472Y-47801977D01*
X185443454Y-47801985D01*
X185443439Y-47801994D01*
X185295962Y-47900536D01*
X185295961Y-47900537D01*
X185295955Y-47900542D01*
X185170542Y-48025955D01*
X185170537Y-48025961D01*
X185170536Y-48025962D01*
X185071994Y-48173439D01*
X185071985Y-48173454D01*
X185071980Y-48173465D01*
X185015882Y-48308900D01*
X185014524Y-48310584D01*
X185014221Y-48312727D01*
X184997880Y-48339243D01*
X184992237Y-48346247D01*
X184977586Y-48356420D01*
X184972041Y-48363303D01*
X184957930Y-48370071D01*
X184934849Y-48386101D01*
X184865024Y-48388602D01*
X184804932Y-48352956D01*
X184775000Y-48296962D01*
X184773822Y-48291976D01*
X184772852Y-48283658D01*
X184771799Y-48281363D01*
X184772230Y-48278317D01*
X184770500Y-48263465D01*
X184770500Y-47880063D01*
X184770069Y-47878081D01*
X184758868Y-47821770D01*
X184755975Y-47816358D01*
X184752081Y-47811613D01*
X184741725Y-47796114D01*
X184714552Y-47755447D01*
X184678146Y-47731121D01*
X184658385Y-47717917D01*
X184653641Y-47714024D01*
X184648230Y-47711132D01*
X184648229Y-47711131D01*
X184589752Y-47699500D01*
X184589750Y-47699500D01*
X183150249Y-47699500D01*
X183150247Y-47699500D01*
X183091770Y-47711131D01*
X183091769Y-47711131D01*
X183091768Y-47711132D01*
X183086355Y-47714024D01*
X183081614Y-47717916D01*
X183025447Y-47755446D01*
X183025446Y-47755447D01*
X182998272Y-47796114D01*
X182998270Y-47796119D01*
X182981132Y-47821769D01*
X182981131Y-47821770D01*
X182969500Y-47880247D01*
X134696660Y-47880247D01*
X134691844Y-46834847D01*
X134696706Y-46799891D01*
X134701041Y-46784873D01*
X134738540Y-46725927D01*
X134739892Y-46724744D01*
X134794660Y-46697034D01*
X134802278Y-46695345D01*
X134828675Y-46692405D01*
X166010726Y-46580871D01*
X166005157Y-43522269D01*
X180354500Y-43522269D01*
X180354500Y-43529203D01*
X180354500Y-45497729D01*
X180381791Y-45599586D01*
X180381793Y-45599589D01*
X180408156Y-45645250D01*
X180434520Y-45690913D01*
X180434521Y-45690914D01*
X180434522Y-45690915D01*
X180919125Y-46175517D01*
X180919146Y-46175539D01*
X180920189Y-46176582D01*
X180924519Y-46180912D01*
X180924520Y-46180913D01*
X180999087Y-46255480D01*
X181090413Y-46308207D01*
X181192273Y-46335501D01*
X181192275Y-46335501D01*
X181305323Y-46335501D01*
X181307227Y-46335501D01*
X181307290Y-46335500D01*
X189567725Y-46335500D01*
X189567727Y-46335500D01*
X189669588Y-46308207D01*
X189760913Y-46255480D01*
X190940858Y-45075532D01*
X190966531Y-45055832D01*
X190993853Y-45040059D01*
X191023753Y-45027675D01*
X191065320Y-45016538D01*
X191087419Y-45010617D01*
X191094303Y-45008772D01*
X191103183Y-45006393D01*
X191103183Y-45006392D01*
X191103184Y-45006392D01*
X191103186Y-45006392D01*
X191217314Y-44940500D01*
X191310500Y-44847314D01*
X191376392Y-44733186D01*
X191410500Y-44605892D01*
X191410500Y-44474108D01*
X191376392Y-44346814D01*
X191310500Y-44232686D01*
X191217314Y-44139500D01*
X191160250Y-44106554D01*
X191103187Y-44073608D01*
X191039539Y-44056554D01*
X190975892Y-44039500D01*
X190975891Y-44039500D01*
X190844108Y-44039500D01*
X190716808Y-44073609D01*
X190716806Y-44073610D01*
X190602696Y-44139493D01*
X190602682Y-44139502D01*
X190602677Y-44139506D01*
X190509506Y-44232677D01*
X190509503Y-44232681D01*
X190443606Y-44346816D01*
X190443606Y-44346818D01*
X190443605Y-44346817D01*
X190422322Y-44426245D01*
X190409935Y-44456151D01*
X190394165Y-44483465D01*
X190374459Y-44509145D01*
X189398033Y-45485573D01*
X189369782Y-45506722D01*
X189346694Y-45519330D01*
X189287264Y-45534500D01*
X181880506Y-45534500D01*
X181845571Y-45529477D01*
X181834717Y-45526290D01*
X181775939Y-45488516D01*
X181746914Y-45424960D01*
X181756854Y-45355811D01*
X181760044Y-45348824D01*
X181785154Y-45312659D01*
X181830500Y-45267314D01*
X181896392Y-45153186D01*
X181911285Y-45097605D01*
X181917676Y-45073750D01*
X181930059Y-45043853D01*
X181945832Y-45016531D01*
X181965532Y-44990858D01*
X185376969Y-41579423D01*
X185405219Y-41558275D01*
X185428311Y-41545667D01*
X185487736Y-41530500D01*
X186642725Y-41530500D01*
X186642727Y-41530500D01*
X186744588Y-41503207D01*
X186835913Y-41450480D01*
X187470862Y-40815528D01*
X187496533Y-40795831D01*
X187523845Y-40780062D01*
X187553751Y-40767676D01*
X187633183Y-40746393D01*
X187633183Y-40746392D01*
X187633186Y-40746392D01*
X187747314Y-40680500D01*
X187840500Y-40587314D01*
X187906392Y-40473186D01*
X187940500Y-40345892D01*
X187940500Y-40214108D01*
X187906392Y-40086814D01*
X187906387Y-40086806D01*
X187897563Y-40071521D01*
X187840500Y-39972686D01*
X187747314Y-39879500D01*
X187671402Y-39835672D01*
X187671402Y-39835671D01*
X187671398Y-39835670D01*
X187660045Y-39829115D01*
X187633190Y-39813609D01*
X187633187Y-39813608D01*
X187569539Y-39796554D01*
X187505892Y-39779500D01*
X187505891Y-39779500D01*
X187374108Y-39779500D01*
X187246808Y-39813609D01*
X187246806Y-39813610D01*
X187132696Y-39879493D01*
X187132682Y-39879502D01*
X187132677Y-39879506D01*
X187039506Y-39972677D01*
X187039502Y-39972682D01*
X187039493Y-39972696D01*
X186973610Y-40086806D01*
X186973609Y-40086807D01*
X186952324Y-40166247D01*
X186939934Y-40196156D01*
X186924166Y-40223465D01*
X186904462Y-40249143D01*
X186473033Y-40680573D01*
X186444782Y-40701722D01*
X186421694Y-40714330D01*
X186362264Y-40729500D01*
X185207271Y-40729500D01*
X185105411Y-40756792D01*
X185105408Y-40756793D01*
X185014097Y-40809513D01*
X185014083Y-40809522D01*
X185014078Y-40809526D01*
X181399145Y-44424459D01*
X181382638Y-44438317D01*
X181378169Y-44441449D01*
X181373713Y-44444022D01*
X181372332Y-44445540D01*
X181365042Y-44450651D01*
X181335712Y-44460558D01*
X181307114Y-44472402D01*
X181299743Y-44472709D01*
X181298847Y-44473012D01*
X181297938Y-44472784D01*
X181290921Y-44473077D01*
X181279899Y-44472815D01*
X181213347Y-44451543D01*
X181168860Y-44397667D01*
X181165506Y-44389834D01*
X181155500Y-44341034D01*
X181155500Y-43810082D01*
X181160522Y-43775149D01*
X181167934Y-43749904D01*
X181199228Y-43697162D01*
X181478469Y-43417920D01*
X181478476Y-43417916D01*
X181495912Y-43400480D01*
X181495913Y-43400480D01*
X181570480Y-43325913D01*
X181623207Y-43234587D01*
X181627054Y-43220229D01*
X181637565Y-43181006D01*
X181638089Y-43179048D01*
X181643433Y-43159107D01*
X181643433Y-43159106D01*
X181650500Y-43132729D01*
X181650501Y-43132726D01*
X181650501Y-43017994D01*
X181650500Y-43017920D01*
X181650500Y-42871863D01*
X181654723Y-42839776D01*
X181662887Y-42809304D01*
X181675275Y-42779402D01*
X181704609Y-42728593D01*
X181716392Y-42708186D01*
X181750500Y-42580892D01*
X181750500Y-42449108D01*
X181716392Y-42321814D01*
X181650500Y-42207686D01*
X181557314Y-42114500D01*
X181495596Y-42078867D01*
X181443187Y-42048608D01*
X181379539Y-42031554D01*
X181315892Y-42014500D01*
X181315891Y-42014500D01*
X181184108Y-42014500D01*
X181056808Y-42048609D01*
X181056806Y-42048610D01*
X180942696Y-42114493D01*
X180942682Y-42114502D01*
X180942677Y-42114506D01*
X180849506Y-42207677D01*
X180849502Y-42207682D01*
X180849493Y-42207696D01*
X180783607Y-42321810D01*
X180773242Y-42360499D01*
X180773242Y-42360500D01*
X180749500Y-42449108D01*
X180749500Y-42580891D01*
X180783608Y-42708185D01*
X180783611Y-42708192D01*
X180824724Y-42779403D01*
X180834913Y-42802009D01*
X180836128Y-42805637D01*
X180837037Y-42809027D01*
X180837511Y-42809766D01*
X180839813Y-42816634D01*
X180840920Y-42845996D01*
X180844756Y-42875134D01*
X180842413Y-42885599D01*
X180842446Y-42886454D01*
X180842086Y-42887063D01*
X180841213Y-42890965D01*
X180837064Y-42905094D01*
X180805769Y-42957837D01*
X180434524Y-43329080D01*
X180434523Y-43329082D01*
X180434513Y-43329097D01*
X180381798Y-43420399D01*
X180381788Y-43420420D01*
X180381735Y-43420525D01*
X180381310Y-43422212D01*
X180375939Y-43442253D01*
X180375919Y-43442331D01*
X180371393Y-43459225D01*
X180371392Y-43459226D01*
X180354500Y-43522269D01*
X166005157Y-43522269D01*
X165999600Y-40470247D01*
X175779500Y-40470247D01*
X175779500Y-41909752D01*
X175791131Y-41968229D01*
X175791132Y-41968230D01*
X175791132Y-41968231D01*
X175791134Y-41968233D01*
X175835447Y-42034552D01*
X175901765Y-42078864D01*
X175901767Y-42078866D01*
X175901770Y-42078868D01*
X175952612Y-42088981D01*
X175955337Y-42089703D01*
X175960249Y-42090500D01*
X177399750Y-42090500D01*
X177403873Y-42090500D01*
X177411732Y-42088116D01*
X177431381Y-42084208D01*
X177446258Y-42081249D01*
X177452354Y-42080648D01*
X177452386Y-42080639D01*
X177463311Y-42077902D01*
X177473515Y-42068654D01*
X177524552Y-42034552D01*
X177568867Y-41968231D01*
X177568867Y-41968229D01*
X177568868Y-41968229D01*
X177571030Y-41957355D01*
X177571166Y-41957090D01*
X177571249Y-41956256D01*
X177580068Y-41911917D01*
X177580500Y-41909931D01*
X177580500Y-41529909D01*
X177581100Y-41527864D01*
X177580568Y-41525801D01*
X177585521Y-41494982D01*
X177588055Y-41486350D01*
X177597696Y-41471345D01*
X177600185Y-41462870D01*
X177610642Y-41451196D01*
X177625825Y-41427569D01*
X177689379Y-41398540D01*
X177758538Y-41408479D01*
X177807608Y-41448745D01*
X177810605Y-41452902D01*
X177814659Y-41460170D01*
X177816508Y-41461883D01*
X177817277Y-41464864D01*
X177824590Y-41477978D01*
X177881983Y-41616541D01*
X177881990Y-41616553D01*
X177947388Y-41714427D01*
X177980536Y-41764036D01*
X177980537Y-41764037D01*
X177980542Y-41764043D01*
X178105955Y-41889456D01*
X178105961Y-41889461D01*
X178105965Y-41889464D01*
X178253446Y-41988009D01*
X178253459Y-41988016D01*
X178365809Y-42034552D01*
X178417334Y-42055894D01*
X178417336Y-42055894D01*
X178417341Y-42055896D01*
X178583680Y-42088982D01*
X178586403Y-42089704D01*
X178591306Y-42090500D01*
X178768693Y-42090500D01*
X178772815Y-42090500D01*
X178780659Y-42088119D01*
X178780657Y-42088119D01*
X178827174Y-42078867D01*
X178942658Y-42055896D01*
X178942660Y-42055894D01*
X178942662Y-42055894D01*
X178942666Y-42055894D01*
X178945854Y-42054573D01*
X178953835Y-42051273D01*
X178953876Y-42051251D01*
X179106540Y-41988016D01*
X179106540Y-41988015D01*
X179106547Y-41988013D01*
X179254035Y-41889464D01*
X179379464Y-41764035D01*
X179478013Y-41616547D01*
X179478018Y-41616535D01*
X179480409Y-41610765D01*
X179493732Y-41578597D01*
X179503873Y-41554114D01*
X179545894Y-41452666D01*
X179546330Y-41450477D01*
X179580499Y-41278695D01*
X179580500Y-41278693D01*
X179580500Y-41101306D01*
X179580499Y-41101304D01*
X179545896Y-40927341D01*
X179545893Y-40927332D01*
X179535701Y-40902727D01*
X179497097Y-40809526D01*
X179478016Y-40763459D01*
X179478009Y-40763446D01*
X179379464Y-40615965D01*
X179379461Y-40615961D01*
X179379456Y-40615955D01*
X179254043Y-40490542D01*
X179254037Y-40490537D01*
X179254036Y-40490536D01*
X179106559Y-40391994D01*
X179106558Y-40391993D01*
X179106553Y-40391990D01*
X179106540Y-40391983D01*
X179092371Y-40386114D01*
X178942676Y-40324109D01*
X178942653Y-40324101D01*
X178942646Y-40324099D01*
X178768698Y-40289500D01*
X178768694Y-40289500D01*
X178768691Y-40289500D01*
X178591309Y-40289500D01*
X178591306Y-40289500D01*
X178591301Y-40289500D01*
X178417352Y-40324100D01*
X178417345Y-40324101D01*
X178417322Y-40324109D01*
X178253472Y-40391977D01*
X178253454Y-40391985D01*
X178253439Y-40391994D01*
X178105962Y-40490536D01*
X178105961Y-40490537D01*
X178105955Y-40490542D01*
X177980542Y-40615955D01*
X177980537Y-40615961D01*
X177980536Y-40615962D01*
X177881994Y-40763439D01*
X177881985Y-40763454D01*
X177881980Y-40763465D01*
X177825882Y-40898900D01*
X177824524Y-40900584D01*
X177824221Y-40902727D01*
X177807880Y-40929243D01*
X177802237Y-40936247D01*
X177787586Y-40946420D01*
X177782041Y-40953303D01*
X177767930Y-40960071D01*
X177744849Y-40976101D01*
X177675024Y-40978602D01*
X177614932Y-40942956D01*
X177585000Y-40886962D01*
X177583822Y-40881976D01*
X177582852Y-40873658D01*
X177581799Y-40871363D01*
X177582230Y-40868317D01*
X177580500Y-40853465D01*
X177580500Y-40470063D01*
X177580069Y-40468081D01*
X177568868Y-40411770D01*
X177565975Y-40406358D01*
X177562081Y-40401613D01*
X177551725Y-40386114D01*
X177524552Y-40345447D01*
X177488146Y-40321121D01*
X177468385Y-40307917D01*
X177463641Y-40304024D01*
X177458230Y-40301132D01*
X177458229Y-40301131D01*
X177399752Y-40289500D01*
X177399750Y-40289500D01*
X175960249Y-40289500D01*
X175960247Y-40289500D01*
X175901770Y-40301131D01*
X175901769Y-40301131D01*
X175901768Y-40301132D01*
X175896355Y-40304024D01*
X175891614Y-40307916D01*
X175835447Y-40345446D01*
X175835446Y-40345447D01*
X175808272Y-40386114D01*
X175808270Y-40386119D01*
X175791132Y-40411769D01*
X175791131Y-40411770D01*
X175779500Y-40470247D01*
X165999600Y-40470247D01*
X165966776Y-22442899D01*
X165964436Y-21157771D01*
X181502202Y-21157771D01*
X181502202Y-21632400D01*
X181891702Y-21632400D01*
X181958741Y-21652085D01*
X182004496Y-21704889D01*
X182014440Y-21774047D01*
X182011477Y-21788489D01*
X182002189Y-21823155D01*
X182002189Y-21941645D01*
X182004077Y-21948691D01*
X182011477Y-21976307D01*
X182009814Y-22046156D01*
X181970651Y-22104019D01*
X181906423Y-22131523D01*
X181891702Y-22132400D01*
X181502202Y-22132400D01*
X181502202Y-22607029D01*
X181508408Y-22638229D01*
X181512344Y-22658018D01*
X181516705Y-22679939D01*
X181516706Y-22679943D01*
X181535041Y-22707383D01*
X181571962Y-22762639D01*
X181654657Y-22817894D01*
X181654661Y-22817896D01*
X181719933Y-22830879D01*
X181722667Y-22831603D01*
X181727575Y-22832400D01*
X181727576Y-22832400D01*
X182202202Y-22832400D01*
X182202202Y-22442899D01*
X182221887Y-22375860D01*
X182274691Y-22330105D01*
X182343849Y-22320161D01*
X182358281Y-22323121D01*
X182392957Y-22332413D01*
X182511445Y-22332413D01*
X182511447Y-22332413D01*
X182546109Y-22323125D01*
X182615956Y-22324786D01*
X182673819Y-22363947D01*
X182701325Y-22428175D01*
X182702202Y-22442899D01*
X182702202Y-22832400D01*
X183176828Y-22832400D01*
X183177009Y-22832400D01*
X183179006Y-22831966D01*
X183249742Y-22817896D01*
X183249746Y-22817894D01*
X183332441Y-22762639D01*
X183387696Y-22679944D01*
X183387698Y-22679940D01*
X183402201Y-22607028D01*
X183402202Y-22607026D01*
X183402202Y-22446563D01*
X183402216Y-22445641D01*
X183402693Y-22444101D01*
X183407223Y-22412594D01*
X183410409Y-22401741D01*
X183420893Y-22385423D01*
X183422915Y-22378907D01*
X183427623Y-22374950D01*
X183448179Y-22342960D01*
X183511733Y-22313931D01*
X183580888Y-22323869D01*
X183583020Y-22324842D01*
X183634612Y-22368746D01*
X183714289Y-22487992D01*
X183846602Y-22620305D01*
X183846608Y-22620310D01*
X183846612Y-22620313D01*
X184002201Y-22724275D01*
X184002214Y-22724282D01*
X184002216Y-22724282D01*
X184002220Y-22724285D01*
X184175079Y-22795884D01*
X184175085Y-22795887D01*
X184175087Y-22795887D01*
X184175091Y-22795889D01*
X184175098Y-22795891D01*
X184202202Y-22801282D01*
X184202202Y-22801281D01*
X184202202Y-22442899D01*
X184221887Y-22375860D01*
X184274691Y-22330105D01*
X184343849Y-22320161D01*
X184358281Y-22323121D01*
X184392957Y-22332413D01*
X184511445Y-22332413D01*
X184511447Y-22332413D01*
X184546109Y-22323125D01*
X184615956Y-22324786D01*
X184673819Y-22363947D01*
X184701325Y-22428175D01*
X184702202Y-22442899D01*
X184702202Y-22801279D01*
X184702202Y-22801281D01*
X184729305Y-22795891D01*
X184729312Y-22795889D01*
X184895509Y-22727049D01*
X184902182Y-22724285D01*
X184902182Y-22724284D01*
X184902189Y-22724282D01*
X184902202Y-22724275D01*
X185057791Y-22620313D01*
X185057795Y-22620310D01*
X185190112Y-22487993D01*
X185190115Y-22487989D01*
X185294077Y-22332400D01*
X185294082Y-22332391D01*
X185294085Y-22332385D01*
X185356342Y-22182080D01*
X185365694Y-22159503D01*
X185365695Y-22159500D01*
X185371086Y-22132400D01*
X185012702Y-22132400D01*
X184945663Y-22112715D01*
X184899908Y-22059911D01*
X184889964Y-21990753D01*
X184892927Y-21976307D01*
X184902215Y-21941645D01*
X184902215Y-21823155D01*
X184892927Y-21788492D01*
X184894590Y-21718644D01*
X184933753Y-21660781D01*
X184997981Y-21633277D01*
X185012702Y-21632400D01*
X185371086Y-21632400D01*
X185371086Y-21632399D01*
X185370623Y-21630071D01*
X185365695Y-21605299D01*
X185365694Y-21605296D01*
X185362391Y-21597322D01*
X185294085Y-21432413D01*
X185294080Y-21432403D01*
X185190113Y-21276807D01*
X185190112Y-21276806D01*
X185190107Y-21276800D01*
X185057800Y-21144493D01*
X185057794Y-21144488D01*
X185057793Y-21144487D01*
X185051447Y-21140247D01*
X190849500Y-21140247D01*
X190849500Y-22579752D01*
X190861131Y-22638229D01*
X190861132Y-22638230D01*
X190861132Y-22638231D01*
X190861134Y-22638233D01*
X190905447Y-22704552D01*
X190971765Y-22748864D01*
X190971767Y-22748866D01*
X190971770Y-22748868D01*
X191022612Y-22758981D01*
X191025337Y-22759703D01*
X191030249Y-22760500D01*
X192469750Y-22760500D01*
X192473873Y-22760500D01*
X192481732Y-22758116D01*
X192502412Y-22754003D01*
X192516258Y-22751249D01*
X192522354Y-22750648D01*
X192522386Y-22750639D01*
X192533311Y-22747902D01*
X192543515Y-22738654D01*
X192594552Y-22704552D01*
X192638867Y-22638231D01*
X192638867Y-22638229D01*
X192638868Y-22638229D01*
X192641030Y-22627355D01*
X192641166Y-22627090D01*
X192641249Y-22626256D01*
X192642432Y-22620311D01*
X192650072Y-22581896D01*
X192650500Y-22579931D01*
X192650500Y-22199909D01*
X192651100Y-22197864D01*
X192650568Y-22195801D01*
X192655521Y-22164982D01*
X192658055Y-22156350D01*
X192667696Y-22141345D01*
X192670185Y-22132870D01*
X192680642Y-22121196D01*
X192695825Y-22097569D01*
X192759379Y-22068540D01*
X192828538Y-22078479D01*
X192877608Y-22118745D01*
X192880605Y-22122902D01*
X192884659Y-22130170D01*
X192886508Y-22131883D01*
X192887277Y-22134864D01*
X192894590Y-22147978D01*
X192951983Y-22286541D01*
X192951990Y-22286553D01*
X193001602Y-22360801D01*
X193050536Y-22434036D01*
X193050537Y-22434037D01*
X193050542Y-22434043D01*
X193175955Y-22559456D01*
X193175961Y-22559461D01*
X193175965Y-22559464D01*
X193323446Y-22658009D01*
X193323459Y-22658016D01*
X193377539Y-22680416D01*
X193487334Y-22725894D01*
X193487336Y-22725894D01*
X193487341Y-22725896D01*
X193653680Y-22758982D01*
X193656403Y-22759704D01*
X193661306Y-22760500D01*
X193838693Y-22760500D01*
X193842814Y-22760500D01*
X193850661Y-22758118D01*
X193900059Y-22748293D01*
X194012658Y-22725896D01*
X194012661Y-22725894D01*
X194012666Y-22725894D01*
X194015879Y-22724562D01*
X194023826Y-22721277D01*
X194023866Y-22721254D01*
X194170229Y-22660630D01*
X194176540Y-22658016D01*
X194178907Y-22657036D01*
X194188157Y-22653204D01*
X194197043Y-22644317D01*
X194324035Y-22559464D01*
X194449464Y-22434035D01*
X194548013Y-22286547D01*
X194615894Y-22122666D01*
X194622057Y-22091686D01*
X194638964Y-22006682D01*
X194650500Y-21948691D01*
X194650500Y-21771309D01*
X194650500Y-21771306D01*
X194650500Y-21771125D01*
X194650074Y-21769169D01*
X194615896Y-21597341D01*
X194615893Y-21597332D01*
X194605701Y-21572727D01*
X194554505Y-21449125D01*
X194548016Y-21433459D01*
X194548009Y-21433446D01*
X194449464Y-21285965D01*
X194449461Y-21285961D01*
X194449456Y-21285955D01*
X194324043Y-21160542D01*
X194324037Y-21160537D01*
X194324036Y-21160536D01*
X194293672Y-21140247D01*
X202661702Y-21140247D01*
X202661702Y-22579752D01*
X202673333Y-22638229D01*
X202673334Y-22638230D01*
X202673334Y-22638231D01*
X202673336Y-22638233D01*
X202717649Y-22704552D01*
X202783967Y-22748864D01*
X202783969Y-22748866D01*
X202783972Y-22748868D01*
X202834814Y-22758981D01*
X202837539Y-22759703D01*
X202842451Y-22760500D01*
X204281952Y-22760500D01*
X204286075Y-22760500D01*
X204293934Y-22758116D01*
X204314614Y-22754003D01*
X204328460Y-22751249D01*
X204334556Y-22750648D01*
X204334588Y-22750639D01*
X204345513Y-22747902D01*
X204355717Y-22738654D01*
X204406754Y-22704552D01*
X204451069Y-22638231D01*
X204451069Y-22638229D01*
X204451070Y-22638229D01*
X204453232Y-22627355D01*
X204453368Y-22627090D01*
X204453451Y-22626256D01*
X204454634Y-22620311D01*
X204462274Y-22581896D01*
X204462702Y-22579931D01*
X204462702Y-22199909D01*
X204463302Y-22197864D01*
X204462770Y-22195801D01*
X204467723Y-22164982D01*
X204470257Y-22156350D01*
X204479898Y-22141345D01*
X204482387Y-22132870D01*
X204492844Y-22121196D01*
X204508027Y-22097569D01*
X204571581Y-22068540D01*
X204640740Y-22078479D01*
X204689810Y-22118745D01*
X204692807Y-22122902D01*
X204696861Y-22130170D01*
X204698710Y-22131883D01*
X204699479Y-22134864D01*
X204706792Y-22147978D01*
X204764185Y-22286541D01*
X204764192Y-22286553D01*
X204813804Y-22360801D01*
X204862738Y-22434036D01*
X204862739Y-22434037D01*
X204862744Y-22434043D01*
X204988157Y-22559456D01*
X204988163Y-22559461D01*
X204988167Y-22559464D01*
X205135648Y-22658009D01*
X205135661Y-22658016D01*
X205189741Y-22680416D01*
X205299536Y-22725894D01*
X205299538Y-22725894D01*
X205299543Y-22725896D01*
X205465882Y-22758982D01*
X205468605Y-22759704D01*
X205473508Y-22760500D01*
X205650895Y-22760500D01*
X205655016Y-22760500D01*
X205662863Y-22758118D01*
X205712261Y-22748293D01*
X205824860Y-22725896D01*
X205824863Y-22725894D01*
X205824868Y-22725894D01*
X205828081Y-22724562D01*
X205836028Y-22721277D01*
X205836068Y-22721254D01*
X205982431Y-22660630D01*
X205988742Y-22658016D01*
X205991109Y-22657036D01*
X206000359Y-22653204D01*
X206009245Y-22644317D01*
X206136237Y-22559464D01*
X206261666Y-22434035D01*
X206360215Y-22286547D01*
X206428096Y-22122666D01*
X206434259Y-22091686D01*
X206451166Y-22006682D01*
X206462702Y-21948691D01*
X206462702Y-21771309D01*
X206462702Y-21771306D01*
X206462702Y-21771125D01*
X206462276Y-21769169D01*
X206428098Y-21597341D01*
X206428095Y-21597332D01*
X206417903Y-21572727D01*
X206366707Y-21449125D01*
X206360218Y-21433459D01*
X206360211Y-21433446D01*
X206261666Y-21285965D01*
X206261663Y-21285961D01*
X206261658Y-21285955D01*
X206136245Y-21160542D01*
X206136239Y-21160537D01*
X206136238Y-21160536D01*
X205988761Y-21061994D01*
X205988760Y-21061993D01*
X205988755Y-21061990D01*
X205988742Y-21061983D01*
X205974573Y-21056114D01*
X205824878Y-20994109D01*
X205824855Y-20994101D01*
X205824848Y-20994099D01*
X205650900Y-20959500D01*
X205650896Y-20959500D01*
X205650893Y-20959500D01*
X205473511Y-20959500D01*
X205473508Y-20959500D01*
X205473503Y-20959500D01*
X205299554Y-20994100D01*
X205299547Y-20994101D01*
X205299524Y-20994109D01*
X205135674Y-21061977D01*
X205135656Y-21061985D01*
X205135641Y-21061994D01*
X204988164Y-21160536D01*
X204988163Y-21160537D01*
X204988157Y-21160542D01*
X204862744Y-21285955D01*
X204862739Y-21285961D01*
X204862738Y-21285962D01*
X204764196Y-21433439D01*
X204764187Y-21433454D01*
X204764182Y-21433465D01*
X204708084Y-21568900D01*
X204706726Y-21570584D01*
X204706423Y-21572727D01*
X204690082Y-21599243D01*
X204684439Y-21606247D01*
X204669788Y-21616420D01*
X204664243Y-21623303D01*
X204650132Y-21630071D01*
X204627051Y-21646101D01*
X204557226Y-21648602D01*
X204497134Y-21612956D01*
X204467202Y-21556962D01*
X204466024Y-21551976D01*
X204465054Y-21543658D01*
X204464001Y-21541363D01*
X204464432Y-21538317D01*
X204462702Y-21523465D01*
X204462702Y-21140063D01*
X204462271Y-21138081D01*
X204451070Y-21081770D01*
X204448177Y-21076358D01*
X204444283Y-21071613D01*
X204433927Y-21056114D01*
X204406754Y-21015447D01*
X204370348Y-20991121D01*
X204350587Y-20977917D01*
X204345843Y-20974024D01*
X204340432Y-20971132D01*
X204340431Y-20971131D01*
X204281954Y-20959500D01*
X204281952Y-20959500D01*
X202842451Y-20959500D01*
X202842449Y-20959500D01*
X202783972Y-20971131D01*
X202783971Y-20971131D01*
X202783970Y-20971132D01*
X202778557Y-20974024D01*
X202773816Y-20977916D01*
X202717649Y-21015446D01*
X202717648Y-21015447D01*
X202690474Y-21056114D01*
X202690472Y-21056119D01*
X202673334Y-21081769D01*
X202673333Y-21081770D01*
X202661702Y-21140247D01*
X194293672Y-21140247D01*
X194176559Y-21061994D01*
X194176558Y-21061993D01*
X194176553Y-21061990D01*
X194176540Y-21061983D01*
X194162371Y-21056114D01*
X194012676Y-20994109D01*
X194012653Y-20994101D01*
X194012646Y-20994099D01*
X193838698Y-20959500D01*
X193838694Y-20959500D01*
X193838691Y-20959500D01*
X193661309Y-20959500D01*
X193661306Y-20959500D01*
X193661301Y-20959500D01*
X193487352Y-20994100D01*
X193487345Y-20994101D01*
X193487322Y-20994109D01*
X193323472Y-21061977D01*
X193323454Y-21061985D01*
X193323439Y-21061994D01*
X193175962Y-21160536D01*
X193175961Y-21160537D01*
X193175955Y-21160542D01*
X193050542Y-21285955D01*
X193050537Y-21285961D01*
X193050536Y-21285962D01*
X192951994Y-21433439D01*
X192951985Y-21433454D01*
X192951980Y-21433465D01*
X192895882Y-21568900D01*
X192894524Y-21570584D01*
X192894221Y-21572727D01*
X192877880Y-21599243D01*
X192872237Y-21606247D01*
X192857586Y-21616420D01*
X192852041Y-21623303D01*
X192837930Y-21630071D01*
X192814849Y-21646101D01*
X192745024Y-21648602D01*
X192684932Y-21612956D01*
X192655000Y-21556962D01*
X192653822Y-21551976D01*
X192652852Y-21543658D01*
X192651799Y-21541363D01*
X192652230Y-21538317D01*
X192650500Y-21523465D01*
X192650500Y-21140063D01*
X192650069Y-21138081D01*
X192638868Y-21081770D01*
X192635975Y-21076358D01*
X192632081Y-21071613D01*
X192621725Y-21056114D01*
X192594552Y-21015447D01*
X192558146Y-20991121D01*
X192538385Y-20977917D01*
X192533641Y-20974024D01*
X192528230Y-20971132D01*
X192528229Y-20971131D01*
X192469752Y-20959500D01*
X192469750Y-20959500D01*
X191030249Y-20959500D01*
X191030247Y-20959500D01*
X190971770Y-20971131D01*
X190971769Y-20971131D01*
X190971768Y-20971132D01*
X190966355Y-20974024D01*
X190961614Y-20977916D01*
X190905447Y-21015446D01*
X190905446Y-21015447D01*
X190878272Y-21056114D01*
X190878270Y-21056119D01*
X190861132Y-21081769D01*
X190861131Y-21081770D01*
X190849500Y-21140247D01*
X185051447Y-21140247D01*
X184902196Y-21040520D01*
X184902197Y-21040520D01*
X184902187Y-21040515D01*
X184729314Y-20968910D01*
X184729305Y-20968907D01*
X184729302Y-20968906D01*
X184702202Y-20963515D01*
X184702202Y-21321900D01*
X184682517Y-21388939D01*
X184629713Y-21434694D01*
X184560555Y-21444638D01*
X184546112Y-21441675D01*
X184511447Y-21432387D01*
X184511446Y-21432387D01*
X184392957Y-21432387D01*
X184358294Y-21441674D01*
X184288446Y-21440012D01*
X184230583Y-21400849D01*
X184203079Y-21336621D01*
X184202202Y-21321900D01*
X184202202Y-20963516D01*
X184202201Y-20963515D01*
X184175105Y-20968905D01*
X184175097Y-20968907D01*
X184175088Y-20968910D01*
X184002215Y-21040515D01*
X184002205Y-21040520D01*
X183846609Y-21144487D01*
X183846608Y-21144488D01*
X183846602Y-21144493D01*
X183714292Y-21276803D01*
X183714289Y-21276808D01*
X183639208Y-21389175D01*
X183628403Y-21398944D01*
X183622794Y-21408948D01*
X183615619Y-21415435D01*
X183606942Y-21422686D01*
X183597697Y-21426709D01*
X183594303Y-21429779D01*
X183584399Y-21435043D01*
X183573306Y-21437325D01*
X183542878Y-21450569D01*
X183523896Y-21447492D01*
X183515963Y-21449125D01*
X183502922Y-21444092D01*
X183473908Y-21439390D01*
X183461236Y-21428006D01*
X183450778Y-21423971D01*
X183439359Y-21408354D01*
X183421931Y-21392698D01*
X183421924Y-21392686D01*
X183420697Y-21390699D01*
X183417045Y-21377836D01*
X183409539Y-21367570D01*
X183408302Y-21347039D01*
X183402202Y-21325548D01*
X183402202Y-21157589D01*
X183401766Y-21155584D01*
X183387698Y-21084860D01*
X183387696Y-21084855D01*
X183372418Y-21061990D01*
X183332441Y-21002160D01*
X183249746Y-20946905D01*
X183249747Y-20946905D01*
X183249745Y-20946904D01*
X183249739Y-20946902D01*
X183200911Y-20937190D01*
X183176829Y-20932400D01*
X183176828Y-20932400D01*
X182702202Y-20932400D01*
X182702202Y-21321900D01*
X182682517Y-21388939D01*
X182629713Y-21434694D01*
X182560555Y-21444638D01*
X182546112Y-21441675D01*
X182511447Y-21432387D01*
X182511446Y-21432387D01*
X182392957Y-21432387D01*
X182358294Y-21441674D01*
X182288446Y-21440012D01*
X182230583Y-21400849D01*
X182203079Y-21336621D01*
X182202202Y-21321900D01*
X182202202Y-20932400D01*
X181727575Y-20932400D01*
X181713073Y-20935284D01*
X181654662Y-20946902D01*
X181654657Y-20946904D01*
X181571962Y-21002160D01*
X181516706Y-21084855D01*
X181516705Y-21084859D01*
X181503369Y-21151905D01*
X181502202Y-21157771D01*
X165964436Y-21157771D01*
X165964425Y-21151905D01*
X165964025Y-20932400D01*
X165957361Y-17272549D01*
X165962319Y-17237615D01*
X165966698Y-17222601D01*
X166004361Y-17163760D01*
X166005717Y-17162581D01*
X166060593Y-17135030D01*
X166068259Y-17133355D01*
X166094718Y-17130500D01*
X220744789Y-17130500D01*
X220748265Y-17130549D01*
G37*
%TD.AperFunction*%
%TD*%
M02*
