%TF.GenerationSoftware,KiCad,Pcbnew,10.0.4*%
%TF.CreationDate,2026-07-09T22:57:28-05:00*%
%TF.ProjectId,matt-poe-prototype,6d617474-2d70-46f6-952d-70726f746f74,4.06/2L*%
%TF.SameCoordinates,Original*%
%TF.FileFunction,Soldermask,Bot*%
%TF.FilePolarity,Negative*%
%FSLAX46Y46*%
G04 Gerber Fmt 4.6, Leading zero omitted, Abs format (unit mm)*
G04 Created by KiCad (PCBNEW 10.0.4) date 2026-07-09 22:57:28*
%MOMM*%
%LPD*%
G01*
G04 APERTURE LIST*
%ADD10C,0.100000*%
%ADD11C,2.700000*%
%ADD12R,1.400000X1.400000*%
%ADD13O,1.400000X1.400000*%
%ADD14C,3.100000*%
%ADD15C,5.400000*%
%ADD16R,1.700000X1.700000*%
%ADD17C,1.700000*%
G04 APERTURE END LIST*
D10*
X124080000Y-106920000D02*
X223900000Y-106920000D01*
X223900000Y-108420000D01*
X124080000Y-108420000D01*
X124080000Y-106920000D01*
G36*
X124080000Y-106920000D02*
G01*
X223900000Y-106920000D01*
X223900000Y-108420000D01*
X124080000Y-108420000D01*
X124080000Y-106920000D01*
G37*
X166010000Y-16860000D02*
X224030000Y-16860000D01*
X224030000Y-18360000D01*
X166010000Y-18360000D01*
X166010000Y-16860000D01*
G36*
X166010000Y-16860000D02*
G01*
X224030000Y-16860000D01*
X224030000Y-18360000D01*
X166010000Y-18360000D01*
X166010000Y-16860000D01*
G37*
D11*
%TO.C,MH2*%
X189640000Y-53540000D03*
%TD*%
D12*
%TO.C,PG-TP1*%
X130860000Y-21882400D03*
D13*
X132860000Y-21882400D03*
%TD*%
D12*
%TO.C,5V-TP5*%
X203562202Y-21860000D03*
D13*
X205562202Y-21860000D03*
%TD*%
D12*
%TO.C,JP3*%
X176680000Y-41190000D03*
D13*
X178680000Y-41190000D03*
%TD*%
D12*
%TO.C,JP1*%
X130770000Y-51790000D03*
D13*
X130770000Y-49790000D03*
%TD*%
D14*
%TO.C,H1*%
X216095000Y-22880000D03*
D15*
X216095000Y-22880000D03*
%TD*%
D16*
%TO.C,J2*%
X132910000Y-58410000D03*
D17*
X130370000Y-58410000D03*
X132910000Y-60950000D03*
X130370000Y-60950000D03*
%TD*%
D12*
%TO.C,JP4*%
X183870000Y-48600000D03*
D13*
X185870000Y-48600000D03*
%TD*%
D12*
%TO.C,12V-TP4*%
X191750000Y-21860000D03*
D13*
X193750000Y-21860000D03*
%TD*%
D11*
%TO.C,MH3*%
X131640000Y-102540000D03*
%TD*%
D12*
%TO.C,GND-TP3*%
X182452202Y-21882400D03*
D13*
X184452202Y-21882400D03*
%TD*%
D12*
%TO.C,SW-TP2*%
X155742202Y-21882400D03*
D13*
X157742202Y-21882400D03*
%TD*%
D11*
%TO.C,MOUNT*%
X138770000Y-22880000D03*
%TD*%
D12*
%TO.C,JP2*%
X137500000Y-35850000D03*
D13*
X139500000Y-35850000D03*
%TD*%
D11*
%TO.C,MH4*%
X189640000Y-102540000D03*
%TD*%
D14*
%TO.C,H2*%
X216580000Y-102480000D03*
D15*
X216580000Y-102480000D03*
%TD*%
M02*
